G04 ================== begin FILE IDENTIFICATION RECORD ==================*
G04 Layout Name:  C:/SPB_Data/HARDWARE/board/VitaBoard.brd*
G04 Film Name:    BOTTOM*
G04 File Format:  Gerber RS274X*
G04 File Origin:  Cadence Allegro 16.6-S044*
G04 Origin Date:  Wed Mar 18 15:44:55 2015*
G04 *
G04 Layer:  ETCH/BOTTOM*
G04 Layer:  PIN/BOTTOM*
G04 Layer:  VIA CLASS/BOTTOM*
G04 *
G04 Offset:    (0.00 0.00)*
G04 Mirror:    No*
G04 Mode:      Positive*
G04 Rotation:  0*
G04 FullContactRelief:  No*
G04 UndefLineWidth:     6.00*
G04 ================== end FILE IDENTIFICATION RECORD ====================*
%FSAX35Y35*MOIN*%
%IR0*IPPOS*OFA0.00000B0.00000*MIA0B0*SFA1.00000B1.00000*%
%ADD12C,.024*%
%ADD16C,.05512*%
%ADD20C,.05118*%
%ADD22C,.09055*%
%ADD15R,.05512X.05512*%
%ADD11C,.03937*%
%ADD18C,.06496*%
%ADD24R,.09055X.09055*%
%ADD17C,.06299*%
%ADD14C,.09449*%
%ADD19R,.06496X.06496*%
%ADD25R,.06299X.06299*%
%ADD21C,.1063*%
%ADD13O,.1968X.126*%
%ADD23R,.1063X.1063*%
%ADD10C,.26378*%
%ADD26C,.02*%
%ADD27C,.04*%
%ADD28C,.06*%
%ADD29C,.08*%
%ADD30C,.1*%
%ADD31C,.008*%
%ADD41C,.06122*%
%ADD39C,.075*%
%ADD35C,.07302*%
%ADD36C,.06516*%
%ADD34C,.10452*%
%ADD40R,.075X.075*%
%ADD37R,.07302X.07302*%
%ADD38O,.20684X.13604*%
%ADD32C,.16934*%
%ADD33R,.06516X.06516*%
G75*
%LPD*%
G75*
G36*
G01X00022308Y00003000D02*
G02X00022129Y00003758I0J00000400D01*
G03X00003758Y00022129I-00006129J00012242D01*
G02X00003000Y00022308I-00000358J00000179D01*
G01X00003000Y00167692D01*
G02X00003758Y00167871I00000400J0D01*
G03X00022129Y00186242I00012242J00006129D01*
G02X00022308Y00187000I00000179J00000358D01*
G01X00357692Y00187000D01*
G02X00357871Y00186242I0J-00000400D01*
G03X00376242Y00167871I00006129J-00012242D01*
G02X00377000Y00167692I00000358J-00000179D01*
G01X00377000Y00022308D01*
G02X00376242Y00022129I-00000400J0D01*
G03X00357871Y00003758I-00012242J-00006129D01*
G02X00357692Y00003000I-00000179J-00000358D01*
G01X00022308Y00003000D01*
G37*
G36*
G01X00146498Y00231572D02*
X00136005Y00231572D01*
X00115076Y00252502D01*
X00064865Y00252502D01*
G03X00058502Y00256801I-00006324J-00002502D01*
G01X00058502Y00258550D01*
X00085450Y00285498D01*
X00098450Y00285498D01*
X00125502Y00312550D01*
X00125502Y00332550D01*
X00157450Y00364498D01*
X00259498Y00364498D01*
X00259498Y00358750D01*
X00259250Y00358750D01*
X00259250Y00351250D01*
X00266750Y00351250D01*
X00266750Y00358750D01*
X00266502Y00358750D01*
X00266502Y00364498D01*
X00296550Y00364498D01*
X00307250Y00353798D01*
X00307250Y00351250D01*
X00314750Y00351250D01*
X00314750Y00358750D01*
X00312202Y00358750D01*
X00299450Y00371502D01*
X00154550Y00371502D01*
X00120586Y00337538D01*
X00120252Y00337872D01*
X00105171Y00337872D01*
G03X00105171Y00334868I-00000801J-00001502D01*
G01X00118127Y00334868D01*
G02X00118524Y00334420I0J-00000400D01*
G03X00118498Y00334000I00003476J-00000426D01*
G01X00118498Y00315450D01*
X00095550Y00292502D01*
X00082550Y00292502D01*
X00051498Y00261450D01*
X00051498Y00256801D01*
G03X00051460Y00243198I-00000038J-00006801D01*
G01X00058540Y00243198D01*
G03X00064865Y00247498I0J00006802D01*
G01X00113004Y00247498D01*
X00133933Y00226570D01*
X00149071Y00226570D01*
G03X00151572Y00229071I0J00002501D01*
G01X00151572Y00233807D01*
X00151502Y00233878D01*
X00151502Y00254066D01*
G02X00152184Y00254349I00000400J0D01*
G01X00154035Y00252498D01*
X00166000Y00252498D01*
X00166000Y00194000D01*
X00022308Y00194000D01*
G02X00022129Y00194758I0J00000400D01*
G03X00003758Y00213129I-00006129J00012242D01*
G02X00003000Y00213308I-00000358J00000179D01*
G01X00003000Y00358692D01*
G02X00003758Y00358871I00000400J0D01*
G03X00022129Y00377242I00012242J00006129D01*
G02X00022308Y00378000I00000179J00000358D01*
G01X00357692Y00378000D01*
G02X00357871Y00377242I0J-00000400D01*
G03X00376242Y00358871I00006129J-00012242D01*
G02X00377000Y00358692I00000358J-00000179D01*
G01X00377000Y00316000D01*
X00184503Y00316000D01*
G02X00184220Y00316683I0J00000400D01*
G01X00190036Y00322498D01*
X00249784Y00322498D01*
X00275502Y00348216D01*
X00275502Y00352206D01*
G03X00270498Y00352206I-00002502J00002794D01*
G01X00270498Y00350288D01*
X00247712Y00327502D01*
X00187964Y00327502D01*
X00176462Y00316000D01*
X00172503Y00316000D01*
G02X00172220Y00316683I0J00000400D01*
G01X00193036Y00337498D01*
X00219247Y00337498D01*
X00227502Y00345753D01*
X00227502Y00352206D01*
G03X00222498Y00352206I-00002502J00002794D01*
G01X00222498Y00347825D01*
X00217175Y00342502D01*
X00190964Y00342502D01*
X00164498Y00316036D01*
X00164498Y00284963D01*
X00166000Y00283461D01*
X00166000Y00257502D01*
X00156107Y00257502D01*
X00151502Y00262107D01*
X00151502Y00292071D01*
G03X00146498Y00292071I-00002502J0D01*
G01X00146498Y00231572D01*
G37*
%LPC*%
G75*
G36*
G01X00052417Y00170707D02*
X00066002Y00157122D01*
X00066002Y00153301D01*
G02X00062998Y00153301I-00001502J-00000801D01*
G01X00062998Y00155878D01*
X00050293Y00168583D01*
X00050175Y00168543D01*
G02X00052457Y00170825I-00001175J00003457D01*
G01X00052417Y00170707D01*
G37*
G36*
G01X00186378Y00082498D02*
X00170292Y00098585D01*
G02X00172457Y00100825I-00001292J00003415D01*
G01X00172417Y00100707D01*
X00187622Y00085502D01*
X00235199Y00085502D01*
G02X00235199Y00082498I00000801J-00001502D01*
G01X00186378Y00082498D01*
G37*
G36*
G01X00162415Y00100708D02*
X00170502Y00092622D01*
X00170502Y00084801D01*
G02X00167498Y00084801I-00001502J-00000801D01*
G01X00167498Y00091378D01*
X00160293Y00098583D01*
X00160175Y00098543D01*
G02X00162415Y00100708I-00001175J00003457D01*
G37*
G36*
G01X00147707Y00098583D02*
X00131622Y00082498D01*
X00102801Y00082498D01*
G02X00102801Y00085502I-00000801J00001502D01*
G01X00130378Y00085502D01*
X00145585Y00100708D01*
G02X00147825Y00098543I00003415J00001292D01*
G01X00147707Y00098583D01*
G37*
G36*
G01X00060122Y00126502D02*
X00064994Y00121629D01*
X00065039Y00121614D01*
G02X00062886Y00119461I-00000539J-00001614D01*
G01X00062871Y00119506D01*
X00058878Y00123498D01*
X00043622Y00123498D01*
X00035502Y00115378D01*
X00035502Y00104609D01*
G03X00036207Y00104352I00000400J00000001D01*
G02X00036207Y00099648I00002793J-00002352D01*
G03X00035502Y00099391I-00000305J-00000258D01*
G01X00035502Y00084801D01*
G02X00032498Y00084801I-00001502J-00000801D01*
G01X00032498Y00116622D01*
X00042378Y00126502D01*
X00060122Y00126502D01*
G37*
G36*
G01X00062501Y00077199D02*
X00062501Y00070891D01*
G02X00059498Y00070891I-00001501J-00002891D01*
G01X00059498Y00077199D01*
G02X00062501Y00077199I00001502J00000801D01*
G37*
G36*
G01X00149622Y00051498D02*
X00080378Y00051498D01*
X00076984Y00054892D01*
X00076872Y00054861D01*
G02X00079139Y00057128I-00000872J00003139D01*
G01X00079108Y00057016D01*
X00081622Y00054502D01*
X00084056Y00054502D01*
G03X00084268Y00055240I-00000001J00000400D01*
G02X00082861Y00058872I00001732J00002760D01*
G01X00082892Y00058984D01*
X00082368Y00059508D01*
X00080924Y00059508D01*
X00074942Y00065490D01*
X00074942Y00068378D01*
X00074398Y00068922D01*
X00074182Y00068706D01*
X00074202Y00068602D01*
G02X00071088Y00071257I-00003202J-00000602D01*
G03X00071381Y00071939I00000010J00000400D01*
G01X00052548Y00090772D01*
X00052548Y00099451D01*
G03X00051838Y00099703I-00000400J0D01*
G02X00051838Y00104297I-00002838J00002297D01*
G03X00052548Y00104549I00000310J00000252D01*
G01X00052548Y00116972D01*
X00052998Y00117422D01*
X00052998Y00119199D01*
G02X00056002Y00119199I00001502J00000801D01*
G01X00056002Y00116178D01*
X00055552Y00115728D01*
X00055552Y00104668D01*
G03X00056252Y00104404I00000400J0D01*
G02X00061748Y00104404I00002748J-00002404D01*
G03X00062448Y00104668I00000300J00000264D01*
G01X00062448Y00109428D01*
X00060506Y00111371D01*
X00060461Y00111386D01*
G02X00062614Y00113539I00000539J00001614D01*
G01X00062629Y00113494D01*
X00065452Y00110672D01*
X00065452Y00104549D01*
G03X00066162Y00104297I00000400J0D01*
G02X00066162Y00099703I00002838J-00002297D01*
G03X00065452Y00099451I-00000310J-00000252D01*
G01X00065452Y00095672D01*
X00090016Y00071108D01*
X00090128Y00071139D01*
G02X00091872Y00071139I00000872J-00003139D01*
G01X00091984Y00071108D01*
X00098179Y00077302D01*
X00166077Y00077302D01*
X00170502Y00072878D01*
X00170502Y00072591D01*
G03X00171184Y00072308I00000400J0D01*
G01X00177179Y00078302D01*
X00236821Y00078302D01*
X00244016Y00071108D01*
X00244128Y00071139D01*
G02X00245872Y00071139I00000872J-00003139D01*
G01X00245984Y00071108D01*
X00254378Y00079502D01*
X00312622Y00079502D01*
X00321016Y00071108D01*
X00321128Y00071139D01*
G02X00323732Y00065240I00000872J-00003139D01*
G03X00323944Y00064502I00000213J-00000338D01*
G01X00335378Y00064502D01*
X00364498Y00093622D01*
X00364498Y00106378D01*
X00345378Y00125498D01*
X00327944Y00125498D01*
G03X00327732Y00124760I00000001J-00000400D01*
G02X00329139Y00121128I-00001732J-00002760D01*
G01X00329108Y00121016D01*
X00337502Y00112622D01*
X00337502Y00102378D01*
X00322502Y00087378D01*
X00322502Y00078801D01*
G02X00319498Y00078801I-00001502J-00000801D01*
G01X00319498Y00088622D01*
X00328936Y00098060D01*
G03X00328653Y00098742I-00000283J00000282D01*
G01X00322742Y00098742D01*
X00322742Y00105498D01*
X00322378Y00105498D01*
X00319868Y00108008D01*
G03X00319193Y00107646I-00000283J-00000283D01*
G02X00312861Y00107872I-00003193J-00000646D01*
G01X00312892Y00107984D01*
X00299368Y00121508D01*
X00287632Y00121508D01*
X00287108Y00120984D01*
X00287139Y00120872D01*
G02X00284872Y00123139I-00003139J-00000872D01*
G01X00284984Y00123108D01*
X00286388Y00124512D01*
X00300612Y00124512D01*
X00315016Y00110108D01*
X00315128Y00110139D01*
G02X00316646Y00110193I00000872J-00003139D01*
G03X00317008Y00110868I00000079J00000392D01*
G01X00314498Y00113378D01*
X00314498Y00114109D01*
G02X00314268Y00119760I00001502J00002891D01*
G03X00314056Y00120498I-00000213J00000338D01*
G01X00307378Y00120498D01*
X00293178Y00134698D01*
X00271566Y00134698D01*
X00270502Y00133634D01*
X00270502Y00132891D01*
G02X00270732Y00127240I-00001502J-00002891D01*
G03X00270944Y00126502I00000213J-00000338D01*
G01X00273378Y00126502D01*
X00275892Y00129016D01*
X00275861Y00129128D01*
G02X00278128Y00126861I00003139J00000872D01*
G01X00278016Y00126892D01*
X00274876Y00123752D01*
G03X00275032Y00123090I00000283J-00000283D01*
G02X00277139Y00119128I-00001032J-00003090D01*
G01X00277108Y00119016D01*
X00281622Y00114502D01*
X00295378Y00114502D01*
X00298371Y00117494D01*
X00298386Y00117539D01*
G02X00300539Y00115386I00001614J-00000539D01*
G01X00300494Y00115371D01*
X00296622Y00111498D01*
X00280378Y00111498D01*
X00274984Y00116892D01*
X00274872Y00116861D01*
G02X00272268Y00122760I-00000872J00003139D01*
G03X00272056Y00123498I-00000213J00000338D01*
G01X00265944Y00123498D01*
G03X00265732Y00122760I00000001J-00000400D01*
G02X00262268Y00122760I-00001732J-00002760D01*
G03X00262056Y00123498I-00000213J00000338D01*
G01X00255944Y00123498D01*
G03X00255732Y00122760I00000001J-00000400D01*
G02X00252268Y00122760I-00001732J-00002760D01*
G03X00252056Y00123498I-00000213J00000338D01*
G01X00193878Y00123498D01*
X00187006Y00130371D01*
X00186961Y00130386D01*
G02X00189114Y00132539I00000539J00001614D01*
G01X00189129Y00132494D01*
X00195122Y00126502D01*
X00257056Y00126502D01*
G03X00257268Y00127240I-00000001J00000400D01*
G02X00260732Y00127240I00001732J00002760D01*
G03X00260944Y00126502I00000213J-00000338D01*
G01X00267056Y00126502D01*
G03X00267268Y00127240I-00000001J00000400D01*
G02X00267498Y00132891I00001732J00002760D01*
G01X00267498Y00133634D01*
X00266634Y00134498D01*
X00247622Y00134498D01*
X00244622Y00131498D01*
X00238801Y00131498D01*
G02X00238801Y00134502I-00000801J00001502D01*
G01X00243378Y00134502D01*
X00245692Y00136816D01*
G03X00245409Y00137498I-00000283J00000282D01*
G01X00245074Y00137498D01*
X00243074Y00135498D01*
X00203301Y00135498D01*
G02X00201699Y00135498I-00000801J00001502D01*
G01X00192801Y00135498D01*
G02X00191199Y00135498I-00000801J00001502D01*
G01X00160301Y00135498D01*
G02X00158699Y00135498I-00000801J00001502D01*
G01X00149801Y00135498D01*
G02X00148199Y00135498I-00000801J00001502D01*
G01X00115301Y00135498D01*
G02X00113699Y00135498I-00000801J00001502D01*
G01X00105801Y00135498D01*
G02X00104199Y00135498I-00000801J00001502D01*
G01X00069801Y00135498D01*
G02X00068199Y00135498I-00000801J00001502D01*
G01X00062122Y00135498D01*
X00061879Y00135256D01*
X00061864Y00135211D01*
G02X00059711Y00137364I-00001614J00000539D01*
G01X00059756Y00137379D01*
X00060192Y00137816D01*
G03X00059909Y00138498I-00000283J00000282D01*
G01X00055502Y00138498D01*
X00055502Y00135672D01*
X00058672Y00132502D01*
X00064622Y00132502D01*
X00079622Y00117502D01*
X00215622Y00117502D01*
X00227472Y00105651D01*
X00232651Y00105651D01*
X00232651Y00098349D01*
X00225349Y00098349D01*
X00225349Y00103528D01*
X00214378Y00114498D01*
X00078378Y00114498D01*
X00063378Y00129498D01*
X00057428Y00129498D01*
X00052498Y00134428D01*
X00052498Y00139199D01*
G02X00054801Y00141502I00001502J00000801D01*
G01X00098699Y00141502D01*
G02X00100301Y00141502I00000801J-00001502D01*
G01X00143199Y00141502D01*
G02X00144801Y00141502I00000801J-00001502D01*
G01X00186699Y00141502D01*
G02X00188301Y00141502I00000801J-00001502D01*
G01X00210378Y00141502D01*
X00240378Y00171502D01*
X00304622Y00171502D01*
X00313032Y00163092D01*
X00331968Y00163092D01*
X00332871Y00163994D01*
X00332886Y00164039D01*
G02X00335039Y00161886I00001614J-00000539D01*
G01X00334994Y00161871D01*
X00333212Y00160088D01*
X00311788Y00160088D01*
X00303378Y00168498D01*
X00241622Y00168498D01*
X00212308Y00139184D01*
G03X00212591Y00138502I00000283J-00000282D01*
G01X00241830Y00138502D01*
X00242077Y00138748D01*
G03X00241723Y00139425I-00000283J00000283D01*
G02X00244756Y00141162I-00000931J00005142D01*
G03X00245059Y00140502I00000303J-00000260D01*
G01X00296622Y00140502D01*
X00300433Y00136690D01*
X00304567Y00136690D01*
X00311378Y00143502D01*
X00329199Y00143502D01*
G02X00329199Y00140498I00000801J-00001502D01*
G01X00317944Y00140498D01*
G03X00317732Y00139760I00000001J-00000400D01*
G02X00314268Y00139760I-00001732J-00002760D01*
G03X00314056Y00140498I-00000213J00000338D01*
G01X00312622Y00140498D01*
X00305811Y00133688D01*
X00299189Y00133688D01*
X00295378Y00137498D01*
X00295108Y00137498D01*
G03X00294966Y00137157I0J-00000200D01*
G01X00308622Y00123502D01*
X00314056Y00123502D01*
G03X00314268Y00124240I-00000001J00000400D01*
G02X00318891Y00128502I00001732J00002760D01*
G01X00324056Y00128502D01*
G03X00324268Y00129240I-00000001J00000400D01*
G02X00327732Y00129240I00001732J00002760D01*
G03X00327944Y00128502I00000213J-00000338D01*
G01X00346622Y00128502D01*
X00367502Y00107622D01*
X00367502Y00092378D01*
X00336622Y00061498D01*
X00318378Y00061498D01*
X00314245Y00065632D01*
X00314104Y00065513D01*
G02X00313032Y00064910I-00002104J00002487D01*
G03X00312876Y00064248I00000127J-00000379D01*
G01X00316016Y00061108D01*
X00316128Y00061139D01*
G02X00313861Y00058872I00000872J-00003139D01*
G01X00313892Y00058984D01*
X00311378Y00061498D01*
X00308944Y00061498D01*
G03X00308732Y00060760I00000001J-00000400D01*
G02X00306128Y00054861I-00001732J-00002760D01*
G01X00306016Y00054892D01*
X00303066Y00051942D01*
X00233934Y00051942D01*
X00230984Y00054892D01*
X00230872Y00054861D01*
G02X00229128Y00054861I-00000872J00003139D01*
G01X00229016Y00054892D01*
X00226066Y00051942D01*
X00157934Y00051942D01*
X00154984Y00054892D01*
X00154872Y00054861D01*
G02X00153128Y00054861I-00000872J00003139D01*
G01X00153016Y00054892D01*
X00149622Y00051498D01*
G37*
G36*
G01X00075378Y00305498D02*
X00068984Y00311892D01*
X00068872Y00311861D01*
G02X00071139Y00314128I-00000872J00003139D01*
G01X00071108Y00314016D01*
X00076622Y00308502D01*
X00086620Y00308502D01*
G02X00086620Y00305498I00000801J-00001502D01*
G01X00075378Y00305498D01*
G37*
G54D41*
X00158000Y00329000D03*
X00145000Y00319000D03*
X00158000Y00312000D03*
X00145000Y00336000D03*
G54D39*
X00084000Y00216000D03*
X00177000Y00355000D03*
X00321000Y00355000D03*
G54D35*
X00039000Y00172000D03*
X00059000Y00172000D03*
X00079000Y00102000D03*
X00089000Y00102000D03*
X00069000Y00172000D03*
X00079000Y00172000D03*
X00089000Y00172000D03*
X00099000Y00102000D03*
X00109000Y00102000D03*
X00099000Y00172000D03*
X00109000Y00172000D03*
X00119000Y00102000D03*
X00129000Y00102000D03*
X00139000Y00102000D03*
X00119000Y00172000D03*
X00129000Y00172000D03*
X00139000Y00172000D03*
X00149000Y00172000D03*
X00159000Y00172000D03*
X00169000Y00172000D03*
X00179000Y00102000D03*
X00189000Y00102000D03*
X00179000Y00172000D03*
X00189000Y00172000D03*
X00199000Y00102000D03*
X00209000Y00102000D03*
X00219000Y00102000D03*
X00199000Y00172000D03*
X00209000Y00172000D03*
X00219000Y00172000D03*
G54D36*
X00066000Y00058000D03*
X00058000Y00300000D03*
X00058000Y00310000D03*
X00058000Y00320000D03*
X00068000Y00295000D03*
X00068000Y00305000D03*
X00068000Y00325000D03*
G54D34*
X00042791Y00043433D03*
X00104209Y00043433D03*
X00120791Y00043433D03*
X00196791Y00043433D03*
X00182209Y00043433D03*
X00273791Y00043433D03*
X00258209Y00043433D03*
X00302209Y00144567D03*
X00335209Y00043433D03*
X00340567Y00088791D03*
X00340567Y00150209D03*
X00043433Y00281791D03*
X00043433Y00343209D03*
G54D40*
X00094000Y00216000D03*
X00167000Y00355000D03*
X00215000Y00355000D03*
G54D37*
X00229000Y00172000D03*
G54D38*
X00040500Y00231500D03*
X00026500Y00250000D03*
G54D32*
X00051000Y00031425D03*
X00096000Y00031425D03*
X00129000Y00031425D03*
X00174000Y00031425D03*
X00205000Y00031425D03*
X00250000Y00031425D03*
X00249000Y00156575D03*
X00282000Y00031425D03*
X00294000Y00156575D03*
X00327000Y00031425D03*
X00352575Y00097000D03*
X00352575Y00142000D03*
X00031425Y00290000D03*
X00031425Y00335000D03*
G54D33*
X00056000Y00058000D03*
X00289000Y00130000D03*
X00058000Y00330000D03*
%LPD*%
G75*
G36*
G01X00062448Y00099332D02*
X00062448Y00094428D01*
X00087892Y00068984D01*
X00087861Y00068872D01*
G03X00088758Y00065636I00003139J-00000872D01*
G02X00088483Y00064946I-00000275J-00000290D01*
G01X00086178Y00064946D01*
X00084108Y00067016D01*
X00084139Y00067128D01*
G03X00078343Y00069885I-00003139J00000872D01*
G02X00077734Y00069834I-00000326J00000232D01*
G01X00055552Y00092016D01*
X00055552Y00099332D01*
G02X00056252Y00099596I00000400J0D01*
G03X00061748Y00099596I00002748J00002404D01*
G02X00062448Y00099332I00000300J-00000264D01*
G37*
G36*
G01X00087732Y00055240D02*
G03X00089139Y00058872I-00001732J00002760D01*
G01X00089108Y00058984D01*
X00089266Y00059142D01*
X00097226Y00059142D01*
X00100026Y00061942D01*
X00157934Y00061942D01*
X00160892Y00058984D01*
X00160861Y00058872D01*
G03X00161758Y00055636I00003139J-00000872D01*
G02X00161483Y00054946I-00000275J-00000290D01*
G01X00159178Y00054946D01*
X00157108Y00057016D01*
X00157139Y00057128D01*
G03X00150861Y00057128I-00003139J00000872D01*
G01X00150892Y00057016D01*
X00148378Y00054502D01*
X00145944Y00054502D01*
G02X00145732Y00055240I00000001J00000400D01*
G03X00142268Y00055240I-00001732J00002760D01*
G02X00142056Y00054502I-00000213J-00000338D01*
G01X00137258Y00054502D01*
X00137258Y00061258D01*
X00130742Y00061258D01*
X00130742Y00054502D01*
X00087944Y00054502D01*
G02X00087732Y00055240I00000001J00000400D01*
G37*
G54D10*
X00016000Y00016000D03*
X00016000Y00174000D03*
X00016000Y00207000D03*
X00016000Y00365000D03*
X00364000Y00016000D03*
X00364000Y00174000D03*
X00364000Y00207000D03*
X00364000Y00365000D03*
G54D11*
X00007306Y00010980D03*
X00007306Y00021020D03*
X00007306Y00168980D03*
X00007306Y00179020D03*
X00007306Y00201980D03*
X00007306Y00212020D03*
X00007306Y00359980D03*
X00007306Y00370020D03*
X00016000Y00005961D03*
X00024694Y00021020D03*
X00024694Y00010980D03*
X00016000Y00026039D03*
X00024694Y00168980D03*
X00016000Y00163961D03*
X00024694Y00179020D03*
X00016000Y00184039D03*
X00024694Y00212020D03*
X00024694Y00201980D03*
X00016000Y00196961D03*
X00016000Y00217039D03*
X00031425Y00290000D03*
X00031425Y00335000D03*
X00016000Y00354961D03*
X00024694Y00370020D03*
X00024694Y00359980D03*
X00016000Y00375039D03*
X00051000Y00031425D03*
X00096000Y00031425D03*
X00129000Y00031425D03*
X00174000Y00031425D03*
X00205000Y00031425D03*
X00250000Y00031425D03*
X00249000Y00156575D03*
X00282000Y00031425D03*
X00294000Y00156575D03*
X00327000Y00031425D03*
X00355306Y00010980D03*
X00355306Y00021020D03*
X00352575Y00097000D03*
X00352575Y00142000D03*
X00355306Y00168980D03*
X00355306Y00179020D03*
X00355306Y00201980D03*
X00355306Y00212020D03*
X00355306Y00359980D03*
X00355306Y00370020D03*
X00364000Y00005961D03*
X00372694Y00021020D03*
X00372694Y00010980D03*
X00364000Y00026039D03*
X00372694Y00168980D03*
X00364000Y00163961D03*
X00372694Y00179020D03*
X00364000Y00184039D03*
X00372694Y00212020D03*
X00372694Y00201980D03*
X00364000Y00196961D03*
X00364000Y00217039D03*
X00364000Y00354961D03*
X00372694Y00370020D03*
X00372694Y00359980D03*
X00364000Y00375039D03*
G54D20*
X00158000Y00329000D03*
X00145000Y00319000D03*
X00158000Y00312000D03*
X00145000Y00336000D03*
G54D30*
G01X00189000Y00295000D02*
X00219000Y00295000D01*
G01X00219000Y00295000D02*
X00243000Y00295000D01*
G01X00243000Y00295000D02*
X00273000Y00295000D01*
G01X00273000Y00295000D02*
X00296000Y00295000D01*
G01X00296000Y00295000D02*
X00326000Y00295000D01*
G01X00326000Y00295000D02*
X00348000Y00295000D01*
X00358000Y00285000D01*
G54D21*
X00194000Y00214000D03*
X00248000Y00214000D03*
X00302000Y00214000D03*
X00358000Y00265000D03*
G54D12*
X00006000Y00221000D03*
X00006000Y00248000D03*
X00006000Y00276000D03*
X00006000Y00302000D03*
X00006000Y00326000D03*
X00006000Y00348000D03*
X00034000Y00084000D03*
X00030000Y00197000D03*
X00031000Y00375000D03*
X00061000Y00078000D03*
X00060000Y00092000D03*
X00044000Y00092000D03*
X00061000Y00113000D03*
X00054500Y00120000D03*
X00054000Y00140000D03*
X00060250Y00135750D03*
X00038000Y00160000D03*
X00056000Y00197000D03*
X00054000Y00375000D03*
X00072000Y00114000D03*
X00069000Y00137000D03*
X00064500Y00120000D03*
X00070000Y00160000D03*
X00064500Y00152500D03*
X00082000Y00197000D03*
X00087421Y00307000D03*
X00081000Y00375000D03*
X00102000Y00084000D03*
X00105000Y00092000D03*
X00099500Y00140000D03*
X00114500Y00137000D03*
X00105000Y00137000D03*
X00100000Y00160000D03*
X00109000Y00197000D03*
X00104370Y00336370D03*
X00112000Y00375000D03*
X00119000Y00058000D03*
X00141000Y00085000D03*
X00128000Y00092000D03*
X00131000Y00160000D03*
X00135000Y00197000D03*
X00125000Y00272000D03*
X00125000Y00263000D03*
X00139000Y00375000D03*
X00167000Y00122000D03*
X00144000Y00140000D03*
X00159500Y00137000D03*
X00149000Y00137000D03*
X00161000Y00160000D03*
X00163000Y00212000D03*
X00163000Y00197000D03*
X00163000Y00237000D03*
X00149071Y00229071D03*
X00149000Y00261071D03*
X00149000Y00292071D03*
X00169000Y00084000D03*
X00188000Y00092000D03*
X00179000Y00122000D03*
X00187500Y00132000D03*
X00187500Y00140000D03*
X00192000Y00137000D03*
X00190000Y00160000D03*
X00169000Y00375000D03*
X00193000Y00375000D03*
X00216000Y00092000D03*
X00220000Y00120000D03*
X00202500Y00137000D03*
X00219000Y00160000D03*
X00213000Y00266000D03*
X00197000Y00319000D03*
X00217000Y00319000D03*
X00217000Y00375000D03*
X00236000Y00084000D03*
X00231000Y00120000D03*
X00238000Y00133000D03*
X00239000Y00319000D03*
X00241000Y00375000D03*
X00256000Y00083000D03*
X00267000Y00083000D03*
X00267000Y00092000D03*
X00256000Y00092000D03*
X00263000Y00270000D03*
X00262000Y00319000D03*
X00263000Y00375000D03*
X00277000Y00083000D03*
X00277000Y00092000D03*
X00300000Y00117000D03*
X00285000Y00319000D03*
X00286000Y00375000D03*
X00321000Y00078000D03*
X00308000Y00319000D03*
X00308000Y00375000D03*
X00328000Y00375000D03*
X00331000Y00105000D03*
X00330000Y00142000D03*
X00334500Y00163500D03*
X00331000Y00319000D03*
X00348000Y00375000D03*
X00356000Y00319000D03*
X00374000Y00319000D03*
X00374000Y00335000D03*
X00374000Y00351000D03*
G54D31*
G01X00029958Y00231500D02*
X00040500Y00231500D01*
G01X00026500Y00242998D02*
X00026500Y00250000D01*
G01X00026500Y00250000D02*
X00026500Y00257002D01*
G01X00015958Y00250000D02*
X00026500Y00250000D01*
G01X00026500Y00250000D02*
X00037042Y00250000D01*
G01X00042791Y00038006D02*
X00042791Y00043433D01*
G01X00042791Y00043433D02*
X00042791Y00048860D01*
G01X00037364Y00043433D02*
X00042791Y00043433D01*
G01X00042791Y00043433D02*
X00048218Y00043433D01*
G01X00039000Y00098148D02*
X00039000Y00102000D01*
G01X00039000Y00102000D02*
X00039000Y00105852D01*
G01X00039000Y00102000D02*
X00042852Y00102000D01*
G01X00039000Y00168148D02*
X00039000Y00172000D01*
G01X00039000Y00172000D02*
X00039000Y00175852D01*
G01X00035148Y00172000D02*
X00039000Y00172000D01*
G01X00039000Y00172000D02*
X00042852Y00172000D01*
G01X00040500Y00224498D02*
X00040500Y00231500D01*
G01X00040500Y00231500D02*
X00040500Y00238502D01*
G01X00040500Y00231500D02*
X00051042Y00231500D01*
G01X00043433Y00276364D02*
X00043433Y00281791D01*
G01X00043433Y00281791D02*
X00043433Y00287218D01*
G01X00038006Y00281791D02*
X00043433Y00281791D01*
G01X00043433Y00281791D02*
X00048860Y00281791D01*
G01X00043433Y00337782D02*
X00043433Y00343209D01*
G01X00043433Y00343209D02*
X00043433Y00348636D01*
G01X00038006Y00343209D02*
X00043433Y00343209D01*
G01X00043433Y00343209D02*
X00048860Y00343209D01*
G01X00084000Y00212050D02*
X00084000Y00216000D01*
G01X00084000Y00216000D02*
X00084000Y00219950D01*
G01X00080050Y00216000D02*
X00084000Y00216000D01*
G01X00084000Y00216000D02*
X00087950Y00216000D01*
G01X00104209Y00038006D02*
X00104209Y00043433D01*
G01X00104209Y00043433D02*
X00104209Y00048860D01*
G01X00098782Y00043433D02*
X00104209Y00043433D01*
G01X00104209Y00043433D02*
X00109636Y00043433D01*
G01X00120791Y00038006D02*
X00120791Y00043433D01*
G01X00120791Y00043433D02*
X00120791Y00048860D01*
G01X00115364Y00043433D02*
X00120791Y00043433D01*
G01X00120791Y00043433D02*
X00126218Y00043433D01*
G01X00182209Y00038006D02*
X00182209Y00043433D01*
G01X00182209Y00043433D02*
X00182209Y00048860D01*
G01X00176782Y00043433D02*
X00182209Y00043433D01*
G01X00182209Y00043433D02*
X00187636Y00043433D01*
G01X00191364Y00043433D02*
X00196791Y00043433D01*
G01X00196791Y00038006D02*
X00196791Y00043433D01*
G01X00196791Y00043433D02*
X00196791Y00048860D01*
G01X00196791Y00043433D02*
X00202218Y00043433D01*
G01X00240791Y00144567D02*
X00240791Y00149994D01*
G01X00235364Y00144567D02*
X00240791Y00144567D01*
G01X00240791Y00144567D02*
X00246218Y00144567D01*
G01X00258209Y00038006D02*
X00258209Y00043433D01*
G01X00258209Y00043433D02*
X00258209Y00048860D01*
G01X00252782Y00043433D02*
X00258209Y00043433D01*
G01X00258209Y00043433D02*
X00263636Y00043433D01*
G01X00268364Y00043433D02*
X00273791Y00043433D01*
G01X00273791Y00038006D02*
X00273791Y00043433D01*
G01X00273791Y00043433D02*
X00273791Y00048860D01*
G01X00273791Y00043433D02*
X00279218Y00043433D01*
G01X00296782Y00144567D02*
X00302209Y00144567D01*
G01X00302209Y00139140D02*
X00302209Y00144567D01*
G01X00302209Y00144567D02*
X00302209Y00149994D01*
G01X00302209Y00144567D02*
X00307636Y00144567D01*
G01X00335209Y00038006D02*
X00335209Y00043433D01*
G01X00335209Y00043433D02*
X00335209Y00048860D01*
G01X00329782Y00043433D02*
X00335209Y00043433D01*
G01X00335209Y00043433D02*
X00340636Y00043433D01*
G01X00340567Y00083364D02*
X00340567Y00088791D01*
G01X00340567Y00088791D02*
X00340567Y00094218D01*
G01X00335140Y00088791D02*
X00340567Y00088791D01*
G01X00340567Y00088791D02*
X00345994Y00088791D01*
G01X00340567Y00144782D02*
X00340567Y00150209D01*
G01X00340567Y00150209D02*
X00340567Y00155636D01*
G01X00335140Y00150209D02*
X00340567Y00150209D01*
G01X00340567Y00150209D02*
X00345994Y00150209D01*
G54D13*
X00040500Y00231500D03*
X00026500Y00250000D03*
X00055000Y00250000D03*
G54D22*
X00189000Y00245000D03*
X00189000Y00255000D03*
X00189000Y00295000D03*
X00219000Y00255000D03*
X00219000Y00295000D03*
X00243000Y00245000D03*
X00243000Y00255000D03*
X00243000Y00295000D03*
X00273000Y00255000D03*
X00273000Y00295000D03*
X00296000Y00245000D03*
X00296000Y00255000D03*
X00296000Y00295000D03*
X00326000Y00255000D03*
X00326000Y00295000D03*
G54D23*
X00214000Y00214000D03*
X00268000Y00214000D03*
X00322000Y00214000D03*
X00358000Y00285000D03*
G54D14*
X00042791Y00043433D03*
X00043433Y00281791D03*
X00043433Y00343209D03*
X00104209Y00043433D03*
X00120791Y00043433D03*
X00196791Y00043433D03*
X00182209Y00043433D03*
X00240791Y00144567D03*
X00273791Y00043433D03*
X00258209Y00043433D03*
X00302209Y00144567D03*
X00335209Y00043433D03*
X00340567Y00088791D03*
X00340567Y00150209D03*
G54D24*
X00219000Y00245000D03*
X00273000Y00245000D03*
X00326000Y00245000D03*
G54D15*
X00056000Y00058000D03*
X00058000Y00330000D03*
X00134000Y00058000D03*
X00210000Y00058000D03*
X00287000Y00058000D03*
X00289000Y00130000D03*
X00326000Y00102000D03*
G54D25*
X00229000Y00102000D03*
X00229000Y00172000D03*
G54D16*
X00061000Y00068000D03*
X00058000Y00300000D03*
X00058000Y00310000D03*
X00058000Y00320000D03*
X00086000Y00058000D03*
X00076000Y00058000D03*
X00066000Y00058000D03*
X00081000Y00068000D03*
X00071000Y00068000D03*
X00068000Y00295000D03*
X00068000Y00305000D03*
X00068000Y00315000D03*
X00068000Y00325000D03*
X00091000Y00068000D03*
X00139000Y00068000D03*
X00164000Y00058000D03*
X00154000Y00058000D03*
X00144000Y00058000D03*
X00169000Y00068000D03*
X00159000Y00068000D03*
X00149000Y00068000D03*
X00220000Y00058000D03*
X00215000Y00068000D03*
X00240000Y00058000D03*
X00230000Y00058000D03*
X00245000Y00068000D03*
X00235000Y00068000D03*
X00225000Y00068000D03*
X00254000Y00120000D03*
X00259000Y00130000D03*
X00264000Y00120000D03*
X00269000Y00130000D03*
X00274000Y00120000D03*
X00297000Y00058000D03*
X00302000Y00068000D03*
X00292000Y00068000D03*
X00279000Y00130000D03*
X00284000Y00120000D03*
X00317000Y00058000D03*
X00307000Y00058000D03*
X00322000Y00068000D03*
X00312000Y00068000D03*
X00326000Y00112000D03*
X00316000Y00107000D03*
X00316000Y00137000D03*
X00326000Y00132000D03*
X00316000Y00127000D03*
X00326000Y00122000D03*
X00316000Y00117000D03*
G54D26*
G01X00034000Y00084000D02*
X00034000Y00116000D01*
X00043000Y00125000D01*
X00059500Y00125000D01*
X00064500Y00120000D01*
G01X00054500Y00120000D02*
X00054500Y00116800D01*
X00054050Y00116350D01*
X00054050Y00091394D01*
X00076444Y00069000D01*
X00076444Y00066112D01*
X00081546Y00061010D01*
X00082990Y00061010D01*
X00086000Y00058000D01*
G01X00091000Y00068000D02*
X00063950Y00095050D01*
X00063950Y00110050D01*
X00061000Y00113000D01*
G01X00229000Y00102000D02*
X00215000Y00116000D01*
X00079000Y00116000D01*
X00064000Y00131000D01*
X00058050Y00131000D01*
X00054000Y00135050D01*
X00054000Y00140000D01*
G01X00099500Y00140000D02*
X00054000Y00140000D01*
G01X00069000Y00137000D02*
X00061500Y00137000D01*
X00060250Y00135750D01*
G01X00064500Y00152500D02*
X00064500Y00156500D01*
X00049000Y00172000D01*
G01X00154000Y00058000D02*
X00149000Y00053000D01*
X00081000Y00053000D01*
X00076000Y00058000D01*
G01X00164000Y00058000D02*
X00158556Y00063444D01*
X00099404Y00063444D01*
X00096604Y00060644D01*
X00088644Y00060644D01*
X00086000Y00058000D01*
G01X00061000Y00078000D02*
X00061000Y00068000D01*
G01X00159000Y00068000D02*
X00154444Y00072556D01*
X00102000Y00072556D01*
X00092888Y00063444D01*
X00085556Y00063444D01*
X00081000Y00068000D01*
G01X00105000Y00137000D02*
X00069000Y00137000D01*
G01X00087421Y00307000D02*
X00076000Y00307000D01*
X00068000Y00315000D01*
G01X00169000Y00068000D02*
X00169000Y00072256D01*
X00165455Y00075801D01*
X00098801Y00075801D01*
X00091000Y00068000D01*
G01X00102000Y00084000D02*
X00131000Y00084000D01*
X00149000Y00102000D01*
G01X00144000Y00140000D02*
X00099500Y00140000D01*
G01X00114500Y00137000D02*
X00105000Y00137000D01*
G01X00104370Y00336370D02*
X00119630Y00336370D01*
X00122000Y00334000D01*
G01X00149000Y00137000D02*
X00114500Y00137000D01*
G01X00230000Y00058000D02*
X00225444Y00053444D01*
X00158556Y00053444D01*
X00154000Y00058000D01*
G01X00240000Y00058000D02*
X00235000Y00063000D01*
X00179000Y00063000D01*
X00174000Y00058000D01*
X00164000Y00058000D01*
G01X00235000Y00068000D02*
X00229000Y00074000D01*
X00182000Y00074000D01*
X00171444Y00063444D01*
X00163556Y00063444D01*
X00159000Y00068000D01*
G01X00169000Y00084000D02*
X00169000Y00092000D01*
X00159000Y00102000D01*
G01X00187500Y00140000D02*
X00144000Y00140000D01*
G01X00159500Y00137000D02*
X00149000Y00137000D01*
G01X00192000Y00137000D02*
X00159500Y00137000D01*
G01X00245000Y00068000D02*
X00236199Y00076801D01*
X00177801Y00076801D01*
X00169000Y00068000D01*
G01X00236000Y00084000D02*
X00187000Y00084000D01*
X00169000Y00102000D01*
G01X00187500Y00132000D02*
X00194500Y00125000D01*
X00274000Y00125000D01*
X00279000Y00130000D01*
G01X00187500Y00140000D02*
X00211000Y00140000D01*
X00241000Y00170000D01*
X00304000Y00170000D01*
X00312410Y00161590D01*
X00332590Y00161590D01*
X00334500Y00163500D01*
G01X00202500Y00137000D02*
X00192000Y00137000D01*
G01X00330000Y00142000D02*
X00312000Y00142000D01*
X00305189Y00135189D01*
X00299811Y00135189D01*
X00296000Y00139000D01*
X00244452Y00139000D01*
X00242452Y00137000D01*
X00202500Y00137000D01*
G01X00307000Y00058000D02*
X00302444Y00053444D01*
X00234556Y00053444D01*
X00230000Y00058000D01*
G01X00317000Y00058000D02*
X00312000Y00063000D01*
X00276000Y00063000D01*
X00271000Y00058000D01*
X00240000Y00058000D01*
G01X00312000Y00068000D02*
X00306000Y00074000D01*
X00258000Y00074000D01*
X00247800Y00063800D01*
X00247244Y00063800D01*
X00246888Y00063444D01*
X00239556Y00063444D01*
X00235000Y00068000D01*
G01X00322000Y00068000D02*
X00312000Y00078000D01*
X00255000Y00078000D01*
X00245000Y00068000D01*
G01X00238000Y00133000D02*
X00244000Y00133000D01*
X00247000Y00136000D01*
X00267256Y00136000D01*
X00269000Y00134256D01*
G01X00274000Y00120000D02*
X00281000Y00113000D01*
X00296000Y00113000D01*
X00300000Y00117000D01*
G01X00269000Y00130000D02*
X00269000Y00134256D01*
G01X00269000Y00134256D02*
X00270944Y00136200D01*
X00293800Y00136200D01*
X00308000Y00122000D01*
X00326000Y00122000D01*
G01X00284000Y00120000D02*
X00287010Y00123010D01*
X00299990Y00123010D01*
X00316000Y00107000D01*
G01X00326000Y00122000D02*
X00336000Y00112000D01*
X00336000Y00103000D01*
X00321000Y00088000D01*
X00321000Y00078000D01*
G01X00316000Y00127000D02*
X00346000Y00127000D01*
X00366000Y00107000D01*
X00366000Y00093000D01*
X00336000Y00063000D01*
X00319000Y00063000D01*
X00314000Y00068000D01*
X00312000Y00068000D01*
G01X00331000Y00105000D02*
X00330556Y00105444D01*
X00330556Y00105502D01*
X00329058Y00107000D01*
X00323000Y00107000D01*
X00316000Y00114000D01*
X00316000Y00117000D01*
G54D17*
X00039000Y00102000D03*
X00049000Y00102000D03*
X00059000Y00102000D03*
X00039000Y00172000D03*
X00049000Y00172000D03*
X00059000Y00172000D03*
X00069000Y00102000D03*
X00079000Y00102000D03*
X00089000Y00102000D03*
X00069000Y00172000D03*
X00079000Y00172000D03*
X00089000Y00172000D03*
X00099000Y00102000D03*
X00109000Y00102000D03*
X00099000Y00172000D03*
X00109000Y00172000D03*
X00119000Y00102000D03*
X00129000Y00102000D03*
X00139000Y00102000D03*
X00119000Y00172000D03*
X00129000Y00172000D03*
X00139000Y00172000D03*
X00149000Y00102000D03*
X00159000Y00102000D03*
X00169000Y00102000D03*
X00149000Y00172000D03*
X00159000Y00172000D03*
X00169000Y00172000D03*
X00179000Y00102000D03*
X00189000Y00102000D03*
X00179000Y00172000D03*
X00189000Y00172000D03*
X00199000Y00102000D03*
X00209000Y00102000D03*
X00219000Y00102000D03*
X00199000Y00172000D03*
X00209000Y00172000D03*
X00219000Y00172000D03*
G54D27*
G01X00055000Y00250000D02*
X00114040Y00250000D01*
X00134969Y00229071D01*
X00149071Y00229071D01*
G01X00149000Y00261071D02*
X00149000Y00232842D01*
X00149071Y00232771D01*
X00149071Y00229071D01*
G01X00149000Y00261071D02*
X00155071Y00255000D01*
X00189000Y00255000D01*
G01X00149000Y00292071D02*
X00149000Y00261071D01*
G01X00225000Y00355000D02*
X00225000Y00346789D01*
X00218211Y00340000D01*
X00192000Y00340000D01*
X00167000Y00315000D01*
X00167000Y00285999D01*
X00183999Y00269000D01*
X00197000Y00269000D01*
X00211000Y00255000D01*
X00219000Y00255000D01*
G01X00273000Y00355000D02*
X00273000Y00349252D01*
X00248748Y00325000D01*
X00189000Y00325000D01*
X00173000Y00309000D01*
X00173000Y00287000D01*
X00185000Y00275000D01*
X00241000Y00275000D01*
X00261000Y00255000D01*
X00273000Y00255000D01*
G01X00213000Y00266000D02*
X00232000Y00266000D01*
X00243000Y00255000D01*
G01X00263000Y00270000D02*
X00281000Y00270000D01*
X00296000Y00255000D01*
G54D18*
X00084000Y00216000D03*
X00177000Y00355000D03*
X00225000Y00355000D03*
X00273000Y00355000D03*
X00321000Y00355000D03*
G54D28*
G01X00122000Y00334000D02*
X00122000Y00314000D01*
X00097000Y00289000D01*
X00084000Y00289000D01*
X00055000Y00260000D01*
X00055000Y00250000D01*
G01X00122000Y00334000D02*
X00156000Y00368000D01*
X00263000Y00368000D01*
G01X00263000Y00355000D02*
X00263000Y00368000D01*
G01X00263000Y00368000D02*
X00298000Y00368000D01*
X00311000Y00355000D01*
G54D19*
X00094000Y00216000D03*
X00167000Y00355000D03*
X00215000Y00355000D03*
X00263000Y00355000D03*
X00311000Y00355000D03*
G54D29*
G01X00219000Y00245000D02*
X00219000Y00228815D01*
X00214000Y00223815D01*
X00214000Y00214000D01*
G01X00273000Y00245000D02*
X00273000Y00228815D01*
X00268000Y00223815D01*
X00268000Y00214000D01*
G01X00326000Y00245000D02*
X00326000Y00227815D01*
X00322000Y00223815D01*
X00322000Y00214000D01*
M02*
