G04 ================== begin FILE IDENTIFICATION RECORD ==================*
G04 Layout Name:  C:/SPB_Data/HARDWARE/board/VitaBoard.brd*
G04 Film Name:    SILKSCREEN_TOP*
G04 File Format:  Gerber RS274X*
G04 File Origin:  Cadence Allegro 16.6-S044*
G04 Origin Date:  Wed Mar 18 15:44:55 2015*
G04 *
G04 Layer:  REF DES/SILKSCREEN_TOP*
G04 Layer:  PACKAGE GEOMETRY/SILKSCREEN_TOP*
G04 Layer:  BOARD GEOMETRY/SILKSCREEN_TOP*
G04 *
G04 Offset:    (0.00 0.00)*
G04 Mirror:    No*
G04 Mode:      Positive*
G04 Rotation:  0*
G04 FullContactRelief:  No*
G04 UndefLineWidth:     6.00*
G04 ================== end FILE IDENTIFICATION RECORD ====================*
%FSAX35Y35*MOIN*%
%IR0*IPPOS*OFA0.00000B0.00000*MIA0B0*SFA1.00000B1.00000*%
%ADD10C,.01969*%
%ADD11C,.002*%
%ADD12C,.006*%
%ADD13C,.00984*%
%ADD14C,.00787*%
G75*
%LPD*%
G75*
G36*
G01X00010000Y00268000D02*
X00000500Y00268000D01*
X00000500Y00232000D01*
X00010000Y00232000D01*
X00010000Y00268000D01*
G37*
G54D10*
G01X00057276Y00133638D02*
G03X00057276Y00133638I-00000985J0D01*
G01X00102276Y00133638D02*
G03X00102276Y00133638I-00000985J0D01*
G01X00098692Y00305362D02*
G03X00098692Y00305362I-00000983J0D01*
G01X00098692Y00349362D02*
G03X00098692Y00349362I-00000983J0D01*
G01X00128622Y00219709D02*
G03X00128622Y00219709I-00000984J0D01*
G01X00128622Y00242709D02*
G03X00128622Y00242709I-00000984J0D01*
G01X00128622Y00265709D02*
G03X00128622Y00265709I-00000984J0D01*
G01X00128622Y00288709D02*
G03X00128622Y00288709I-00000984J0D01*
G01X00147276Y00134638D02*
G03X00147276Y00134638I-00000985J0D01*
G01X00190276Y00134638D02*
G03X00190276Y00134638I-00000985J0D01*
G54D11*
G01X00186000Y00326600D02*
X00189200Y00326600D01*
G01X00186000Y00326400D02*
X00189200Y00326400D01*
G01X00186000Y00326200D02*
X00189200Y00326200D01*
G01X00186000Y00326000D02*
X00189200Y00326000D01*
G01X00186000Y00325800D02*
X00189200Y00325800D01*
G01X00186000Y00325600D02*
X00189200Y00325600D01*
G01X00186000Y00325400D02*
X00189200Y00325400D01*
G01X00186000Y00325200D02*
X00189200Y00325200D01*
G01X00186000Y00325000D02*
X00189200Y00325000D01*
G01X00186000Y00324800D02*
X00189200Y00324800D01*
G01X00186000Y00324600D02*
X00189200Y00324600D01*
G01X00186000Y00324400D02*
X00189200Y00324400D01*
G01X00186000Y00324200D02*
X00189200Y00324200D01*
G01X00186000Y00324000D02*
X00189200Y00324000D01*
G01X00186000Y00323800D02*
X00189200Y00323800D01*
G01X00186000Y00323600D02*
X00189200Y00323600D01*
G01X00186000Y00323400D02*
X00189200Y00323400D01*
G01X00186000Y00323200D02*
X00189200Y00323200D01*
G01X00186000Y00323000D02*
X00189200Y00323000D01*
G01X00186000Y00322800D02*
X00189200Y00322800D01*
G01X00186000Y00322600D02*
X00189200Y00322600D01*
G01X00186000Y00322400D02*
X00189200Y00322400D01*
G01X00186000Y00322200D02*
X00189200Y00322200D01*
G01X00186000Y00322000D02*
X00189200Y00322000D01*
G01X00186000Y00321800D02*
X00189200Y00321800D01*
G01X00186000Y00321600D02*
X00189200Y00321600D01*
G01X00186000Y00321400D02*
X00189200Y00321400D01*
G01X00186000Y00321200D02*
X00189200Y00321200D01*
G01X00186000Y00321000D02*
X00189200Y00321000D01*
G01X00186000Y00320800D02*
X00189200Y00320800D01*
G01X00186000Y00320600D02*
X00189200Y00320600D01*
G01X00186000Y00320400D02*
X00189200Y00320400D01*
G01X00186000Y00320200D02*
X00189200Y00320200D01*
G01X00186000Y00320000D02*
X00189200Y00320000D01*
G01X00186000Y00319800D02*
X00189200Y00319800D01*
G01X00186000Y00319600D02*
X00189200Y00319600D01*
G01X00186000Y00319400D02*
X00189200Y00319400D01*
G01X00186000Y00319200D02*
X00189200Y00319200D01*
G01X00186000Y00319000D02*
X00189200Y00319000D01*
G01X00186000Y00318800D02*
X00189200Y00318800D01*
G01X00186000Y00318600D02*
X00189200Y00318600D01*
G01X00186000Y00318400D02*
X00189200Y00318400D01*
G01X00186000Y00318200D02*
X00189200Y00318200D01*
G01X00186000Y00318000D02*
X00189200Y00318000D01*
G01X00186000Y00317800D02*
X00189200Y00317800D01*
G01X00186000Y00317600D02*
X00189200Y00317600D01*
G01X00186000Y00317400D02*
X00189200Y00317400D01*
G01X00186000Y00317200D02*
X00189200Y00317200D01*
G01X00186000Y00317000D02*
X00189200Y00317000D01*
G01X00186000Y00316800D02*
X00189200Y00316800D01*
G01X00186000Y00316600D02*
X00189200Y00316600D01*
G01X00186000Y00316400D02*
X00189200Y00316400D01*
G01X00186000Y00316200D02*
X00189200Y00316200D01*
G01X00186000Y00316000D02*
X00189200Y00316000D01*
G01X00186000Y00315800D02*
X00189200Y00315800D01*
G01X00186000Y00315600D02*
X00189200Y00315600D01*
G01X00186000Y00315400D02*
X00189200Y00315400D01*
G01X00186000Y00315200D02*
X00189200Y00315200D01*
G01X00186000Y00315000D02*
X00189200Y00315000D01*
G01X00186000Y00314800D02*
X00189200Y00314800D01*
G01X00186000Y00314600D02*
X00189200Y00314600D01*
G01X00186000Y00314400D02*
X00189200Y00314400D01*
G01X00186000Y00314200D02*
X00189200Y00314200D01*
G01X00186000Y00314000D02*
X00189200Y00314000D01*
G01X00186000Y00313800D02*
X00189200Y00313800D01*
G01X00186000Y00313600D02*
X00189200Y00313600D01*
G01X00186000Y00313400D02*
X00189200Y00313400D01*
G01X00186000Y00313200D02*
X00189200Y00313200D01*
G01X00186000Y00313000D02*
X00189200Y00313000D01*
G01X00186000Y00312800D02*
X00189200Y00312800D01*
G01X00186000Y00312600D02*
X00189200Y00312600D01*
G01X00186000Y00312400D02*
X00189200Y00312400D01*
G01X00186000Y00312200D02*
X00189200Y00312200D01*
G01X00186000Y00312000D02*
X00189200Y00312000D01*
G01X00186000Y00311800D02*
X00189200Y00311800D01*
G01X00186000Y00311600D02*
X00189200Y00311600D01*
G01X00186000Y00311400D02*
X00189200Y00311400D01*
G01X00186000Y00311200D02*
X00189200Y00311200D01*
G01X00186000Y00311000D02*
X00189200Y00311000D01*
G01X00186000Y00310800D02*
X00189200Y00310800D01*
G01X00186000Y00310600D02*
X00189200Y00310600D01*
G01X00186000Y00310400D02*
X00189200Y00310400D01*
G01X00186000Y00310200D02*
X00189200Y00310200D01*
G01X00186000Y00310000D02*
X00189200Y00310000D01*
G01X00186000Y00309800D02*
X00189200Y00309800D01*
G01X00186000Y00309600D02*
X00189200Y00309600D01*
G01X00186000Y00309400D02*
X00189200Y00309400D01*
G01X00186000Y00309200D02*
X00189200Y00309200D01*
G01X00186000Y00309000D02*
X00189200Y00309000D01*
G01X00186000Y00308800D02*
X00189200Y00308800D01*
G01X00186000Y00308600D02*
X00189200Y00308600D01*
G01X00186000Y00308400D02*
X00189200Y00308400D01*
G01X00186000Y00308200D02*
X00189200Y00308200D01*
G01X00186000Y00308000D02*
X00225200Y00308000D01*
G01X00186000Y00307800D02*
X00225200Y00307800D01*
G01X00186000Y00307600D02*
X00225200Y00307600D01*
G01X00186000Y00307400D02*
X00225200Y00307400D01*
G01X00186000Y00307200D02*
X00225200Y00307200D01*
G01X00186000Y00307000D02*
X00225200Y00307000D01*
G01X00186000Y00306800D02*
X00225200Y00306800D01*
G01X00186000Y00306600D02*
X00225200Y00306600D01*
G01X00186000Y00306400D02*
X00225200Y00306400D01*
G01X00186000Y00306200D02*
X00225200Y00306200D01*
G01X00186000Y00306000D02*
X00225200Y00306000D01*
G01X00186000Y00305800D02*
X00225200Y00305800D01*
G01X00186000Y00305600D02*
X00225200Y00305600D01*
G01X00186000Y00305400D02*
X00225200Y00305400D01*
G01X00186000Y00305200D02*
X00225200Y00305200D01*
G01X00186000Y00305000D02*
X00225200Y00305000D01*
G01X00186000Y00340800D02*
X00225200Y00340800D01*
G01X00186000Y00340600D02*
X00225200Y00340600D01*
G01X00186000Y00340400D02*
X00225200Y00340400D01*
G01X00186000Y00340200D02*
X00225200Y00340200D01*
G01X00186000Y00340000D02*
X00225200Y00340000D01*
G01X00186000Y00339800D02*
X00225200Y00339800D01*
G01X00186000Y00339600D02*
X00225200Y00339600D01*
G01X00186000Y00339400D02*
X00225200Y00339400D01*
G01X00186000Y00339200D02*
X00225200Y00339200D01*
G01X00186000Y00339000D02*
X00225200Y00339000D01*
G01X00186000Y00338800D02*
X00225200Y00338800D01*
G01X00186000Y00338600D02*
X00225200Y00338600D01*
G01X00186000Y00338400D02*
X00225200Y00338400D01*
G01X00186000Y00338200D02*
X00225200Y00338200D01*
G01X00186000Y00338000D02*
X00225200Y00338000D01*
G01X00186000Y00337800D02*
X00225200Y00337800D01*
G01X00186000Y00337600D02*
X00189200Y00337600D01*
G01X00186000Y00337400D02*
X00189200Y00337400D01*
G01X00186000Y00337200D02*
X00189200Y00337200D01*
G01X00186000Y00337000D02*
X00189200Y00337000D01*
G01X00186000Y00336800D02*
X00189200Y00336800D01*
G01X00186000Y00336600D02*
X00189200Y00336600D01*
G01X00186000Y00336400D02*
X00189200Y00336400D01*
G01X00186000Y00336200D02*
X00189200Y00336200D01*
G01X00186000Y00336000D02*
X00189200Y00336000D01*
G01X00186000Y00335800D02*
X00189200Y00335800D01*
G01X00186000Y00335600D02*
X00189200Y00335600D01*
G01X00186000Y00335400D02*
X00189200Y00335400D01*
G01X00186000Y00335200D02*
X00189200Y00335200D01*
G01X00186000Y00335000D02*
X00189200Y00335000D01*
G01X00186000Y00334800D02*
X00189200Y00334800D01*
G01X00186000Y00334600D02*
X00189200Y00334600D01*
G01X00186000Y00334400D02*
X00189200Y00334400D01*
G01X00186000Y00334200D02*
X00189200Y00334200D01*
G01X00186000Y00334000D02*
X00189200Y00334000D01*
G01X00186000Y00333800D02*
X00189200Y00333800D01*
G01X00186000Y00333600D02*
X00189200Y00333600D01*
G01X00186000Y00333400D02*
X00189200Y00333400D01*
G01X00186000Y00333200D02*
X00189200Y00333200D01*
G01X00186000Y00333000D02*
X00189200Y00333000D01*
G01X00186000Y00332800D02*
X00189200Y00332800D01*
G01X00186000Y00332600D02*
X00189200Y00332600D01*
G01X00186000Y00332400D02*
X00189200Y00332400D01*
G01X00186000Y00332200D02*
X00189200Y00332200D01*
G01X00186000Y00332000D02*
X00189200Y00332000D01*
G01X00186000Y00331800D02*
X00189200Y00331800D01*
G01X00186000Y00331600D02*
X00189200Y00331600D01*
G01X00186000Y00331400D02*
X00189200Y00331400D01*
G01X00186000Y00331200D02*
X00189200Y00331200D01*
G01X00186000Y00331000D02*
X00189200Y00331000D01*
G01X00186000Y00330800D02*
X00189200Y00330800D01*
G01X00186000Y00330600D02*
X00189200Y00330600D01*
G01X00186000Y00330400D02*
X00189200Y00330400D01*
G01X00186000Y00330200D02*
X00189200Y00330200D01*
G01X00186000Y00330000D02*
X00189200Y00330000D01*
G01X00186000Y00329800D02*
X00189200Y00329800D01*
G01X00186000Y00329600D02*
X00189200Y00329600D01*
G01X00186000Y00329400D02*
X00189200Y00329400D01*
G01X00186000Y00329200D02*
X00189200Y00329200D01*
G01X00186000Y00329000D02*
X00189200Y00329000D01*
G01X00186000Y00328800D02*
X00189200Y00328800D01*
G01X00186000Y00328600D02*
X00189200Y00328600D01*
G01X00186000Y00328400D02*
X00189200Y00328400D01*
G01X00186000Y00328200D02*
X00189200Y00328200D01*
G01X00186000Y00328000D02*
X00189200Y00328000D01*
G01X00186000Y00327800D02*
X00189200Y00327800D01*
G01X00186000Y00327600D02*
X00189200Y00327600D01*
G01X00186000Y00327400D02*
X00189200Y00327400D01*
G01X00186000Y00327200D02*
X00189200Y00327200D01*
G01X00186000Y00327000D02*
X00189200Y00327000D01*
G01X00186000Y00326800D02*
X00189200Y00326800D01*
G01X00199400Y00326600D02*
X00203600Y00326600D01*
G01X00209000Y00326600D02*
X00216200Y00326600D01*
G01X00199800Y00326400D02*
X00203600Y00326400D01*
G01X00208600Y00326400D02*
X00216200Y00326400D01*
G01X00200200Y00326200D02*
X00203800Y00326200D01*
G01X00208400Y00326200D02*
X00216200Y00326200D01*
G01X00200400Y00326000D02*
X00203800Y00326000D01*
G01X00208200Y00326000D02*
X00216200Y00326000D01*
G01X00200800Y00325800D02*
X00203800Y00325800D01*
G01X00208000Y00325800D02*
X00211200Y00325800D01*
G01X00211400Y00325800D02*
X00216200Y00325800D01*
G01X00201200Y00325600D02*
X00203800Y00325600D01*
G01X00207800Y00325600D02*
X00210800Y00325600D01*
G01X00211200Y00325600D02*
X00216200Y00325600D01*
G01X00201600Y00325400D02*
X00203800Y00325400D01*
G01X00207600Y00325400D02*
X00210600Y00325400D01*
G01X00210800Y00325400D02*
X00216200Y00325400D01*
G01X00201800Y00325200D02*
X00203800Y00325200D01*
G01X00207400Y00325200D02*
X00210200Y00325200D01*
G01X00210600Y00325200D02*
X00216000Y00325200D01*
G01X00202200Y00325000D02*
X00203800Y00325000D01*
G01X00207400Y00325000D02*
X00210000Y00325000D01*
G01X00210400Y00325000D02*
X00216000Y00325000D01*
G01X00202400Y00324800D02*
X00203800Y00324800D01*
G01X00207200Y00324800D02*
X00209600Y00324800D01*
G01X00210200Y00324800D02*
X00216000Y00324800D01*
G01X00202800Y00324600D02*
X00203800Y00324600D01*
G01X00207000Y00324600D02*
X00209400Y00324600D01*
G01X00210000Y00324600D02*
X00216000Y00324600D01*
G01X00203000Y00324400D02*
X00203800Y00324400D01*
G01X00206800Y00324400D02*
X00209200Y00324400D01*
G01X00209800Y00324400D02*
X00216000Y00324400D01*
G01X00203000Y00324200D02*
X00203800Y00324200D01*
G01X00206800Y00324200D02*
X00209000Y00324200D01*
G01X00209600Y00324200D02*
X00216000Y00324200D01*
G01X00203000Y00324000D02*
X00203800Y00324000D01*
G01X00206600Y00324000D02*
X00208600Y00324000D01*
G01X00209400Y00324000D02*
X00215800Y00324000D01*
G01X00203000Y00323800D02*
X00203800Y00323800D01*
G01X00206400Y00323800D02*
X00208400Y00323800D01*
G01X00209200Y00323800D02*
X00215800Y00323800D01*
G01X00203000Y00323600D02*
X00203800Y00323600D01*
G01X00206400Y00323600D02*
X00208200Y00323600D01*
G01X00209000Y00323600D02*
X00215800Y00323600D01*
G01X00203000Y00323400D02*
X00203800Y00323400D01*
G01X00206200Y00323400D02*
X00208200Y00323400D01*
G01X00208800Y00323400D02*
X00215800Y00323400D01*
G01X00203000Y00323200D02*
X00203800Y00323200D01*
G01X00206000Y00323200D02*
X00208000Y00323200D01*
G01X00208600Y00323200D02*
X00215800Y00323200D01*
G01X00203000Y00323000D02*
X00203800Y00323000D01*
G01X00206000Y00323000D02*
X00207800Y00323000D01*
G01X00208600Y00323000D02*
X00215600Y00323000D01*
G01X00203000Y00322800D02*
X00203800Y00322800D01*
G01X00205800Y00322800D02*
X00207600Y00322800D01*
G01X00208400Y00322800D02*
X00215600Y00322800D01*
G01X00203000Y00322600D02*
X00203800Y00322600D01*
G01X00205800Y00322600D02*
X00207400Y00322600D01*
G01X00208200Y00322600D02*
X00215600Y00322600D01*
G01X00203000Y00322400D02*
X00203800Y00322400D01*
G01X00205800Y00322400D02*
X00207200Y00322400D01*
G01X00208000Y00322400D02*
X00215400Y00322400D01*
G01X00203000Y00322200D02*
X00203800Y00322200D01*
G01X00205600Y00322200D02*
X00207200Y00322200D01*
G01X00208000Y00322200D02*
X00215400Y00322200D01*
G01X00203000Y00322000D02*
X00203800Y00322000D01*
G01X00205600Y00322000D02*
X00207000Y00322000D01*
G01X00207800Y00322000D02*
X00215200Y00322000D01*
G01X00203000Y00321800D02*
X00203800Y00321800D01*
G01X00205400Y00321800D02*
X00206800Y00321800D01*
G01X00207600Y00321800D02*
X00215200Y00321800D01*
G01X00203000Y00321600D02*
X00203800Y00321600D01*
G01X00205400Y00321600D02*
X00206800Y00321600D01*
G01X00207600Y00321600D02*
X00215200Y00321600D01*
G01X00203000Y00321400D02*
X00203800Y00321400D01*
G01X00205400Y00321400D02*
X00206600Y00321400D01*
G01X00207400Y00321400D02*
X00215000Y00321400D01*
G01X00203000Y00321200D02*
X00203800Y00321200D01*
G01X00205200Y00321200D02*
X00206400Y00321200D01*
G01X00207200Y00321200D02*
X00215000Y00321200D01*
G01X00203000Y00321000D02*
X00203800Y00321000D01*
G01X00205200Y00321000D02*
X00206400Y00321000D01*
G01X00207200Y00321000D02*
X00214800Y00321000D01*
G01X00203000Y00320800D02*
X00203800Y00320800D01*
G01X00205200Y00320800D02*
X00206200Y00320800D01*
G01X00207000Y00320800D02*
X00214600Y00320800D01*
G01X00203000Y00320600D02*
X00203800Y00320600D01*
G01X00205000Y00320600D02*
X00206200Y00320600D01*
G01X00207000Y00320600D02*
X00214600Y00320600D01*
G01X00203000Y00320400D02*
X00203800Y00320400D01*
G01X00205000Y00320400D02*
X00206000Y00320400D01*
G01X00206800Y00320400D02*
X00214400Y00320400D01*
G01X00203000Y00320200D02*
X00203800Y00320200D01*
G01X00205000Y00320200D02*
X00206000Y00320200D01*
G01X00206800Y00320200D02*
X00214200Y00320200D01*
G01X00203000Y00320000D02*
X00203800Y00320000D01*
G01X00205000Y00320000D02*
X00205800Y00320000D01*
G01X00206600Y00320000D02*
X00214200Y00320000D01*
G01X00203000Y00319800D02*
X00203800Y00319800D01*
G01X00205000Y00319800D02*
X00205800Y00319800D01*
G01X00206600Y00319800D02*
X00214000Y00319800D01*
G01X00203000Y00319600D02*
X00203800Y00319600D01*
G01X00204800Y00319600D02*
X00205600Y00319600D01*
G01X00206400Y00319600D02*
X00213800Y00319600D01*
G01X00203000Y00319400D02*
X00203800Y00319400D01*
G01X00204800Y00319400D02*
X00205600Y00319400D01*
G01X00206400Y00319400D02*
X00213600Y00319400D01*
G01X00203000Y00319200D02*
X00203800Y00319200D01*
G01X00204800Y00319200D02*
X00205400Y00319200D01*
G01X00206200Y00319200D02*
X00213400Y00319200D01*
G01X00203000Y00319000D02*
X00203800Y00319000D01*
G01X00204800Y00319000D02*
X00205400Y00319000D01*
G01X00206200Y00319000D02*
X00213200Y00319000D01*
G01X00203000Y00318800D02*
X00203800Y00318800D01*
G01X00204800Y00318800D02*
X00205200Y00318800D01*
G01X00206200Y00318800D02*
X00213000Y00318800D01*
G01X00203000Y00318600D02*
X00203800Y00318600D01*
G01X00204800Y00318600D02*
X00205200Y00318600D01*
G01X00206000Y00318600D02*
X00212800Y00318600D01*
G01X00203000Y00318400D02*
X00203800Y00318400D01*
G01X00204800Y00318400D02*
X00205000Y00318400D01*
G01X00206000Y00318400D02*
X00212400Y00318400D01*
G01X00203000Y00318200D02*
X00203800Y00318200D01*
G01X00204800Y00318200D02*
X00205000Y00318200D01*
G01X00205800Y00318200D02*
X00212200Y00318200D01*
G01X00203000Y00318000D02*
X00203800Y00318000D01*
G01X00205800Y00318000D02*
X00211800Y00318000D01*
G01X00203000Y00317800D02*
X00203800Y00317800D01*
G01X00205800Y00317800D02*
X00211600Y00317800D01*
G01X00203000Y00317600D02*
X00203800Y00317600D01*
G01X00205600Y00317600D02*
X00211200Y00317600D01*
G01X00203000Y00317400D02*
X00203800Y00317400D01*
G01X00205600Y00317400D02*
X00211000Y00317400D01*
G01X00203000Y00317200D02*
X00203800Y00317200D01*
G01X00205600Y00317200D02*
X00210600Y00317200D01*
G01X00203000Y00317000D02*
X00203800Y00317000D01*
G01X00205600Y00317000D02*
X00210200Y00317000D01*
G01X00203000Y00316800D02*
X00203800Y00316800D01*
G01X00205400Y00316800D02*
X00209800Y00316800D01*
G01X00203000Y00316600D02*
X00203800Y00316600D01*
G01X00205400Y00316600D02*
X00209400Y00316600D01*
G01X00203000Y00316400D02*
X00203800Y00316400D01*
G01X00205400Y00316400D02*
X00209200Y00316400D01*
G01X00203000Y00316200D02*
X00203800Y00316200D01*
G01X00205400Y00316200D02*
X00208800Y00316200D01*
G01X00203000Y00316000D02*
X00203800Y00316000D01*
G01X00205400Y00316000D02*
X00208400Y00316000D01*
G01X00203000Y00315800D02*
X00203800Y00315800D01*
G01X00205400Y00315800D02*
X00208000Y00315800D01*
G01X00203000Y00315600D02*
X00203800Y00315600D01*
G01X00205200Y00315600D02*
X00207800Y00315600D01*
G01X00203000Y00315400D02*
X00203800Y00315400D01*
G01X00205200Y00315400D02*
X00207400Y00315400D01*
G01X00203000Y00315200D02*
X00203800Y00315200D01*
G01X00205200Y00315200D02*
X00207200Y00315200D01*
G01X00203000Y00315000D02*
X00203800Y00315000D01*
G01X00205200Y00315000D02*
X00206800Y00315000D01*
G01X00203000Y00314800D02*
X00203800Y00314800D01*
G01X00205200Y00314800D02*
X00206600Y00314800D01*
G01X00203000Y00314600D02*
X00203800Y00314600D01*
G01X00205200Y00314600D02*
X00206400Y00314600D01*
G01X00203000Y00314400D02*
X00203800Y00314400D01*
G01X00205200Y00314400D02*
X00206400Y00314400D01*
G01X00205200Y00314200D02*
X00206400Y00314200D01*
G01X00205200Y00314000D02*
X00206400Y00314000D01*
G01X00205200Y00313800D02*
X00206400Y00313800D01*
G01X00205200Y00313600D02*
X00206400Y00313600D01*
G01X00205200Y00313400D02*
X00206400Y00313400D01*
G01X00205200Y00313200D02*
X00206400Y00313200D01*
G01X00205200Y00313000D02*
X00206400Y00313000D01*
G01X00205200Y00312800D02*
X00206400Y00312800D01*
G01X00205200Y00312600D02*
X00206400Y00312600D01*
G01X00205200Y00312400D02*
X00206400Y00312400D01*
G01X00205200Y00312200D02*
X00206400Y00312200D01*
G01X00205200Y00312000D02*
X00206400Y00312000D01*
G01X00205200Y00311800D02*
X00206400Y00311800D01*
G01X00205200Y00311600D02*
X00206400Y00311600D01*
G01X00205200Y00311400D02*
X00206400Y00311400D01*
G01X00205200Y00311200D02*
X00206400Y00311200D01*
G01X00205200Y00311000D02*
X00206400Y00311000D01*
G01X00205200Y00310800D02*
X00206400Y00310800D01*
G01X00205200Y00310600D02*
X00206400Y00310600D01*
G01X00205200Y00310400D02*
X00206400Y00310400D01*
G01X00205200Y00310200D02*
X00206400Y00310200D01*
G01X00205200Y00310000D02*
X00206400Y00310000D01*
G01X00205200Y00309800D02*
X00206400Y00309800D01*
G01X00205200Y00309600D02*
X00206400Y00309600D01*
G01X00205200Y00309400D02*
X00206400Y00309400D01*
G01X00195000Y00336200D02*
X00195800Y00336200D01*
G01X00195000Y00336000D02*
X00197200Y00336000D01*
G01X00195000Y00335800D02*
X00198000Y00335800D01*
G01X00194800Y00335600D02*
X00198400Y00335600D01*
G01X00194800Y00335400D02*
X00199000Y00335400D01*
G01X00194800Y00335200D02*
X00199400Y00335200D01*
G01X00194800Y00335000D02*
X00199800Y00335000D01*
G01X00194800Y00334800D02*
X00200000Y00334800D01*
G01X00194800Y00334600D02*
X00200400Y00334600D01*
G01X00194800Y00334400D02*
X00200600Y00334400D01*
G01X00195000Y00334200D02*
X00200800Y00334200D01*
G01X00195000Y00334000D02*
X00201200Y00334000D01*
G01X00195000Y00333800D02*
X00201400Y00333800D01*
G01X00195000Y00333600D02*
X00201600Y00333600D01*
G01X00195000Y00333400D02*
X00201800Y00333400D01*
G01X00195000Y00333200D02*
X00202000Y00333200D01*
G01X00195000Y00333000D02*
X00202200Y00333000D01*
G01X00195000Y00332800D02*
X00202200Y00332800D01*
G01X00195000Y00332600D02*
X00199600Y00332600D01*
G01X00199800Y00332600D02*
X00202400Y00332600D01*
G01X00195000Y00332400D02*
X00199800Y00332400D01*
G01X00200000Y00332400D02*
X00202600Y00332400D01*
G01X00195200Y00332200D02*
X00200000Y00332200D01*
G01X00200400Y00332200D02*
X00202800Y00332200D01*
G01X00195200Y00332000D02*
X00200200Y00332000D01*
G01X00200600Y00332000D02*
X00202800Y00332000D01*
G01X00195200Y00331800D02*
X00200400Y00331800D01*
G01X00200800Y00331800D02*
X00203000Y00331800D01*
G01X00195200Y00331600D02*
X00200600Y00331600D01*
G01X00201000Y00331600D02*
X00203200Y00331600D01*
G01X00195200Y00331400D02*
X00200800Y00331400D01*
G01X00201200Y00331400D02*
X00203200Y00331400D01*
G01X00195400Y00331200D02*
X00201000Y00331200D01*
G01X00201400Y00331200D02*
X00203400Y00331200D01*
G01X00195400Y00331000D02*
X00201000Y00331000D01*
G01X00201600Y00331000D02*
X00203400Y00331000D01*
G01X00195400Y00330800D02*
X00201200Y00330800D01*
G01X00201800Y00330800D02*
X00203600Y00330800D01*
G01X00195600Y00330600D02*
X00201400Y00330600D01*
G01X00202000Y00330600D02*
X00203600Y00330600D01*
G01X00195600Y00330400D02*
X00201600Y00330400D01*
G01X00202200Y00330400D02*
X00203600Y00330400D01*
G01X00195800Y00330200D02*
X00201600Y00330200D01*
G01X00202400Y00330200D02*
X00203800Y00330200D01*
G01X00195800Y00330000D02*
X00201800Y00330000D01*
G01X00202400Y00330000D02*
X00203800Y00330000D01*
G01X00196000Y00329800D02*
X00202000Y00329800D01*
G01X00202600Y00329800D02*
X00204000Y00329800D01*
G01X00196000Y00329600D02*
X00202000Y00329600D01*
G01X00202800Y00329600D02*
X00204000Y00329600D01*
G01X00196200Y00329400D02*
X00202200Y00329400D01*
G01X00202800Y00329400D02*
X00204000Y00329400D01*
G01X00196200Y00329200D02*
X00202400Y00329200D01*
G01X00203000Y00329200D02*
X00204000Y00329200D01*
G01X00196400Y00329000D02*
X00202400Y00329000D01*
G01X00203200Y00329000D02*
X00204200Y00329000D01*
G01X00214400Y00329000D02*
X00216200Y00329000D01*
G01X00196600Y00328800D02*
X00202600Y00328800D01*
G01X00203200Y00328800D02*
X00204200Y00328800D01*
G01X00213400Y00328800D02*
X00216200Y00328800D01*
G01X00196800Y00328600D02*
X00202600Y00328600D01*
G01X00203400Y00328600D02*
X00204200Y00328600D01*
G01X00212600Y00328600D02*
X00216200Y00328600D01*
G01X00197000Y00328400D02*
X00202800Y00328400D01*
G01X00203600Y00328400D02*
X00204200Y00328400D01*
G01X00212000Y00328400D02*
X00216200Y00328400D01*
G01X00197200Y00328200D02*
X00202800Y00328200D01*
G01X00203600Y00328200D02*
X00204200Y00328200D01*
G01X00211600Y00328200D02*
X00216200Y00328200D01*
G01X00197400Y00328000D02*
X00203000Y00328000D01*
G01X00203800Y00328000D02*
X00204200Y00328000D01*
G01X00211200Y00328000D02*
X00216200Y00328000D01*
G01X00197600Y00327800D02*
X00203000Y00327800D01*
G01X00203800Y00327800D02*
X00204200Y00327800D01*
G01X00210800Y00327800D02*
X00216200Y00327800D01*
G01X00197800Y00327600D02*
X00203200Y00327600D01*
G01X00204000Y00327600D02*
X00204200Y00327600D01*
G01X00210400Y00327600D02*
X00216200Y00327600D01*
G01X00198200Y00327400D02*
X00203200Y00327400D01*
G01X00204000Y00327400D02*
X00204400Y00327400D01*
G01X00210000Y00327400D02*
X00216200Y00327400D01*
G01X00198400Y00327200D02*
X00203400Y00327200D01*
G01X00209800Y00327200D02*
X00216200Y00327200D01*
G01X00198800Y00327000D02*
X00203400Y00327000D01*
G01X00209400Y00327000D02*
X00216200Y00327000D01*
G01X00199000Y00326800D02*
X00203600Y00326800D01*
G01X00209200Y00326800D02*
X00216200Y00326800D01*
G01X00222000Y00326600D02*
X00225200Y00326600D01*
G01X00241200Y00326600D02*
X00244800Y00326600D01*
G01X00222000Y00326400D02*
X00225200Y00326400D01*
G01X00241400Y00326400D02*
X00244600Y00326400D01*
G01X00222000Y00326200D02*
X00225200Y00326200D01*
G01X00241400Y00326200D02*
X00244600Y00326200D01*
G01X00222000Y00326000D02*
X00225200Y00326000D01*
G01X00241400Y00326000D02*
X00244600Y00326000D01*
G01X00222000Y00325800D02*
X00225200Y00325800D01*
G01X00241600Y00325800D02*
X00244400Y00325800D01*
G01X00222000Y00325600D02*
X00225200Y00325600D01*
G01X00241600Y00325600D02*
X00244400Y00325600D01*
G01X00222000Y00325400D02*
X00225200Y00325400D01*
G01X00241600Y00325400D02*
X00244400Y00325400D01*
G01X00222000Y00325200D02*
X00225200Y00325200D01*
G01X00241800Y00325200D02*
X00244200Y00325200D01*
G01X00222000Y00325000D02*
X00225200Y00325000D01*
G01X00241800Y00325000D02*
X00244200Y00325000D01*
G01X00222000Y00324800D02*
X00225200Y00324800D01*
G01X00241800Y00324800D02*
X00244200Y00324800D01*
G01X00222000Y00324600D02*
X00225200Y00324600D01*
G01X00242000Y00324600D02*
X00244000Y00324600D01*
G01X00222000Y00324400D02*
X00225200Y00324400D01*
G01X00222000Y00324200D02*
X00225200Y00324200D01*
G01X00222000Y00324000D02*
X00225200Y00324000D01*
G01X00222000Y00323800D02*
X00225200Y00323800D01*
G01X00222000Y00323600D02*
X00225200Y00323600D01*
G01X00222000Y00323400D02*
X00225200Y00323400D01*
G01X00222000Y00323200D02*
X00225200Y00323200D01*
G01X00222000Y00323000D02*
X00225200Y00323000D01*
G01X00222000Y00322800D02*
X00225200Y00322800D01*
G01X00222000Y00322600D02*
X00225200Y00322600D01*
G01X00222000Y00322400D02*
X00225200Y00322400D01*
G01X00222000Y00322200D02*
X00225200Y00322200D01*
G01X00222000Y00322000D02*
X00225200Y00322000D01*
G01X00222000Y00321800D02*
X00225200Y00321800D01*
G01X00222000Y00321600D02*
X00225200Y00321600D01*
G01X00222000Y00321400D02*
X00225200Y00321400D01*
G01X00222000Y00321200D02*
X00225200Y00321200D01*
G01X00222000Y00321000D02*
X00225200Y00321000D01*
G01X00222000Y00320800D02*
X00225200Y00320800D01*
G01X00222000Y00320600D02*
X00225200Y00320600D01*
G01X00222000Y00320400D02*
X00225200Y00320400D01*
G01X00222000Y00320200D02*
X00225200Y00320200D01*
G01X00222000Y00320000D02*
X00225200Y00320000D01*
G01X00222000Y00319800D02*
X00225200Y00319800D01*
G01X00222000Y00319600D02*
X00225200Y00319600D01*
G01X00222000Y00319400D02*
X00225200Y00319400D01*
G01X00222000Y00319200D02*
X00225200Y00319200D01*
G01X00222000Y00319000D02*
X00225200Y00319000D01*
G01X00222000Y00318800D02*
X00225200Y00318800D01*
G01X00222000Y00318600D02*
X00225200Y00318600D01*
G01X00222000Y00318400D02*
X00225200Y00318400D01*
G01X00222000Y00318200D02*
X00225200Y00318200D01*
G01X00222000Y00318000D02*
X00225200Y00318000D01*
G01X00222000Y00317800D02*
X00225200Y00317800D01*
G01X00222000Y00317600D02*
X00225200Y00317600D01*
G01X00222000Y00317400D02*
X00225200Y00317400D01*
G01X00222000Y00317200D02*
X00225200Y00317200D01*
G01X00222000Y00317000D02*
X00225200Y00317000D01*
G01X00222000Y00316800D02*
X00225200Y00316800D01*
G01X00222000Y00316600D02*
X00225200Y00316600D01*
G01X00222000Y00316400D02*
X00225200Y00316400D01*
G01X00222000Y00316200D02*
X00225200Y00316200D01*
G01X00222000Y00316000D02*
X00225200Y00316000D01*
G01X00222000Y00315800D02*
X00225200Y00315800D01*
G01X00222000Y00315600D02*
X00225200Y00315600D01*
G01X00222000Y00315400D02*
X00225200Y00315400D01*
G01X00222000Y00315200D02*
X00225200Y00315200D01*
G01X00222000Y00315000D02*
X00225200Y00315000D01*
G01X00222000Y00314800D02*
X00225200Y00314800D01*
G01X00222000Y00314600D02*
X00225200Y00314600D01*
G01X00222000Y00314400D02*
X00225200Y00314400D01*
G01X00222000Y00314200D02*
X00225200Y00314200D01*
G01X00222000Y00314000D02*
X00225200Y00314000D01*
G01X00222000Y00313800D02*
X00225200Y00313800D01*
G01X00222000Y00313600D02*
X00225200Y00313600D01*
G01X00222000Y00313400D02*
X00225200Y00313400D01*
G01X00222000Y00313200D02*
X00225200Y00313200D01*
G01X00222000Y00313000D02*
X00225200Y00313000D01*
G01X00222000Y00312800D02*
X00225200Y00312800D01*
G01X00222000Y00312600D02*
X00225200Y00312600D01*
G01X00222000Y00312400D02*
X00225200Y00312400D01*
G01X00222000Y00312200D02*
X00225200Y00312200D01*
G01X00222000Y00312000D02*
X00225200Y00312000D01*
G01X00222000Y00311800D02*
X00225200Y00311800D01*
G01X00222000Y00311600D02*
X00225200Y00311600D01*
G01X00222000Y00311400D02*
X00225200Y00311400D01*
G01X00222000Y00311200D02*
X00225200Y00311200D01*
G01X00222000Y00311000D02*
X00225200Y00311000D01*
G01X00222000Y00310800D02*
X00225200Y00310800D01*
G01X00222000Y00310600D02*
X00225200Y00310600D01*
G01X00222000Y00310400D02*
X00225200Y00310400D01*
G01X00222000Y00310200D02*
X00225200Y00310200D01*
G01X00222000Y00310000D02*
X00225200Y00310000D01*
G01X00222000Y00309800D02*
X00225200Y00309800D01*
G01X00222000Y00309600D02*
X00225200Y00309600D01*
G01X00222000Y00309400D02*
X00225200Y00309400D01*
G01X00222000Y00309200D02*
X00225200Y00309200D01*
G01X00222000Y00309000D02*
X00225200Y00309000D01*
G01X00222000Y00308800D02*
X00225200Y00308800D01*
G01X00222000Y00308600D02*
X00225200Y00308600D01*
G01X00222000Y00308400D02*
X00225200Y00308400D01*
G01X00222000Y00308200D02*
X00225200Y00308200D01*
G01X00222000Y00337600D02*
X00225200Y00337600D01*
G01X00222000Y00337400D02*
X00225200Y00337400D01*
G01X00237800Y00337400D02*
X00240600Y00337400D01*
G01X00245400Y00337400D02*
X00248400Y00337400D01*
G01X00222000Y00337200D02*
X00225200Y00337200D01*
G01X00237800Y00337200D02*
X00240600Y00337200D01*
G01X00245400Y00337200D02*
X00248200Y00337200D01*
G01X00222000Y00337000D02*
X00225200Y00337000D01*
G01X00237800Y00337000D02*
X00240800Y00337000D01*
G01X00245400Y00337000D02*
X00248200Y00337000D01*
G01X00222000Y00336800D02*
X00225200Y00336800D01*
G01X00238000Y00336800D02*
X00240800Y00336800D01*
G01X00245200Y00336800D02*
X00248200Y00336800D01*
G01X00222000Y00336600D02*
X00225200Y00336600D01*
G01X00238000Y00336600D02*
X00240800Y00336600D01*
G01X00245200Y00336600D02*
X00248000Y00336600D01*
G01X00222000Y00336400D02*
X00225200Y00336400D01*
G01X00238000Y00336400D02*
X00240800Y00336400D01*
G01X00245200Y00336400D02*
X00248000Y00336400D01*
G01X00222000Y00336200D02*
X00225200Y00336200D01*
G01X00238200Y00336200D02*
X00241000Y00336200D01*
G01X00245000Y00336200D02*
X00248000Y00336200D01*
G01X00222000Y00336000D02*
X00225200Y00336000D01*
G01X00238200Y00336000D02*
X00241000Y00336000D01*
G01X00245000Y00336000D02*
X00247800Y00336000D01*
G01X00222000Y00335800D02*
X00225200Y00335800D01*
G01X00238200Y00335800D02*
X00241000Y00335800D01*
G01X00245000Y00335800D02*
X00247800Y00335800D01*
G01X00222000Y00335600D02*
X00225200Y00335600D01*
G01X00238400Y00335600D02*
X00241200Y00335600D01*
G01X00244800Y00335600D02*
X00247800Y00335600D01*
G01X00222000Y00335400D02*
X00225200Y00335400D01*
G01X00238400Y00335400D02*
X00241200Y00335400D01*
G01X00244800Y00335400D02*
X00247600Y00335400D01*
G01X00222000Y00335200D02*
X00225200Y00335200D01*
G01X00238400Y00335200D02*
X00241200Y00335200D01*
G01X00244800Y00335200D02*
X00247600Y00335200D01*
G01X00222000Y00335000D02*
X00225200Y00335000D01*
G01X00238600Y00335000D02*
X00241400Y00335000D01*
G01X00244800Y00335000D02*
X00247600Y00335000D01*
G01X00222000Y00334800D02*
X00225200Y00334800D01*
G01X00238600Y00334800D02*
X00241400Y00334800D01*
G01X00244600Y00334800D02*
X00247400Y00334800D01*
G01X00222000Y00334600D02*
X00225200Y00334600D01*
G01X00238600Y00334600D02*
X00241400Y00334600D01*
G01X00244600Y00334600D02*
X00247400Y00334600D01*
G01X00222000Y00334400D02*
X00225200Y00334400D01*
G01X00238800Y00334400D02*
X00241600Y00334400D01*
G01X00244600Y00334400D02*
X00247400Y00334400D01*
G01X00222000Y00334200D02*
X00225200Y00334200D01*
G01X00238800Y00334200D02*
X00241600Y00334200D01*
G01X00244400Y00334200D02*
X00247200Y00334200D01*
G01X00222000Y00334000D02*
X00225200Y00334000D01*
G01X00238800Y00334000D02*
X00241600Y00334000D01*
G01X00244400Y00334000D02*
X00247200Y00334000D01*
G01X00222000Y00333800D02*
X00225200Y00333800D01*
G01X00239000Y00333800D02*
X00241600Y00333800D01*
G01X00244400Y00333800D02*
X00247200Y00333800D01*
G01X00222000Y00333600D02*
X00225200Y00333600D01*
G01X00239000Y00333600D02*
X00241800Y00333600D01*
G01X00244200Y00333600D02*
X00247000Y00333600D01*
G01X00222000Y00333400D02*
X00225200Y00333400D01*
G01X00239000Y00333400D02*
X00241800Y00333400D01*
G01X00244200Y00333400D02*
X00247000Y00333400D01*
G01X00222000Y00333200D02*
X00225200Y00333200D01*
G01X00239200Y00333200D02*
X00241800Y00333200D01*
G01X00244200Y00333200D02*
X00247000Y00333200D01*
G01X00222000Y00333000D02*
X00225200Y00333000D01*
G01X00239200Y00333000D02*
X00242000Y00333000D01*
G01X00244000Y00333000D02*
X00246800Y00333000D01*
G01X00222000Y00332800D02*
X00225200Y00332800D01*
G01X00239200Y00332800D02*
X00242000Y00332800D01*
G01X00244000Y00332800D02*
X00246800Y00332800D01*
G01X00222000Y00332600D02*
X00225200Y00332600D01*
G01X00239400Y00332600D02*
X00242000Y00332600D01*
G01X00244000Y00332600D02*
X00246800Y00332600D01*
G01X00222000Y00332400D02*
X00225200Y00332400D01*
G01X00239400Y00332400D02*
X00242200Y00332400D01*
G01X00244000Y00332400D02*
X00246600Y00332400D01*
G01X00222000Y00332200D02*
X00225200Y00332200D01*
G01X00239400Y00332200D02*
X00242200Y00332200D01*
G01X00243800Y00332200D02*
X00246600Y00332200D01*
G01X00222000Y00332000D02*
X00225200Y00332000D01*
G01X00239600Y00332000D02*
X00242200Y00332000D01*
G01X00243800Y00332000D02*
X00246600Y00332000D01*
G01X00222000Y00331800D02*
X00225200Y00331800D01*
G01X00239600Y00331800D02*
X00242400Y00331800D01*
G01X00243800Y00331800D02*
X00246400Y00331800D01*
G01X00222000Y00331600D02*
X00225200Y00331600D01*
G01X00239600Y00331600D02*
X00242400Y00331600D01*
G01X00243600Y00331600D02*
X00246400Y00331600D01*
G01X00222000Y00331400D02*
X00225200Y00331400D01*
G01X00239800Y00331400D02*
X00242400Y00331400D01*
G01X00243600Y00331400D02*
X00246400Y00331400D01*
G01X00222000Y00331200D02*
X00225200Y00331200D01*
G01X00239800Y00331200D02*
X00242400Y00331200D01*
G01X00243600Y00331200D02*
X00246200Y00331200D01*
G01X00222000Y00331000D02*
X00225200Y00331000D01*
G01X00239800Y00331000D02*
X00242600Y00331000D01*
G01X00243400Y00331000D02*
X00246200Y00331000D01*
G01X00222000Y00330800D02*
X00225200Y00330800D01*
G01X00240000Y00330800D02*
X00242600Y00330800D01*
G01X00243400Y00330800D02*
X00246200Y00330800D01*
G01X00222000Y00330600D02*
X00225200Y00330600D01*
G01X00240000Y00330600D02*
X00242600Y00330600D01*
G01X00243400Y00330600D02*
X00246000Y00330600D01*
G01X00222000Y00330400D02*
X00225200Y00330400D01*
G01X00240000Y00330400D02*
X00242800Y00330400D01*
G01X00243200Y00330400D02*
X00246000Y00330400D01*
G01X00222000Y00330200D02*
X00225200Y00330200D01*
G01X00240000Y00330200D02*
X00242800Y00330200D01*
G01X00243200Y00330200D02*
X00246000Y00330200D01*
G01X00222000Y00330000D02*
X00225200Y00330000D01*
G01X00240200Y00330000D02*
X00242800Y00330000D01*
G01X00243200Y00330000D02*
X00245800Y00330000D01*
G01X00222000Y00329800D02*
X00225200Y00329800D01*
G01X00240200Y00329800D02*
X00243000Y00329800D01*
G01X00243200Y00329800D02*
X00245800Y00329800D01*
G01X00222000Y00329600D02*
X00225200Y00329600D01*
G01X00240200Y00329600D02*
X00245800Y00329600D01*
G01X00222000Y00329400D02*
X00225200Y00329400D01*
G01X00240400Y00329400D02*
X00245600Y00329400D01*
G01X00222000Y00329200D02*
X00225200Y00329200D01*
G01X00240400Y00329200D02*
X00245600Y00329200D01*
G01X00222000Y00329000D02*
X00225200Y00329000D01*
G01X00240400Y00329000D02*
X00245600Y00329000D01*
G01X00222000Y00328800D02*
X00225200Y00328800D01*
G01X00240600Y00328800D02*
X00245400Y00328800D01*
G01X00222000Y00328600D02*
X00225200Y00328600D01*
G01X00240600Y00328600D02*
X00245400Y00328600D01*
G01X00222000Y00328400D02*
X00225200Y00328400D01*
G01X00240600Y00328400D02*
X00245400Y00328400D01*
G01X00222000Y00328200D02*
X00225200Y00328200D01*
G01X00240800Y00328200D02*
X00245200Y00328200D01*
G01X00222000Y00328000D02*
X00225200Y00328000D01*
G01X00240800Y00328000D02*
X00245200Y00328000D01*
G01X00222000Y00327800D02*
X00225200Y00327800D01*
G01X00240800Y00327800D02*
X00245200Y00327800D01*
G01X00222000Y00327600D02*
X00225200Y00327600D01*
G01X00241000Y00327600D02*
X00245000Y00327600D01*
G01X00222000Y00327400D02*
X00225200Y00327400D01*
G01X00241000Y00327400D02*
X00245000Y00327400D01*
G01X00222000Y00327200D02*
X00225200Y00327200D01*
G01X00241000Y00327200D02*
X00245000Y00327200D01*
G01X00222000Y00327000D02*
X00225200Y00327000D01*
G01X00241200Y00327000D02*
X00244800Y00327000D01*
G01X00222000Y00326800D02*
X00225200Y00326800D01*
G01X00241200Y00326800D02*
X00244800Y00326800D01*
G01X00250000Y00326600D02*
X00252800Y00326600D01*
G01X00258400Y00326600D02*
X00261000Y00326600D01*
G01X00264800Y00326600D02*
X00267600Y00326600D01*
G01X00272200Y00326600D02*
X00275000Y00326600D01*
G01X00250000Y00326400D02*
X00252800Y00326400D01*
G01X00258400Y00326400D02*
X00261000Y00326400D01*
G01X00264800Y00326400D02*
X00267600Y00326400D01*
G01X00272200Y00326400D02*
X00275000Y00326400D01*
G01X00250000Y00326200D02*
X00252800Y00326200D01*
G01X00258400Y00326200D02*
X00261000Y00326200D01*
G01X00264600Y00326200D02*
X00267600Y00326200D01*
G01X00272200Y00326200D02*
X00275200Y00326200D01*
G01X00250000Y00326000D02*
X00252800Y00326000D01*
G01X00258400Y00326000D02*
X00261000Y00326000D01*
G01X00264600Y00326000D02*
X00267400Y00326000D01*
G01X00272400Y00326000D02*
X00275200Y00326000D01*
G01X00250000Y00325800D02*
X00252800Y00325800D01*
G01X00258400Y00325800D02*
X00261000Y00325800D01*
G01X00264600Y00325800D02*
X00267400Y00325800D01*
G01X00272400Y00325800D02*
X00275200Y00325800D01*
G01X00250000Y00325600D02*
X00252800Y00325600D01*
G01X00258400Y00325600D02*
X00261000Y00325600D01*
G01X00264400Y00325600D02*
X00267400Y00325600D01*
G01X00272400Y00325600D02*
X00275400Y00325600D01*
G01X00250000Y00325400D02*
X00252800Y00325400D01*
G01X00258400Y00325400D02*
X00261000Y00325400D01*
G01X00264400Y00325400D02*
X00267200Y00325400D01*
G01X00272600Y00325400D02*
X00275400Y00325400D01*
G01X00250000Y00325200D02*
X00252800Y00325200D01*
G01X00258400Y00325200D02*
X00261000Y00325200D01*
G01X00264200Y00325200D02*
X00267200Y00325200D01*
G01X00272600Y00325200D02*
X00275400Y00325200D01*
G01X00250000Y00325000D02*
X00252800Y00325000D01*
G01X00258400Y00325000D02*
X00261000Y00325000D01*
G01X00264200Y00325000D02*
X00267200Y00325000D01*
G01X00272600Y00325000D02*
X00275600Y00325000D01*
G01X00250000Y00324800D02*
X00252800Y00324800D01*
G01X00258400Y00324800D02*
X00261000Y00324800D01*
G01X00264200Y00324800D02*
X00267000Y00324800D01*
G01X00272800Y00324800D02*
X00275600Y00324800D01*
G01X00250000Y00324600D02*
X00252800Y00324600D01*
G01X00258400Y00324600D02*
X00261000Y00324600D01*
G01X00264200Y00324600D02*
X00267000Y00324600D01*
G01X00272800Y00324600D02*
X00275600Y00324600D01*
G01X00266800Y00319000D02*
X00268600Y00319000D01*
G01X00266800Y00318800D02*
X00268600Y00318800D01*
G01X00266800Y00318600D02*
X00268600Y00318600D01*
G01X00266800Y00318400D02*
X00268600Y00318400D01*
G01X00263000Y00318200D02*
X00264200Y00318200D01*
G01X00266800Y00318200D02*
X00268600Y00318200D01*
G01X00263000Y00318000D02*
X00264800Y00318000D01*
G01X00266800Y00318000D02*
X00268600Y00318000D01*
G01X00262800Y00317800D02*
X00264800Y00317800D01*
G01X00266800Y00317800D02*
X00268600Y00317800D01*
G01X00262800Y00317600D02*
X00264800Y00317600D01*
G01X00266800Y00317600D02*
X00268600Y00317600D01*
G01X00262600Y00317400D02*
X00264600Y00317400D01*
G01X00266800Y00317400D02*
X00268600Y00317400D01*
G01X00262600Y00317200D02*
X00264600Y00317200D01*
G01X00266800Y00317200D02*
X00268600Y00317200D01*
G01X00262600Y00317000D02*
X00264600Y00317000D01*
G01X00266800Y00317000D02*
X00268600Y00317000D01*
G01X00262400Y00316800D02*
X00264400Y00316800D01*
G01X00266800Y00316800D02*
X00268600Y00316800D01*
G01X00262400Y00316600D02*
X00264400Y00316600D01*
G01X00266800Y00316600D02*
X00268600Y00316600D01*
G01X00262200Y00316400D02*
X00264200Y00316400D01*
G01X00266800Y00316400D02*
X00268600Y00316400D01*
G01X00262200Y00316200D02*
X00264200Y00316200D01*
G01X00266800Y00316200D02*
X00268600Y00316200D01*
G01X00262000Y00316000D02*
X00273600Y00316000D01*
G01X00262000Y00315800D02*
X00273600Y00315800D01*
G01X00261800Y00315600D02*
X00273600Y00315600D01*
G01X00261800Y00315400D02*
X00273600Y00315400D01*
G01X00261600Y00315200D02*
X00273600Y00315200D01*
G01X00261600Y00315000D02*
X00273600Y00315000D01*
G01X00261400Y00314800D02*
X00273600Y00314800D01*
G01X00261400Y00314600D02*
X00273600Y00314600D01*
G01X00261200Y00314400D02*
X00263400Y00314400D01*
G01X00266800Y00314400D02*
X00268600Y00314400D01*
G01X00261000Y00314200D02*
X00263200Y00314200D01*
G01X00266800Y00314200D02*
X00268600Y00314200D01*
G01X00261000Y00314000D02*
X00263200Y00314000D01*
G01X00266800Y00314000D02*
X00268600Y00314000D01*
G01X00260800Y00313800D02*
X00263000Y00313800D01*
G01X00266800Y00313800D02*
X00268600Y00313800D01*
G01X00260600Y00313600D02*
X00263000Y00313600D01*
G01X00266800Y00313600D02*
X00268600Y00313600D01*
G01X00260600Y00313400D02*
X00262800Y00313400D01*
G01X00266800Y00313400D02*
X00268600Y00313400D01*
G01X00260400Y00313200D02*
X00262800Y00313200D01*
G01X00266800Y00313200D02*
X00268600Y00313200D01*
G01X00260400Y00313000D02*
X00262600Y00313000D01*
G01X00266800Y00313000D02*
X00268600Y00313000D01*
G01X00260600Y00312800D02*
X00262400Y00312800D01*
G01X00266800Y00312800D02*
X00268600Y00312800D01*
G01X00261000Y00312600D02*
X00262400Y00312600D01*
G01X00266800Y00312600D02*
X00268600Y00312600D01*
G01X00261400Y00312400D02*
X00262200Y00312400D01*
G01X00266800Y00312400D02*
X00268600Y00312400D01*
G01X00261600Y00312200D02*
X00262000Y00312200D01*
G01X00266800Y00312200D02*
X00268600Y00312200D01*
G01X00266800Y00312000D02*
X00268600Y00312000D01*
G01X00261800Y00311800D02*
X00273000Y00311800D01*
G01X00261800Y00311600D02*
X00273000Y00311600D01*
G01X00261800Y00311400D02*
X00273000Y00311400D01*
G01X00261800Y00311200D02*
X00273000Y00311200D01*
G01X00261800Y00311000D02*
X00273000Y00311000D01*
G01X00261800Y00310800D02*
X00273000Y00310800D01*
G01X00261800Y00310600D02*
X00273000Y00310600D01*
G01X00261800Y00310400D02*
X00273000Y00310400D01*
G01X00266800Y00310200D02*
X00268600Y00310200D01*
G01X00266800Y00310000D02*
X00268600Y00310000D01*
G01X00266800Y00309800D02*
X00268600Y00309800D01*
G01X00266800Y00309600D02*
X00268600Y00309600D01*
G01X00266800Y00309400D02*
X00268600Y00309400D01*
G01X00266800Y00309200D02*
X00268600Y00309200D01*
G01X00266800Y00309000D02*
X00268600Y00309000D01*
G01X00266800Y00308800D02*
X00268600Y00308800D01*
G01X00266800Y00308600D02*
X00268600Y00308600D01*
G01X00266800Y00308400D02*
X00268600Y00308400D01*
G01X00266800Y00308200D02*
X00268600Y00308200D01*
G01X00266800Y00308000D02*
X00268600Y00308000D01*
G01X00266800Y00307800D02*
X00268600Y00307800D01*
G01X00266800Y00307600D02*
X00268600Y00307600D01*
G01X00266800Y00307400D02*
X00268600Y00307400D01*
G01X00260600Y00307200D02*
X00274200Y00307200D01*
G01X00260600Y00307000D02*
X00274200Y00307000D01*
G01X00260600Y00306800D02*
X00274200Y00306800D01*
G01X00260600Y00306600D02*
X00274200Y00306600D01*
G01X00260600Y00306400D02*
X00274200Y00306400D01*
G01X00260600Y00306200D02*
X00274200Y00306200D01*
G01X00260600Y00306000D02*
X00274200Y00306000D01*
G01X00260600Y00305800D02*
X00274200Y00305800D01*
G01X00250000Y00337400D02*
X00252800Y00337400D01*
G01X00255000Y00337400D02*
X00264400Y00337400D01*
G01X00268800Y00337400D02*
X00271000Y00337400D01*
G01X00250000Y00337200D02*
X00252800Y00337200D01*
G01X00255000Y00337200D02*
X00264400Y00337200D01*
G01X00268600Y00337200D02*
X00271200Y00337200D01*
G01X00250000Y00337000D02*
X00252800Y00337000D01*
G01X00255000Y00337000D02*
X00264400Y00337000D01*
G01X00268600Y00337000D02*
X00271200Y00337000D01*
G01X00250000Y00336800D02*
X00252800Y00336800D01*
G01X00255000Y00336800D02*
X00264400Y00336800D01*
G01X00268600Y00336800D02*
X00271200Y00336800D01*
G01X00250000Y00336600D02*
X00252800Y00336600D01*
G01X00255000Y00336600D02*
X00264400Y00336600D01*
G01X00268400Y00336600D02*
X00271400Y00336600D01*
G01X00250000Y00336400D02*
X00252800Y00336400D01*
G01X00255000Y00336400D02*
X00264400Y00336400D01*
G01X00268400Y00336400D02*
X00271400Y00336400D01*
G01X00250000Y00336200D02*
X00252800Y00336200D01*
G01X00255000Y00336200D02*
X00264400Y00336200D01*
G01X00268400Y00336200D02*
X00271400Y00336200D01*
G01X00250000Y00336000D02*
X00252800Y00336000D01*
G01X00255000Y00336000D02*
X00264400Y00336000D01*
G01X00268200Y00336000D02*
X00271600Y00336000D01*
G01X00250000Y00335800D02*
X00252800Y00335800D01*
G01X00255000Y00335800D02*
X00264400Y00335800D01*
G01X00268200Y00335800D02*
X00271600Y00335800D01*
G01X00250000Y00335600D02*
X00252800Y00335600D01*
G01X00255000Y00335600D02*
X00264400Y00335600D01*
G01X00268000Y00335600D02*
X00271600Y00335600D01*
G01X00250000Y00335400D02*
X00252800Y00335400D01*
G01X00255000Y00335400D02*
X00264400Y00335400D01*
G01X00268000Y00335400D02*
X00271800Y00335400D01*
G01X00250000Y00335200D02*
X00252800Y00335200D01*
G01X00255000Y00335200D02*
X00264400Y00335200D01*
G01X00268000Y00335200D02*
X00271800Y00335200D01*
G01X00250000Y00335000D02*
X00252800Y00335000D01*
G01X00258400Y00335000D02*
X00261000Y00335000D01*
G01X00267800Y00335000D02*
X00272000Y00335000D01*
G01X00250000Y00334800D02*
X00252800Y00334800D01*
G01X00258400Y00334800D02*
X00261000Y00334800D01*
G01X00267800Y00334800D02*
X00272000Y00334800D01*
G01X00250000Y00334600D02*
X00252800Y00334600D01*
G01X00258400Y00334600D02*
X00261000Y00334600D01*
G01X00267800Y00334600D02*
X00272000Y00334600D01*
G01X00250000Y00334400D02*
X00252800Y00334400D01*
G01X00258400Y00334400D02*
X00261000Y00334400D01*
G01X00267600Y00334400D02*
X00272200Y00334400D01*
G01X00250000Y00334200D02*
X00252800Y00334200D01*
G01X00258400Y00334200D02*
X00261000Y00334200D01*
G01X00267600Y00334200D02*
X00272200Y00334200D01*
G01X00250000Y00334000D02*
X00252800Y00334000D01*
G01X00258400Y00334000D02*
X00261000Y00334000D01*
G01X00267400Y00334000D02*
X00272200Y00334000D01*
G01X00250000Y00333800D02*
X00252800Y00333800D01*
G01X00258400Y00333800D02*
X00261000Y00333800D01*
G01X00267400Y00333800D02*
X00272400Y00333800D01*
G01X00250000Y00333600D02*
X00252800Y00333600D01*
G01X00258400Y00333600D02*
X00261000Y00333600D01*
G01X00267400Y00333600D02*
X00272400Y00333600D01*
G01X00250000Y00333400D02*
X00252800Y00333400D01*
G01X00258400Y00333400D02*
X00261000Y00333400D01*
G01X00267200Y00333400D02*
X00272400Y00333400D01*
G01X00250000Y00333200D02*
X00252800Y00333200D01*
G01X00258400Y00333200D02*
X00261000Y00333200D01*
G01X00267200Y00333200D02*
X00272600Y00333200D01*
G01X00250000Y00333000D02*
X00252800Y00333000D01*
G01X00258400Y00333000D02*
X00261000Y00333000D01*
G01X00267200Y00333000D02*
X00269800Y00333000D01*
G01X00270000Y00333000D02*
X00272600Y00333000D01*
G01X00250000Y00332800D02*
X00252800Y00332800D01*
G01X00258400Y00332800D02*
X00261000Y00332800D01*
G01X00267000Y00332800D02*
X00269800Y00332800D01*
G01X00270200Y00332800D02*
X00272800Y00332800D01*
G01X00250000Y00332600D02*
X00252800Y00332600D01*
G01X00258400Y00332600D02*
X00261000Y00332600D01*
G01X00267000Y00332600D02*
X00269800Y00332600D01*
G01X00270200Y00332600D02*
X00272800Y00332600D01*
G01X00250000Y00332400D02*
X00252800Y00332400D01*
G01X00258400Y00332400D02*
X00261000Y00332400D01*
G01X00267000Y00332400D02*
X00269600Y00332400D01*
G01X00270200Y00332400D02*
X00272800Y00332400D01*
G01X00250000Y00332200D02*
X00252800Y00332200D01*
G01X00258400Y00332200D02*
X00261000Y00332200D01*
G01X00266800Y00332200D02*
X00269600Y00332200D01*
G01X00270400Y00332200D02*
X00273000Y00332200D01*
G01X00250000Y00332000D02*
X00252800Y00332000D01*
G01X00258400Y00332000D02*
X00261000Y00332000D01*
G01X00266800Y00332000D02*
X00269600Y00332000D01*
G01X00270400Y00332000D02*
X00273000Y00332000D01*
G01X00250000Y00331800D02*
X00252800Y00331800D01*
G01X00258400Y00331800D02*
X00261000Y00331800D01*
G01X00266600Y00331800D02*
X00269400Y00331800D01*
G01X00270400Y00331800D02*
X00273000Y00331800D01*
G01X00250000Y00331600D02*
X00252800Y00331600D01*
G01X00258400Y00331600D02*
X00261000Y00331600D01*
G01X00266600Y00331600D02*
X00269400Y00331600D01*
G01X00270600Y00331600D02*
X00273200Y00331600D01*
G01X00250000Y00331400D02*
X00252800Y00331400D01*
G01X00258400Y00331400D02*
X00261000Y00331400D01*
G01X00266600Y00331400D02*
X00269200Y00331400D01*
G01X00270600Y00331400D02*
X00273200Y00331400D01*
G01X00250000Y00331200D02*
X00252800Y00331200D01*
G01X00258400Y00331200D02*
X00261000Y00331200D01*
G01X00266400Y00331200D02*
X00269200Y00331200D01*
G01X00270600Y00331200D02*
X00273400Y00331200D01*
G01X00250000Y00331000D02*
X00252800Y00331000D01*
G01X00258400Y00331000D02*
X00261000Y00331000D01*
G01X00266400Y00331000D02*
X00269200Y00331000D01*
G01X00270800Y00331000D02*
X00273400Y00331000D01*
G01X00250000Y00330800D02*
X00252800Y00330800D01*
G01X00258400Y00330800D02*
X00261000Y00330800D01*
G01X00266400Y00330800D02*
X00269000Y00330800D01*
G01X00270800Y00330800D02*
X00273400Y00330800D01*
G01X00250000Y00330600D02*
X00252800Y00330600D01*
G01X00258400Y00330600D02*
X00261000Y00330600D01*
G01X00266200Y00330600D02*
X00269000Y00330600D01*
G01X00270800Y00330600D02*
X00273600Y00330600D01*
G01X00250000Y00330400D02*
X00252800Y00330400D01*
G01X00258400Y00330400D02*
X00261000Y00330400D01*
G01X00266200Y00330400D02*
X00269000Y00330400D01*
G01X00271000Y00330400D02*
X00273600Y00330400D01*
G01X00250000Y00330200D02*
X00252800Y00330200D01*
G01X00258400Y00330200D02*
X00261000Y00330200D01*
G01X00266200Y00330200D02*
X00268800Y00330200D01*
G01X00271000Y00330200D02*
X00273600Y00330200D01*
G01X00250000Y00330000D02*
X00252800Y00330000D01*
G01X00258400Y00330000D02*
X00261000Y00330000D01*
G01X00266000Y00330000D02*
X00268800Y00330000D01*
G01X00271000Y00330000D02*
X00273800Y00330000D01*
G01X00250000Y00329800D02*
X00252800Y00329800D01*
G01X00258400Y00329800D02*
X00261000Y00329800D01*
G01X00266000Y00329800D02*
X00268800Y00329800D01*
G01X00271200Y00329800D02*
X00273800Y00329800D01*
G01X00250000Y00329600D02*
X00252800Y00329600D01*
G01X00258400Y00329600D02*
X00261000Y00329600D01*
G01X00265800Y00329600D02*
X00268600Y00329600D01*
G01X00271200Y00329600D02*
X00273800Y00329600D01*
G01X00250000Y00329400D02*
X00252800Y00329400D01*
G01X00258400Y00329400D02*
X00261000Y00329400D01*
G01X00265800Y00329400D02*
X00268600Y00329400D01*
G01X00271200Y00329400D02*
X00274000Y00329400D01*
G01X00250000Y00329200D02*
X00252800Y00329200D01*
G01X00258400Y00329200D02*
X00261000Y00329200D01*
G01X00265800Y00329200D02*
X00268600Y00329200D01*
G01X00271400Y00329200D02*
X00274000Y00329200D01*
G01X00250000Y00329000D02*
X00252800Y00329000D01*
G01X00258400Y00329000D02*
X00261000Y00329000D01*
G01X00265600Y00329000D02*
X00274200Y00329000D01*
G01X00250000Y00328800D02*
X00252800Y00328800D01*
G01X00258400Y00328800D02*
X00261000Y00328800D01*
G01X00265600Y00328800D02*
X00274200Y00328800D01*
G01X00250000Y00328600D02*
X00252800Y00328600D01*
G01X00258400Y00328600D02*
X00261000Y00328600D01*
G01X00265600Y00328600D02*
X00274200Y00328600D01*
G01X00250000Y00328400D02*
X00252800Y00328400D01*
G01X00258400Y00328400D02*
X00261000Y00328400D01*
G01X00265400Y00328400D02*
X00274400Y00328400D01*
G01X00250000Y00328200D02*
X00252800Y00328200D01*
G01X00258400Y00328200D02*
X00261000Y00328200D01*
G01X00265400Y00328200D02*
X00274400Y00328200D01*
G01X00250000Y00328000D02*
X00252800Y00328000D01*
G01X00258400Y00328000D02*
X00261000Y00328000D01*
G01X00265400Y00328000D02*
X00274400Y00328000D01*
G01X00250000Y00327800D02*
X00252800Y00327800D01*
G01X00258400Y00327800D02*
X00261000Y00327800D01*
G01X00265200Y00327800D02*
X00274600Y00327800D01*
G01X00250000Y00327600D02*
X00252800Y00327600D01*
G01X00258400Y00327600D02*
X00261000Y00327600D01*
G01X00265200Y00327600D02*
X00274600Y00327600D01*
G01X00250000Y00327400D02*
X00252800Y00327400D01*
G01X00258400Y00327400D02*
X00261000Y00327400D01*
G01X00265000Y00327400D02*
X00274600Y00327400D01*
G01X00250000Y00327200D02*
X00252800Y00327200D01*
G01X00258400Y00327200D02*
X00261000Y00327200D01*
G01X00265000Y00327200D02*
X00274800Y00327200D01*
G01X00250000Y00327000D02*
X00252800Y00327000D01*
G01X00258400Y00327000D02*
X00261000Y00327000D01*
G01X00265000Y00327000D02*
X00274800Y00327000D01*
G01X00250000Y00326800D02*
X00252800Y00326800D01*
G01X00258400Y00326800D02*
X00261000Y00326800D01*
G01X00264800Y00326800D02*
X00275000Y00326800D01*
G01X00281600Y00326600D02*
X00290600Y00326600D01*
G01X00298000Y00326600D02*
X00300800Y00326600D01*
G01X00281400Y00326400D02*
X00290400Y00326400D01*
G01X00298000Y00326400D02*
X00300800Y00326400D01*
G01X00281400Y00326200D02*
X00290400Y00326200D01*
G01X00298000Y00326200D02*
X00300800Y00326200D01*
G01X00281400Y00326000D02*
X00290200Y00326000D01*
G01X00298000Y00326000D02*
X00300800Y00326000D01*
G01X00281600Y00325800D02*
X00290000Y00325800D01*
G01X00298000Y00325800D02*
X00300800Y00325800D01*
G01X00281800Y00325600D02*
X00289800Y00325600D01*
G01X00298000Y00325600D02*
X00300800Y00325600D01*
G01X00282200Y00325400D02*
X00289600Y00325400D01*
G01X00298000Y00325400D02*
X00300800Y00325400D01*
G01X00282400Y00325200D02*
X00289400Y00325200D01*
G01X00298000Y00325200D02*
X00300800Y00325200D01*
G01X00282800Y00325000D02*
X00289000Y00325000D01*
G01X00298000Y00325000D02*
X00300800Y00325000D01*
G01X00283400Y00324800D02*
X00288600Y00324800D01*
G01X00298000Y00324800D02*
X00300800Y00324800D01*
G01X00284000Y00324600D02*
X00288000Y00324600D01*
G01X00298000Y00324600D02*
X00300800Y00324600D01*
G01X00285800Y00324400D02*
X00286400Y00324400D01*
G01X00288400Y00319000D02*
X00290600Y00319000D01*
G01X00288400Y00318800D02*
X00290600Y00318800D01*
G01X00288200Y00318600D02*
X00290400Y00318600D01*
G01X00288000Y00318400D02*
X00290400Y00318400D01*
G01X00287800Y00318200D02*
X00290600Y00318200D01*
G01X00287600Y00318000D02*
X00290800Y00318000D01*
G01X00287400Y00317800D02*
X00291000Y00317800D01*
G01X00287000Y00317600D02*
X00291400Y00317600D01*
G01X00286800Y00317400D02*
X00291600Y00317400D01*
G01X00286600Y00317200D02*
X00289200Y00317200D01*
G01X00289400Y00317200D02*
X00291800Y00317200D01*
G01X00286400Y00317000D02*
X00289000Y00317000D01*
G01X00289600Y00317000D02*
X00292200Y00317000D01*
G01X00286000Y00316800D02*
X00288800Y00316800D01*
G01X00289800Y00316800D02*
X00292600Y00316800D01*
G01X00285600Y00316600D02*
X00288600Y00316600D01*
G01X00290000Y00316600D02*
X00292800Y00316600D01*
G01X00285400Y00316400D02*
X00288400Y00316400D01*
G01X00290200Y00316400D02*
X00293200Y00316400D01*
G01X00285000Y00316200D02*
X00288200Y00316200D01*
G01X00290400Y00316200D02*
X00293600Y00316200D01*
G01X00284600Y00316000D02*
X00287800Y00316000D01*
G01X00290800Y00316000D02*
X00294000Y00316000D01*
G01X00284200Y00315800D02*
X00287600Y00315800D01*
G01X00291000Y00315800D02*
X00294400Y00315800D01*
G01X00283800Y00315600D02*
X00287400Y00315600D01*
G01X00291200Y00315600D02*
X00294800Y00315600D01*
G01X00283400Y00315400D02*
X00287000Y00315400D01*
G01X00291600Y00315400D02*
X00295400Y00315400D01*
G01X00283000Y00315200D02*
X00286800Y00315200D01*
G01X00291800Y00315200D02*
X00296000Y00315200D01*
G01X00282600Y00315000D02*
X00296400Y00315000D01*
G01X00282200Y00314800D02*
X00296400Y00314800D01*
G01X00282200Y00314600D02*
X00296200Y00314600D01*
G01X00282400Y00314400D02*
X00285400Y00314400D01*
G01X00285800Y00314400D02*
X00292800Y00314400D01*
G01X00293200Y00314400D02*
X00296000Y00314400D01*
G01X00282400Y00314200D02*
X00285000Y00314200D01*
G01X00285800Y00314200D02*
X00292800Y00314200D01*
G01X00293600Y00314200D02*
X00296000Y00314200D01*
G01X00282600Y00314000D02*
X00284600Y00314000D01*
G01X00285800Y00314000D02*
X00292800Y00314000D01*
G01X00294000Y00314000D02*
X00295800Y00314000D01*
G01X00282800Y00313800D02*
X00284200Y00313800D01*
G01X00285800Y00313800D02*
X00292800Y00313800D01*
G01X00294400Y00313800D02*
X00295600Y00313800D01*
G01X00282800Y00313600D02*
X00283800Y00313600D01*
G01X00294800Y00313600D02*
X00295600Y00313600D01*
G01X00283000Y00313400D02*
X00283400Y00313400D01*
G01X00289600Y00312600D02*
X00295200Y00312600D01*
G01X00283400Y00312400D02*
X00288400Y00312400D01*
G01X00289600Y00312400D02*
X00295200Y00312400D01*
G01X00283400Y00312200D02*
X00288400Y00312200D01*
G01X00289600Y00312200D02*
X00295200Y00312200D01*
G01X00283400Y00312000D02*
X00288400Y00312000D01*
G01X00289600Y00312000D02*
X00295200Y00312000D01*
G01X00283400Y00311800D02*
X00288400Y00311800D01*
G01X00289600Y00311800D02*
X00295200Y00311800D01*
G01X00283400Y00311600D02*
X00288400Y00311600D01*
G01X00289600Y00311600D02*
X00295200Y00311600D01*
G01X00283400Y00311400D02*
X00288400Y00311400D01*
G01X00289600Y00311400D02*
X00295200Y00311400D01*
G01X00283400Y00311200D02*
X00288400Y00311200D01*
G01X00289600Y00311200D02*
X00295200Y00311200D01*
G01X00283400Y00311000D02*
X00285000Y00311000D01*
G01X00286800Y00311000D02*
X00288400Y00311000D01*
G01X00289600Y00311000D02*
X00291200Y00311000D01*
G01X00293600Y00311000D02*
X00295200Y00311000D01*
G01X00283400Y00310800D02*
X00285000Y00310800D01*
G01X00286800Y00310800D02*
X00288400Y00310800D01*
G01X00289600Y00310800D02*
X00291200Y00310800D01*
G01X00293600Y00310800D02*
X00295200Y00310800D01*
G01X00283400Y00310600D02*
X00285000Y00310600D01*
G01X00286800Y00310600D02*
X00288400Y00310600D01*
G01X00289600Y00310600D02*
X00291200Y00310600D01*
G01X00293600Y00310600D02*
X00295200Y00310600D01*
G01X00283400Y00310400D02*
X00285000Y00310400D01*
G01X00286800Y00310400D02*
X00288400Y00310400D01*
G01X00289600Y00310400D02*
X00291200Y00310400D01*
G01X00293600Y00310400D02*
X00295200Y00310400D01*
G01X00283400Y00310200D02*
X00285000Y00310200D01*
G01X00286800Y00310200D02*
X00288400Y00310200D01*
G01X00289600Y00310200D02*
X00291200Y00310200D01*
G01X00293600Y00310200D02*
X00295200Y00310200D01*
G01X00283400Y00310000D02*
X00285000Y00310000D01*
G01X00286800Y00310000D02*
X00288400Y00310000D01*
G01X00289600Y00310000D02*
X00291200Y00310000D01*
G01X00293600Y00310000D02*
X00295200Y00310000D01*
G01X00283400Y00309800D02*
X00285000Y00309800D01*
G01X00286800Y00309800D02*
X00288400Y00309800D01*
G01X00289600Y00309800D02*
X00291200Y00309800D01*
G01X00293600Y00309800D02*
X00295200Y00309800D01*
G01X00283400Y00309600D02*
X00285000Y00309600D01*
G01X00286800Y00309600D02*
X00288400Y00309600D01*
G01X00289600Y00309600D02*
X00291200Y00309600D01*
G01X00293600Y00309600D02*
X00295200Y00309600D01*
G01X00283400Y00309400D02*
X00285000Y00309400D01*
G01X00286800Y00309400D02*
X00288400Y00309400D01*
G01X00289600Y00309400D02*
X00291200Y00309400D01*
G01X00293600Y00309400D02*
X00295200Y00309400D01*
G01X00283400Y00309200D02*
X00285000Y00309200D01*
G01X00286800Y00309200D02*
X00288400Y00309200D01*
G01X00289600Y00309200D02*
X00291200Y00309200D01*
G01X00293600Y00309200D02*
X00295200Y00309200D01*
G01X00283400Y00309000D02*
X00285000Y00309000D01*
G01X00286800Y00309000D02*
X00288400Y00309000D01*
G01X00289600Y00309000D02*
X00291200Y00309000D01*
G01X00293600Y00309000D02*
X00295200Y00309000D01*
G01X00283400Y00308800D02*
X00285000Y00308800D01*
G01X00286800Y00308800D02*
X00288400Y00308800D01*
G01X00289600Y00308800D02*
X00291200Y00308800D01*
G01X00293600Y00308800D02*
X00295200Y00308800D01*
G01X00283400Y00308600D02*
X00288400Y00308600D01*
G01X00289600Y00308600D02*
X00291200Y00308600D01*
G01X00293600Y00308600D02*
X00295200Y00308600D01*
G01X00283400Y00308400D02*
X00288400Y00308400D01*
G01X00289600Y00308400D02*
X00291200Y00308400D01*
G01X00293400Y00308400D02*
X00295200Y00308400D01*
G01X00283400Y00308200D02*
X00288400Y00308200D01*
G01X00289600Y00308200D02*
X00291200Y00308200D01*
G01X00291600Y00308200D02*
X00292200Y00308200D01*
G01X00293200Y00308200D02*
X00295200Y00308200D01*
G01X00283400Y00308000D02*
X00288400Y00308000D01*
G01X00289600Y00308000D02*
X00291200Y00308000D01*
G01X00291600Y00308000D02*
X00295200Y00308000D01*
G01X00283400Y00307800D02*
X00288400Y00307800D01*
G01X00289600Y00307800D02*
X00291200Y00307800D01*
G01X00291600Y00307800D02*
X00295200Y00307800D01*
G01X00283400Y00307600D02*
X00288400Y00307600D01*
G01X00289600Y00307600D02*
X00291200Y00307600D01*
G01X00291600Y00307600D02*
X00295000Y00307600D01*
G01X00283400Y00307400D02*
X00288400Y00307400D01*
G01X00289600Y00307400D02*
X00291200Y00307400D01*
G01X00291800Y00307400D02*
X00295000Y00307400D01*
G01X00283400Y00307200D02*
X00288400Y00307200D01*
G01X00289600Y00307200D02*
X00291200Y00307200D01*
G01X00291800Y00307200D02*
X00294800Y00307200D01*
G01X00283400Y00307000D02*
X00285000Y00307000D01*
G01X00286800Y00307000D02*
X00288400Y00307000D01*
G01X00289600Y00307000D02*
X00291200Y00307000D01*
G01X00291800Y00307000D02*
X00294600Y00307000D01*
G01X00283400Y00306800D02*
X00285000Y00306800D01*
G01X00286800Y00306800D02*
X00288400Y00306800D01*
G01X00289600Y00306800D02*
X00291200Y00306800D01*
G01X00291800Y00306800D02*
X00294000Y00306800D01*
G01X00283400Y00306600D02*
X00285000Y00306600D01*
G01X00286800Y00306600D02*
X00288400Y00306600D01*
G01X00289600Y00306600D02*
X00291200Y00306600D01*
G01X00283400Y00306400D02*
X00285000Y00306400D01*
G01X00289600Y00306400D02*
X00291200Y00306400D01*
G01X00289600Y00306200D02*
X00291200Y00306200D01*
G01X00289600Y00306000D02*
X00291200Y00306000D01*
G01X00289600Y00305800D02*
X00291200Y00305800D01*
G01X00289600Y00305600D02*
X00291200Y00305600D01*
G01X00289600Y00305400D02*
X00291200Y00305400D01*
G01X00289600Y00305200D02*
X00291200Y00305200D01*
G01X00285200Y00337600D02*
X00287800Y00337600D01*
G01X00277200Y00337400D02*
X00279600Y00337400D01*
G01X00284400Y00337400D02*
X00288600Y00337400D01*
G01X00298000Y00337400D02*
X00304600Y00337400D01*
G01X00277200Y00337200D02*
X00279600Y00337200D01*
G01X00284000Y00337200D02*
X00289200Y00337200D01*
G01X00298000Y00337200D02*
X00305200Y00337200D01*
G01X00277200Y00337000D02*
X00279600Y00337000D01*
G01X00283600Y00337000D02*
X00289600Y00337000D01*
G01X00298000Y00337000D02*
X00305600Y00337000D01*
G01X00277200Y00336800D02*
X00279600Y00336800D01*
G01X00283200Y00336800D02*
X00290000Y00336800D01*
G01X00298000Y00336800D02*
X00306000Y00336800D01*
G01X00277200Y00336600D02*
X00279600Y00336600D01*
G01X00283000Y00336600D02*
X00290200Y00336600D01*
G01X00298000Y00336600D02*
X00306200Y00336600D01*
G01X00277200Y00336400D02*
X00279600Y00336400D01*
G01X00282800Y00336400D02*
X00290400Y00336400D01*
G01X00298000Y00336400D02*
X00306400Y00336400D01*
G01X00277200Y00336200D02*
X00279600Y00336200D01*
G01X00282600Y00336200D02*
X00290600Y00336200D01*
G01X00298000Y00336200D02*
X00306600Y00336200D01*
G01X00277200Y00336000D02*
X00279600Y00336000D01*
G01X00282400Y00336000D02*
X00290600Y00336000D01*
G01X00298000Y00336000D02*
X00306800Y00336000D01*
G01X00277200Y00335800D02*
X00279600Y00335800D01*
G01X00282400Y00335800D02*
X00290400Y00335800D01*
G01X00298000Y00335800D02*
X00306800Y00335800D01*
G01X00277200Y00335600D02*
X00279600Y00335600D01*
G01X00282200Y00335600D02*
X00290200Y00335600D01*
G01X00298000Y00335600D02*
X00307000Y00335600D01*
G01X00277200Y00335400D02*
X00279600Y00335400D01*
G01X00282200Y00335400D02*
X00290000Y00335400D01*
G01X00298000Y00335400D02*
X00307200Y00335400D01*
G01X00277200Y00335200D02*
X00279600Y00335200D01*
G01X00282000Y00335200D02*
X00285600Y00335200D01*
G01X00287400Y00335200D02*
X00289800Y00335200D01*
G01X00298000Y00335200D02*
X00307200Y00335200D01*
G01X00277200Y00335000D02*
X00279600Y00335000D01*
G01X00282000Y00335000D02*
X00285200Y00335000D01*
G01X00288000Y00335000D02*
X00289600Y00335000D01*
G01X00298000Y00335000D02*
X00300800Y00335000D01*
G01X00277200Y00334800D02*
X00279600Y00334800D01*
G01X00282000Y00334800D02*
X00285000Y00334800D01*
G01X00288400Y00334800D02*
X00289400Y00334800D01*
G01X00298000Y00334800D02*
X00300800Y00334800D01*
G01X00277200Y00334600D02*
X00279600Y00334600D01*
G01X00282000Y00334600D02*
X00284800Y00334600D01*
G01X00288600Y00334600D02*
X00289200Y00334600D01*
G01X00298000Y00334600D02*
X00300800Y00334600D01*
G01X00277200Y00334400D02*
X00279600Y00334400D01*
G01X00281800Y00334400D02*
X00284600Y00334400D01*
G01X00298000Y00334400D02*
X00300800Y00334400D01*
G01X00277200Y00334200D02*
X00279600Y00334200D01*
G01X00281800Y00334200D02*
X00284600Y00334200D01*
G01X00298000Y00334200D02*
X00300800Y00334200D01*
G01X00277200Y00334000D02*
X00279600Y00334000D01*
G01X00281800Y00334000D02*
X00284400Y00334000D01*
G01X00298000Y00334000D02*
X00300800Y00334000D01*
G01X00277200Y00333800D02*
X00279600Y00333800D01*
G01X00281800Y00333800D02*
X00284400Y00333800D01*
G01X00298000Y00333800D02*
X00300800Y00333800D01*
G01X00277200Y00333600D02*
X00279600Y00333600D01*
G01X00281800Y00333600D02*
X00284400Y00333600D01*
G01X00298000Y00333600D02*
X00300800Y00333600D01*
G01X00281800Y00333400D02*
X00284600Y00333400D01*
G01X00298000Y00333400D02*
X00300800Y00333400D01*
G01X00281800Y00333200D02*
X00284600Y00333200D01*
G01X00298000Y00333200D02*
X00300800Y00333200D01*
G01X00281800Y00333000D02*
X00284800Y00333000D01*
G01X00298000Y00333000D02*
X00300800Y00333000D01*
G01X00281800Y00332800D02*
X00285000Y00332800D01*
G01X00298000Y00332800D02*
X00300800Y00332800D01*
G01X00282000Y00332600D02*
X00285400Y00332600D01*
G01X00298000Y00332600D02*
X00300800Y00332600D01*
G01X00282000Y00332400D02*
X00286400Y00332400D01*
G01X00298000Y00332400D02*
X00300800Y00332400D01*
G01X00282000Y00332200D02*
X00287800Y00332200D01*
G01X00298000Y00332200D02*
X00300800Y00332200D01*
G01X00282200Y00332000D02*
X00288600Y00332000D01*
G01X00298000Y00332000D02*
X00300800Y00332000D01*
G01X00282200Y00331800D02*
X00289200Y00331800D01*
G01X00298000Y00331800D02*
X00307200Y00331800D01*
G01X00282400Y00331600D02*
X00289600Y00331600D01*
G01X00298000Y00331600D02*
X00307000Y00331600D01*
G01X00282400Y00331400D02*
X00289800Y00331400D01*
G01X00298000Y00331400D02*
X00307000Y00331400D01*
G01X00282600Y00331200D02*
X00290000Y00331200D01*
G01X00298000Y00331200D02*
X00306800Y00331200D01*
G01X00282800Y00331000D02*
X00290200Y00331000D01*
G01X00298000Y00331000D02*
X00306600Y00331000D01*
G01X00283000Y00330800D02*
X00290400Y00330800D01*
G01X00298000Y00330800D02*
X00306400Y00330800D01*
G01X00283400Y00330600D02*
X00290400Y00330600D01*
G01X00298000Y00330600D02*
X00306200Y00330600D01*
G01X00283800Y00330400D02*
X00290600Y00330400D01*
G01X00298000Y00330400D02*
X00305800Y00330400D01*
G01X00284200Y00330200D02*
X00290600Y00330200D01*
G01X00298000Y00330200D02*
X00305400Y00330200D01*
G01X00285200Y00330000D02*
X00290800Y00330000D01*
G01X00298000Y00330000D02*
X00305200Y00330000D01*
G01X00286600Y00329800D02*
X00290800Y00329800D01*
G01X00298000Y00329800D02*
X00305400Y00329800D01*
G01X00287400Y00329600D02*
X00290800Y00329600D01*
G01X00298000Y00329600D02*
X00300800Y00329600D01*
G01X00287800Y00329400D02*
X00291000Y00329400D01*
G01X00298000Y00329400D02*
X00300800Y00329400D01*
G01X00288000Y00329200D02*
X00291000Y00329200D01*
G01X00298000Y00329200D02*
X00300800Y00329200D01*
G01X00288200Y00329000D02*
X00291000Y00329000D01*
G01X00298000Y00329000D02*
X00300800Y00329000D01*
G01X00288200Y00328800D02*
X00291000Y00328800D01*
G01X00298000Y00328800D02*
X00300800Y00328800D01*
G01X00288200Y00328600D02*
X00291000Y00328600D01*
G01X00298000Y00328600D02*
X00300800Y00328600D01*
G01X00288400Y00328400D02*
X00291000Y00328400D01*
G01X00298000Y00328400D02*
X00300800Y00328400D01*
G01X00288400Y00328200D02*
X00291000Y00328200D01*
G01X00298000Y00328200D02*
X00300800Y00328200D01*
G01X00288200Y00328000D02*
X00291000Y00328000D01*
G01X00298000Y00328000D02*
X00300800Y00328000D01*
G01X00282800Y00327800D02*
X00283200Y00327800D01*
G01X00288200Y00327800D02*
X00291000Y00327800D01*
G01X00298000Y00327800D02*
X00300800Y00327800D01*
G01X00282600Y00327600D02*
X00283600Y00327600D01*
G01X00288200Y00327600D02*
X00291000Y00327600D01*
G01X00298000Y00327600D02*
X00300800Y00327600D01*
G01X00282400Y00327400D02*
X00283800Y00327400D01*
G01X00288000Y00327400D02*
X00290800Y00327400D01*
G01X00298000Y00327400D02*
X00300800Y00327400D01*
G01X00282200Y00327200D02*
X00284200Y00327200D01*
G01X00287600Y00327200D02*
X00290800Y00327200D01*
G01X00298000Y00327200D02*
X00300800Y00327200D01*
G01X00282000Y00327000D02*
X00284800Y00327000D01*
G01X00287200Y00327000D02*
X00290800Y00327000D01*
G01X00298000Y00327000D02*
X00300800Y00327000D01*
G01X00281800Y00326800D02*
X00290800Y00326800D01*
G01X00298000Y00326800D02*
X00300800Y00326800D01*
G01X00303800Y00326600D02*
X00307000Y00326600D01*
G01X00309600Y00326600D02*
X00312400Y00326600D01*
G01X00316800Y00326600D02*
X00319800Y00326600D01*
G01X00322200Y00326600D02*
X00324800Y00326600D01*
G01X00304000Y00326400D02*
X00307200Y00326400D01*
G01X00309400Y00326400D02*
X00312400Y00326400D01*
G01X00317000Y00326400D02*
X00319800Y00326400D01*
G01X00322200Y00326400D02*
X00324800Y00326400D01*
G01X00304000Y00326200D02*
X00307200Y00326200D01*
G01X00309400Y00326200D02*
X00312200Y00326200D01*
G01X00317000Y00326200D02*
X00319800Y00326200D01*
G01X00322200Y00326200D02*
X00324800Y00326200D01*
G01X00304200Y00326000D02*
X00307400Y00326000D01*
G01X00309400Y00326000D02*
X00312200Y00326000D01*
G01X00317200Y00326000D02*
X00320000Y00326000D01*
G01X00322200Y00326000D02*
X00324800Y00326000D01*
G01X00304200Y00325800D02*
X00307400Y00325800D01*
G01X00309200Y00325800D02*
X00312200Y00325800D01*
G01X00317200Y00325800D02*
X00320000Y00325800D01*
G01X00322200Y00325800D02*
X00324800Y00325800D01*
G01X00304400Y00325600D02*
X00307600Y00325600D01*
G01X00309200Y00325600D02*
X00312000Y00325600D01*
G01X00317200Y00325600D02*
X00320000Y00325600D01*
G01X00322200Y00325600D02*
X00324800Y00325600D01*
G01X00304400Y00325400D02*
X00307600Y00325400D01*
G01X00309200Y00325400D02*
X00312000Y00325400D01*
G01X00317400Y00325400D02*
X00320200Y00325400D01*
G01X00322200Y00325400D02*
X00324800Y00325400D01*
G01X00304600Y00325200D02*
X00307800Y00325200D01*
G01X00309000Y00325200D02*
X00312000Y00325200D01*
G01X00317400Y00325200D02*
X00320200Y00325200D01*
G01X00322200Y00325200D02*
X00324800Y00325200D01*
G01X00304600Y00325000D02*
X00307800Y00325000D01*
G01X00309000Y00325000D02*
X00311800Y00325000D01*
G01X00317400Y00325000D02*
X00320400Y00325000D01*
G01X00322200Y00325000D02*
X00324800Y00325000D01*
G01X00304800Y00324800D02*
X00308000Y00324800D01*
G01X00308800Y00324800D02*
X00311800Y00324800D01*
G01X00317600Y00324800D02*
X00320400Y00324800D01*
G01X00322200Y00324800D02*
X00324800Y00324800D01*
G01X00304800Y00324600D02*
X00308000Y00324600D01*
G01X00308800Y00324600D02*
X00311800Y00324600D01*
G01X00317600Y00324600D02*
X00320400Y00324600D01*
G01X00322200Y00324600D02*
X00324800Y00324600D01*
G01X00310600Y00319000D02*
X00312200Y00319000D01*
G01X00310400Y00318800D02*
X00312600Y00318800D01*
G01X00310400Y00318600D02*
X00312600Y00318600D01*
G01X00310200Y00318400D02*
X00312400Y00318400D01*
G01X00310000Y00318200D02*
X00312600Y00318200D01*
G01X00309800Y00318000D02*
X00312800Y00318000D01*
G01X00309600Y00317800D02*
X00312800Y00317800D01*
G01X00309600Y00317600D02*
X00313000Y00317600D01*
G01X00309400Y00317400D02*
X00313200Y00317400D01*
G01X00309200Y00317200D02*
X00313400Y00317200D01*
G01X00308800Y00317000D02*
X00313800Y00317000D01*
G01X00308600Y00316800D02*
X00311200Y00316800D01*
G01X00311400Y00316800D02*
X00314000Y00316800D01*
G01X00308400Y00316600D02*
X00311000Y00316600D01*
G01X00311600Y00316600D02*
X00314200Y00316600D01*
G01X00326600Y00316600D02*
X00328800Y00316600D01*
G01X00308200Y00316400D02*
X00310800Y00316400D01*
G01X00311800Y00316400D02*
X00314400Y00316400D01*
G01X00326400Y00316400D02*
X00328800Y00316400D01*
G01X00308000Y00316200D02*
X00310600Y00316200D01*
G01X00312000Y00316200D02*
X00314800Y00316200D01*
G01X00326200Y00316200D02*
X00328600Y00316200D01*
G01X00307600Y00316000D02*
X00310400Y00316000D01*
G01X00312200Y00316000D02*
X00315000Y00316000D01*
G01X00326200Y00316000D02*
X00328400Y00316000D01*
G01X00307400Y00315800D02*
X00310200Y00315800D01*
G01X00312400Y00315800D02*
X00315400Y00315800D01*
G01X00326400Y00315800D02*
X00328200Y00315800D01*
G01X00307000Y00315600D02*
X00310000Y00315600D01*
G01X00312600Y00315600D02*
X00315600Y00315600D01*
G01X00326600Y00315600D02*
X00328000Y00315600D01*
G01X00306800Y00315400D02*
X00309800Y00315400D01*
G01X00312800Y00315400D02*
X00316000Y00315400D01*
G01X00306400Y00315200D02*
X00309600Y00315200D01*
G01X00313000Y00315200D02*
X00316400Y00315200D01*
G01X00306000Y00315000D02*
X00309400Y00315000D01*
G01X00313400Y00315000D02*
X00316800Y00315000D01*
G01X00305800Y00314800D02*
X00309000Y00314800D01*
G01X00313600Y00314800D02*
X00317200Y00314800D01*
G01X00305400Y00314600D02*
X00308800Y00314600D01*
G01X00313800Y00314600D02*
X00317800Y00314600D01*
G01X00305000Y00314400D02*
X00308600Y00314400D01*
G01X00314200Y00314400D02*
X00318200Y00314400D01*
G01X00304400Y00314200D02*
X00308200Y00314200D01*
G01X00314400Y00314200D02*
X00318200Y00314200D01*
G01X00304200Y00314000D02*
X00308000Y00314000D01*
G01X00312800Y00314000D02*
X00314600Y00314000D01*
G01X00314800Y00314000D02*
X00318200Y00314000D01*
G01X00304200Y00313800D02*
X00309400Y00313800D01*
G01X00312800Y00313800D02*
X00314600Y00313800D01*
G01X00315000Y00313800D02*
X00318000Y00313800D01*
G01X00304400Y00313600D02*
X00307400Y00313600D01*
G01X00307600Y00313600D02*
X00309400Y00313600D01*
G01X00312800Y00313600D02*
X00314600Y00313600D01*
G01X00315400Y00313600D02*
X00318000Y00313600D01*
G01X00304600Y00313400D02*
X00307000Y00313400D01*
G01X00307600Y00313400D02*
X00309400Y00313400D01*
G01X00312800Y00313400D02*
X00314600Y00313400D01*
G01X00315800Y00313400D02*
X00317800Y00313400D01*
G01X00304600Y00313200D02*
X00306600Y00313200D01*
G01X00307600Y00313200D02*
X00309400Y00313200D01*
G01X00312800Y00313200D02*
X00314600Y00313200D01*
G01X00316200Y00313200D02*
X00317800Y00313200D01*
G01X00304800Y00313000D02*
X00306200Y00313000D01*
G01X00307600Y00313000D02*
X00309400Y00313000D01*
G01X00312800Y00313000D02*
X00314600Y00313000D01*
G01X00316600Y00313000D02*
X00317600Y00313000D01*
G01X00305000Y00312800D02*
X00305800Y00312800D01*
G01X00307600Y00312800D02*
X00309400Y00312800D01*
G01X00312800Y00312800D02*
X00314600Y00312800D01*
G01X00317000Y00312800D02*
X00317600Y00312800D01*
G01X00305000Y00312600D02*
X00305400Y00312600D01*
G01X00307600Y00312600D02*
X00309400Y00312600D01*
G01X00312800Y00312600D02*
X00314600Y00312600D01*
G01X00307600Y00312400D02*
X00309400Y00312400D01*
G01X00312800Y00312400D02*
X00314600Y00312400D01*
G01X00307400Y00312200D02*
X00309200Y00312200D01*
G01X00312800Y00312200D02*
X00314600Y00312200D01*
G01X00307400Y00312000D02*
X00309200Y00312000D01*
G01X00312800Y00312000D02*
X00314600Y00312000D01*
G01X00307400Y00311800D02*
X00309600Y00311800D01*
G01X00312800Y00311800D02*
X00314800Y00311800D01*
G01X00307400Y00311600D02*
X00309800Y00311600D01*
G01X00312800Y00311600D02*
X00314800Y00311600D01*
G01X00307400Y00311400D02*
X00310000Y00311400D01*
G01X00312600Y00311400D02*
X00314800Y00311400D01*
G01X00307400Y00311200D02*
X00310200Y00311200D01*
G01X00312600Y00311200D02*
X00314800Y00311200D01*
G01X00326400Y00311200D02*
X00340200Y00311200D01*
G01X00307400Y00311000D02*
X00310400Y00311000D01*
G01X00312600Y00311000D02*
X00315000Y00311000D01*
G01X00326400Y00311000D02*
X00340200Y00311000D01*
G01X00307200Y00310800D02*
X00310800Y00310800D01*
G01X00312600Y00310800D02*
X00315000Y00310800D01*
G01X00326400Y00310800D02*
X00340200Y00310800D01*
G01X00307200Y00310600D02*
X00311000Y00310600D01*
G01X00312600Y00310600D02*
X00315000Y00310600D01*
G01X00326400Y00310600D02*
X00340200Y00310600D01*
G01X00307200Y00310400D02*
X00311200Y00310400D01*
G01X00312400Y00310400D02*
X00315200Y00310400D01*
G01X00326400Y00310400D02*
X00340200Y00310400D01*
G01X00307000Y00310200D02*
X00311400Y00310200D01*
G01X00312400Y00310200D02*
X00315200Y00310200D01*
G01X00326400Y00310200D02*
X00340200Y00310200D01*
G01X00307000Y00310000D02*
X00311600Y00310000D01*
G01X00312200Y00310000D02*
X00315400Y00310000D01*
G01X00307000Y00309800D02*
X00308800Y00309800D01*
G01X00309200Y00309800D02*
X00311800Y00309800D01*
G01X00312200Y00309800D02*
X00315400Y00309800D01*
G01X00306800Y00309600D02*
X00308800Y00309600D01*
G01X00309400Y00309600D02*
X00311800Y00309600D01*
G01X00312200Y00309600D02*
X00315600Y00309600D01*
G01X00306800Y00309400D02*
X00308800Y00309400D01*
G01X00309600Y00309400D02*
X00311600Y00309400D01*
G01X00312000Y00309400D02*
X00315600Y00309400D01*
G01X00306600Y00309200D02*
X00308600Y00309200D01*
G01X00309800Y00309200D02*
X00311400Y00309200D01*
G01X00311800Y00309200D02*
X00313800Y00309200D01*
G01X00314000Y00309200D02*
X00315800Y00309200D01*
G01X00306600Y00309000D02*
X00308600Y00309000D01*
G01X00310000Y00309000D02*
X00311200Y00309000D01*
G01X00311800Y00309000D02*
X00313800Y00309000D01*
G01X00314000Y00309000D02*
X00316000Y00309000D01*
G01X00306400Y00308800D02*
X00308400Y00308800D01*
G01X00310200Y00308800D02*
X00311000Y00308800D01*
G01X00311600Y00308800D02*
X00313600Y00308800D01*
G01X00314000Y00308800D02*
X00316200Y00308800D01*
G01X00306200Y00308600D02*
X00308400Y00308600D01*
G01X00310400Y00308600D02*
X00311000Y00308600D01*
G01X00311400Y00308600D02*
X00313600Y00308600D01*
G01X00314200Y00308600D02*
X00316200Y00308600D01*
G01X00306000Y00308400D02*
X00308200Y00308400D01*
G01X00311400Y00308400D02*
X00313400Y00308400D01*
G01X00314200Y00308400D02*
X00316400Y00308400D01*
G01X00306000Y00308200D02*
X00308200Y00308200D01*
G01X00311200Y00308200D02*
X00313400Y00308200D01*
G01X00314400Y00308200D02*
X00316600Y00308200D01*
G01X00305800Y00308000D02*
X00308000Y00308000D01*
G01X00311000Y00308000D02*
X00313200Y00308000D01*
G01X00314400Y00308000D02*
X00316800Y00308000D01*
G01X00305600Y00307800D02*
X00308000Y00307800D01*
G01X00310800Y00307800D02*
X00313200Y00307800D01*
G01X00314600Y00307800D02*
X00317000Y00307800D01*
G01X00305400Y00307600D02*
X00307800Y00307600D01*
G01X00310600Y00307600D02*
X00313000Y00307600D01*
G01X00314800Y00307600D02*
X00317200Y00307600D01*
G01X00326600Y00307600D02*
X00329400Y00307600D01*
G01X00305200Y00307400D02*
X00307600Y00307400D01*
G01X00310400Y00307400D02*
X00312800Y00307400D01*
G01X00314800Y00307400D02*
X00317400Y00307400D01*
G01X00326200Y00307400D02*
X00329200Y00307400D01*
G01X00305000Y00307200D02*
X00307600Y00307200D01*
G01X00310000Y00307200D02*
X00312800Y00307200D01*
G01X00315000Y00307200D02*
X00317800Y00307200D01*
G01X00326200Y00307200D02*
X00328800Y00307200D01*
G01X00304600Y00307000D02*
X00307400Y00307000D01*
G01X00309800Y00307000D02*
X00312600Y00307000D01*
G01X00315200Y00307000D02*
X00318000Y00307000D01*
G01X00326400Y00307000D02*
X00328600Y00307000D01*
G01X00304400Y00306800D02*
X00307200Y00306800D01*
G01X00309600Y00306800D02*
X00312400Y00306800D01*
G01X00315400Y00306800D02*
X00318400Y00306800D01*
G01X00326400Y00306800D02*
X00328200Y00306800D01*
G01X00304200Y00306600D02*
X00307000Y00306600D01*
G01X00309200Y00306600D02*
X00312200Y00306600D01*
G01X00315600Y00306600D02*
X00318400Y00306600D01*
G01X00326600Y00306600D02*
X00328000Y00306600D01*
G01X00304200Y00306400D02*
X00306800Y00306400D01*
G01X00309200Y00306400D02*
X00312000Y00306400D01*
G01X00315800Y00306400D02*
X00318200Y00306400D01*
G01X00326600Y00306400D02*
X00327600Y00306400D01*
G01X00304400Y00306200D02*
X00306600Y00306200D01*
G01X00309200Y00306200D02*
X00311800Y00306200D01*
G01X00316000Y00306200D02*
X00318000Y00306200D01*
G01X00304600Y00306000D02*
X00306400Y00306000D01*
G01X00309400Y00306000D02*
X00311600Y00306000D01*
G01X00316200Y00306000D02*
X00317800Y00306000D01*
G01X00304800Y00305800D02*
X00306200Y00305800D01*
G01X00309600Y00305800D02*
X00311400Y00305800D01*
G01X00316400Y00305800D02*
X00317600Y00305800D01*
G01X00305000Y00305600D02*
X00306000Y00305600D01*
G01X00309800Y00305600D02*
X00311000Y00305600D01*
G01X00316600Y00305600D02*
X00317400Y00305600D01*
G01X00305200Y00305400D02*
X00305600Y00305400D01*
G01X00310000Y00305400D02*
X00310800Y00305400D01*
G01X00316800Y00305400D02*
X00317200Y00305400D01*
G01X00310200Y00305200D02*
X00310600Y00305200D01*
G01X00313400Y00337400D02*
X00315800Y00337400D01*
G01X00322200Y00337400D02*
X00324800Y00337400D01*
G01X00313400Y00337200D02*
X00315800Y00337200D01*
G01X00322200Y00337200D02*
X00324800Y00337200D01*
G01X00313400Y00337000D02*
X00316000Y00337000D01*
G01X00322200Y00337000D02*
X00324800Y00337000D01*
G01X00313200Y00336800D02*
X00316000Y00336800D01*
G01X00322200Y00336800D02*
X00324800Y00336800D01*
G01X00313200Y00336600D02*
X00316000Y00336600D01*
G01X00322200Y00336600D02*
X00324800Y00336600D01*
G01X00313200Y00336400D02*
X00316200Y00336400D01*
G01X00322200Y00336400D02*
X00324800Y00336400D01*
G01X00313000Y00336200D02*
X00316200Y00336200D01*
G01X00322200Y00336200D02*
X00324800Y00336200D01*
G01X00313000Y00336000D02*
X00316200Y00336000D01*
G01X00322200Y00336000D02*
X00324800Y00336000D01*
G01X00313000Y00335800D02*
X00316400Y00335800D01*
G01X00322200Y00335800D02*
X00324800Y00335800D01*
G01X00312800Y00335600D02*
X00316400Y00335600D01*
G01X00322200Y00335600D02*
X00324800Y00335600D01*
G01X00312800Y00335400D02*
X00316600Y00335400D01*
G01X00322200Y00335400D02*
X00324800Y00335400D01*
G01X00312600Y00335200D02*
X00316600Y00335200D01*
G01X00322200Y00335200D02*
X00324800Y00335200D01*
G01X00303800Y00335000D02*
X00307200Y00335000D01*
G01X00312600Y00335000D02*
X00316600Y00335000D01*
G01X00322200Y00335000D02*
X00324800Y00335000D01*
G01X00304200Y00334800D02*
X00307400Y00334800D01*
G01X00312600Y00334800D02*
X00316800Y00334800D01*
G01X00322200Y00334800D02*
X00324800Y00334800D01*
G01X00304400Y00334600D02*
X00307400Y00334600D01*
G01X00312400Y00334600D02*
X00316800Y00334600D01*
G01X00322200Y00334600D02*
X00324800Y00334600D01*
G01X00304600Y00334400D02*
X00307400Y00334400D01*
G01X00312400Y00334400D02*
X00316800Y00334400D01*
G01X00322200Y00334400D02*
X00324800Y00334400D01*
G01X00304600Y00334200D02*
X00307400Y00334200D01*
G01X00312400Y00334200D02*
X00317000Y00334200D01*
G01X00322200Y00334200D02*
X00324800Y00334200D01*
G01X00304800Y00334000D02*
X00307400Y00334000D01*
G01X00312200Y00334000D02*
X00317000Y00334000D01*
G01X00322200Y00334000D02*
X00324800Y00334000D01*
G01X00304800Y00333800D02*
X00307600Y00333800D01*
G01X00312200Y00333800D02*
X00317000Y00333800D01*
G01X00322200Y00333800D02*
X00324800Y00333800D01*
G01X00304800Y00333600D02*
X00307600Y00333600D01*
G01X00312200Y00333600D02*
X00317200Y00333600D01*
G01X00322200Y00333600D02*
X00324800Y00333600D01*
G01X00304800Y00333400D02*
X00307600Y00333400D01*
G01X00312000Y00333400D02*
X00317200Y00333400D01*
G01X00322200Y00333400D02*
X00324800Y00333400D01*
G01X00304800Y00333200D02*
X00307400Y00333200D01*
G01X00312000Y00333200D02*
X00314600Y00333200D01*
G01X00314800Y00333200D02*
X00317400Y00333200D01*
G01X00322200Y00333200D02*
X00324800Y00333200D01*
G01X00304600Y00333000D02*
X00307400Y00333000D01*
G01X00311800Y00333000D02*
X00314600Y00333000D01*
G01X00314800Y00333000D02*
X00317400Y00333000D01*
G01X00322200Y00333000D02*
X00324800Y00333000D01*
G01X00304600Y00332800D02*
X00307400Y00332800D01*
G01X00311800Y00332800D02*
X00314600Y00332800D01*
G01X00314800Y00332800D02*
X00317400Y00332800D01*
G01X00322200Y00332800D02*
X00324800Y00332800D01*
G01X00304400Y00332600D02*
X00307400Y00332600D01*
G01X00311800Y00332600D02*
X00314400Y00332600D01*
G01X00315000Y00332600D02*
X00317600Y00332600D01*
G01X00322200Y00332600D02*
X00324800Y00332600D01*
G01X00304200Y00332400D02*
X00307400Y00332400D01*
G01X00311600Y00332400D02*
X00314400Y00332400D01*
G01X00315000Y00332400D02*
X00317600Y00332400D01*
G01X00322200Y00332400D02*
X00324800Y00332400D01*
G01X00304000Y00332200D02*
X00307400Y00332200D01*
G01X00311600Y00332200D02*
X00314400Y00332200D01*
G01X00315000Y00332200D02*
X00317600Y00332200D01*
G01X00322200Y00332200D02*
X00324800Y00332200D01*
G01X00303600Y00332000D02*
X00307200Y00332000D01*
G01X00311600Y00332000D02*
X00314200Y00332000D01*
G01X00315200Y00332000D02*
X00317800Y00332000D01*
G01X00322200Y00332000D02*
X00324800Y00332000D01*
G01X00311400Y00331800D02*
X00314200Y00331800D01*
G01X00315200Y00331800D02*
X00317800Y00331800D01*
G01X00322200Y00331800D02*
X00324800Y00331800D01*
G01X00311400Y00331600D02*
X00314200Y00331600D01*
G01X00315200Y00331600D02*
X00318000Y00331600D01*
G01X00322200Y00331600D02*
X00324800Y00331600D01*
G01X00311400Y00331400D02*
X00314000Y00331400D01*
G01X00315400Y00331400D02*
X00318000Y00331400D01*
G01X00322200Y00331400D02*
X00324800Y00331400D01*
G01X00311200Y00331200D02*
X00314000Y00331200D01*
G01X00315400Y00331200D02*
X00318000Y00331200D01*
G01X00322200Y00331200D02*
X00324800Y00331200D01*
G01X00311200Y00331000D02*
X00314000Y00331000D01*
G01X00315400Y00331000D02*
X00318200Y00331000D01*
G01X00322200Y00331000D02*
X00324800Y00331000D01*
G01X00311000Y00330800D02*
X00313800Y00330800D01*
G01X00315600Y00330800D02*
X00318200Y00330800D01*
G01X00322200Y00330800D02*
X00324800Y00330800D01*
G01X00311000Y00330600D02*
X00313800Y00330600D01*
G01X00315600Y00330600D02*
X00318200Y00330600D01*
G01X00322200Y00330600D02*
X00324800Y00330600D01*
G01X00311000Y00330400D02*
X00313600Y00330400D01*
G01X00315600Y00330400D02*
X00318400Y00330400D01*
G01X00322200Y00330400D02*
X00324800Y00330400D01*
G01X00310800Y00330200D02*
X00313600Y00330200D01*
G01X00315800Y00330200D02*
X00318400Y00330200D01*
G01X00322200Y00330200D02*
X00324800Y00330200D01*
G01X00310800Y00330000D02*
X00313600Y00330000D01*
G01X00315800Y00330000D02*
X00318400Y00330000D01*
G01X00322200Y00330000D02*
X00324800Y00330000D01*
G01X00310800Y00329800D02*
X00313400Y00329800D01*
G01X00315800Y00329800D02*
X00318600Y00329800D01*
G01X00322200Y00329800D02*
X00324800Y00329800D01*
G01X00302400Y00329600D02*
X00305400Y00329600D01*
G01X00310600Y00329600D02*
X00313400Y00329600D01*
G01X00316000Y00329600D02*
X00318600Y00329600D01*
G01X00322200Y00329600D02*
X00324800Y00329600D01*
G01X00302600Y00329400D02*
X00305600Y00329400D01*
G01X00310600Y00329400D02*
X00313400Y00329400D01*
G01X00316000Y00329400D02*
X00318800Y00329400D01*
G01X00322200Y00329400D02*
X00324800Y00329400D01*
G01X00302600Y00329200D02*
X00305800Y00329200D01*
G01X00310600Y00329200D02*
X00313200Y00329200D01*
G01X00316000Y00329200D02*
X00318800Y00329200D01*
G01X00322200Y00329200D02*
X00324800Y00329200D01*
G01X00302800Y00329000D02*
X00305800Y00329000D01*
G01X00310400Y00329000D02*
X00318800Y00329000D01*
G01X00322200Y00329000D02*
X00324800Y00329000D01*
G01X00302800Y00328800D02*
X00306000Y00328800D01*
G01X00310400Y00328800D02*
X00319000Y00328800D01*
G01X00322200Y00328800D02*
X00324800Y00328800D01*
G01X00303000Y00328600D02*
X00306000Y00328600D01*
G01X00310200Y00328600D02*
X00319000Y00328600D01*
G01X00322200Y00328600D02*
X00324800Y00328600D01*
G01X00303000Y00328400D02*
X00306200Y00328400D01*
G01X00310200Y00328400D02*
X00319000Y00328400D01*
G01X00322200Y00328400D02*
X00324800Y00328400D01*
G01X00303200Y00328200D02*
X00306200Y00328200D01*
G01X00310200Y00328200D02*
X00319200Y00328200D01*
G01X00322200Y00328200D02*
X00324800Y00328200D01*
G01X00303200Y00328000D02*
X00306400Y00328000D01*
G01X00310000Y00328000D02*
X00319200Y00328000D01*
G01X00322200Y00328000D02*
X00324800Y00328000D01*
G01X00303400Y00327800D02*
X00306400Y00327800D01*
G01X00310000Y00327800D02*
X00319200Y00327800D01*
G01X00322200Y00327800D02*
X00324800Y00327800D01*
G01X00303400Y00327600D02*
X00306600Y00327600D01*
G01X00310000Y00327600D02*
X00319400Y00327600D01*
G01X00322200Y00327600D02*
X00324800Y00327600D01*
G01X00303600Y00327400D02*
X00306600Y00327400D01*
G01X00309800Y00327400D02*
X00319400Y00327400D01*
G01X00322200Y00327400D02*
X00324800Y00327400D01*
G01X00303600Y00327200D02*
X00306800Y00327200D01*
G01X00309800Y00327200D02*
X00319600Y00327200D01*
G01X00322200Y00327200D02*
X00324800Y00327200D01*
G01X00303600Y00327000D02*
X00306800Y00327000D01*
G01X00309600Y00327000D02*
X00319600Y00327000D01*
G01X00322200Y00327000D02*
X00324800Y00327000D01*
G01X00303800Y00326800D02*
X00307000Y00326800D01*
G01X00309600Y00326800D02*
X00319600Y00326800D01*
G01X00322200Y00326800D02*
X00324800Y00326800D01*
G01X00327200Y00326600D02*
X00336200Y00326600D01*
G01X00339200Y00326600D02*
X00341800Y00326600D01*
G01X00345000Y00326600D02*
X00347600Y00326600D01*
G01X00351200Y00326600D02*
X00355000Y00326600D01*
G01X00327000Y00326400D02*
X00336000Y00326400D01*
G01X00339200Y00326400D02*
X00341800Y00326400D01*
G01X00345000Y00326400D02*
X00347600Y00326400D01*
G01X00351400Y00326400D02*
X00355000Y00326400D01*
G01X00326800Y00326200D02*
X00336000Y00326200D01*
G01X00339200Y00326200D02*
X00341800Y00326200D01*
G01X00345000Y00326200D02*
X00347600Y00326200D01*
G01X00351600Y00326200D02*
X00355000Y00326200D01*
G01X00327000Y00326000D02*
X00335800Y00326000D01*
G01X00339200Y00326000D02*
X00341800Y00326000D01*
G01X00345000Y00326000D02*
X00347600Y00326000D01*
G01X00351600Y00326000D02*
X00355000Y00326000D01*
G01X00327200Y00325800D02*
X00335600Y00325800D01*
G01X00339200Y00325800D02*
X00341800Y00325800D01*
G01X00345000Y00325800D02*
X00347600Y00325800D01*
G01X00351800Y00325800D02*
X00355000Y00325800D01*
G01X00327400Y00325600D02*
X00335400Y00325600D01*
G01X00339200Y00325600D02*
X00341800Y00325600D01*
G01X00345000Y00325600D02*
X00347600Y00325600D01*
G01X00351800Y00325600D02*
X00355000Y00325600D01*
G01X00327800Y00325400D02*
X00335200Y00325400D01*
G01X00339200Y00325400D02*
X00341800Y00325400D01*
G01X00345000Y00325400D02*
X00347600Y00325400D01*
G01X00352000Y00325400D02*
X00355000Y00325400D01*
G01X00328000Y00325200D02*
X00334800Y00325200D01*
G01X00339200Y00325200D02*
X00341800Y00325200D01*
G01X00345000Y00325200D02*
X00347600Y00325200D01*
G01X00352200Y00325200D02*
X00355000Y00325200D01*
G01X00328400Y00325000D02*
X00334600Y00325000D01*
G01X00339200Y00325000D02*
X00341800Y00325000D01*
G01X00345000Y00325000D02*
X00347600Y00325000D01*
G01X00352200Y00325000D02*
X00355000Y00325000D01*
G01X00328800Y00324800D02*
X00334000Y00324800D01*
G01X00339200Y00324800D02*
X00341800Y00324800D01*
G01X00345000Y00324800D02*
X00347600Y00324800D01*
G01X00352400Y00324800D02*
X00355000Y00324800D01*
G01X00329600Y00324600D02*
X00333400Y00324600D01*
G01X00339200Y00324600D02*
X00341800Y00324600D01*
G01X00345000Y00324600D02*
X00347600Y00324600D01*
G01X00352600Y00324600D02*
X00355000Y00324600D01*
G01X00331200Y00324400D02*
X00332000Y00324400D01*
G01X00328600Y00319000D02*
X00329800Y00319000D01*
G01X00334800Y00319000D02*
X00336000Y00319000D01*
G01X00328400Y00318800D02*
X00330200Y00318800D01*
G01X00334600Y00318800D02*
X00336400Y00318800D01*
G01X00328400Y00318600D02*
X00330200Y00318600D01*
G01X00334600Y00318600D02*
X00336400Y00318600D01*
G01X00328200Y00318400D02*
X00330200Y00318400D01*
G01X00334400Y00318400D02*
X00336400Y00318400D01*
G01X00328000Y00318200D02*
X00330000Y00318200D01*
G01X00334400Y00318200D02*
X00336200Y00318200D01*
G01X00328000Y00318000D02*
X00329800Y00318000D01*
G01X00334200Y00318000D02*
X00336200Y00318000D01*
G01X00327800Y00317800D02*
X00333400Y00317800D01*
G01X00334200Y00317800D02*
X00340200Y00317800D01*
G01X00327600Y00317600D02*
X00333400Y00317600D01*
G01X00334000Y00317600D02*
X00340200Y00317600D01*
G01X00327400Y00317400D02*
X00333400Y00317400D01*
G01X00334000Y00317400D02*
X00340200Y00317400D01*
G01X00327200Y00317200D02*
X00333400Y00317200D01*
G01X00333800Y00317200D02*
X00340200Y00317200D01*
G01X00327200Y00317000D02*
X00333400Y00317000D01*
G01X00333600Y00317000D02*
X00340200Y00317000D01*
G01X00326800Y00316800D02*
X00340200Y00316800D01*
G01X00329200Y00316600D02*
X00331000Y00316600D01*
G01X00333200Y00316600D02*
X00335400Y00316600D01*
G01X00336000Y00316600D02*
X00337800Y00316600D01*
G01X00329400Y00316400D02*
X00331200Y00316400D01*
G01X00333000Y00316400D02*
X00335200Y00316400D01*
G01X00336000Y00316400D02*
X00337800Y00316400D01*
G01X00329600Y00316200D02*
X00331400Y00316200D01*
G01X00333000Y00316200D02*
X00335000Y00316200D01*
G01X00336200Y00316200D02*
X00338000Y00316200D01*
G01X00329600Y00316000D02*
X00331400Y00316000D01*
G01X00333400Y00316000D02*
X00335000Y00316000D01*
G01X00336400Y00316000D02*
X00338200Y00316000D01*
G01X00329800Y00315800D02*
X00331600Y00315800D01*
G01X00332000Y00315800D02*
X00334800Y00315800D01*
G01X00336600Y00315800D02*
X00338200Y00315800D01*
G01X00330000Y00315600D02*
X00331200Y00315600D01*
G01X00332000Y00315600D02*
X00333800Y00315600D01*
G01X00334000Y00315600D02*
X00334600Y00315600D01*
G01X00336600Y00315600D02*
X00338000Y00315600D01*
G01X00326800Y00315400D02*
X00327800Y00315400D01*
G01X00330000Y00315400D02*
X00330400Y00315400D01*
G01X00332000Y00315400D02*
X00333600Y00315400D01*
G01X00334200Y00315400D02*
X00334400Y00315400D01*
G01X00336800Y00315400D02*
X00337200Y00315400D01*
G01X00327000Y00315200D02*
X00327600Y00315200D01*
G01X00332000Y00315200D02*
X00333600Y00315200D01*
G01X00326800Y00315000D02*
X00339800Y00315000D01*
G01X00326800Y00314800D02*
X00339800Y00314800D01*
G01X00326800Y00314600D02*
X00339800Y00314600D01*
G01X00326800Y00314400D02*
X00339800Y00314400D01*
G01X00326800Y00314200D02*
X00339800Y00314200D01*
G01X00326800Y00314000D02*
X00339800Y00314000D01*
G01X00331600Y00313800D02*
X00333200Y00313800D01*
G01X00331600Y00313600D02*
X00333200Y00313600D01*
G01X00331400Y00313400D02*
X00333200Y00313400D01*
G01X00327600Y00313200D02*
X00339000Y00313200D01*
G01X00327600Y00313000D02*
X00339000Y00313000D01*
G01X00327600Y00312800D02*
X00339000Y00312800D01*
G01X00327600Y00312600D02*
X00339000Y00312600D01*
G01X00327600Y00312400D02*
X00339000Y00312400D01*
G01X00327600Y00312200D02*
X00339000Y00312200D01*
G01X00327600Y00312000D02*
X00339000Y00312000D01*
G01X00330800Y00311800D02*
X00332600Y00311800D01*
G01X00330600Y00311600D02*
X00332600Y00311600D01*
G01X00330600Y00311400D02*
X00332400Y00311400D01*
G01X00329600Y00310000D02*
X00331600Y00310000D01*
G01X00336200Y00310000D02*
X00337800Y00310000D01*
G01X00329400Y00309800D02*
X00331400Y00309800D01*
G01X00336200Y00309800D02*
X00337800Y00309800D01*
G01X00329200Y00309600D02*
X00331400Y00309600D01*
G01X00336200Y00309600D02*
X00337800Y00309600D01*
G01X00329000Y00309400D02*
X00331200Y00309400D01*
G01X00336200Y00309400D02*
X00337800Y00309400D01*
G01X00328800Y00309200D02*
X00340200Y00309200D01*
G01X00328400Y00309000D02*
X00340200Y00309000D01*
G01X00328200Y00308800D02*
X00340200Y00308800D01*
G01X00328000Y00308600D02*
X00340200Y00308600D01*
G01X00327800Y00308400D02*
X00340200Y00308400D01*
G01X00327400Y00308200D02*
X00340200Y00308200D01*
G01X00327200Y00308000D02*
X00329800Y00308000D01*
G01X00330800Y00308000D02*
X00331600Y00308000D01*
G01X00336200Y00308000D02*
X00337800Y00308000D01*
G01X00326800Y00307800D02*
X00329600Y00307800D01*
G01X00330600Y00307800D02*
X00332000Y00307800D01*
G01X00336200Y00307800D02*
X00337800Y00307800D01*
G01X00330400Y00307600D02*
X00332400Y00307600D01*
G01X00336200Y00307600D02*
X00337800Y00307600D01*
G01X00330400Y00307400D02*
X00332600Y00307400D01*
G01X00336200Y00307400D02*
X00337800Y00307400D01*
G01X00330200Y00307200D02*
X00333000Y00307200D01*
G01X00336200Y00307200D02*
X00337800Y00307200D01*
G01X00330400Y00307000D02*
X00333400Y00307000D01*
G01X00336200Y00307000D02*
X00337800Y00307000D01*
G01X00330800Y00306800D02*
X00333400Y00306800D01*
G01X00336000Y00306800D02*
X00337800Y00306800D01*
G01X00331000Y00306600D02*
X00333200Y00306600D01*
G01X00333400Y00306600D02*
X00337800Y00306600D01*
G01X00331400Y00306400D02*
X00333000Y00306400D01*
G01X00333400Y00306400D02*
X00337800Y00306400D01*
G01X00326800Y00306200D02*
X00327400Y00306200D01*
G01X00331800Y00306200D02*
X00332800Y00306200D01*
G01X00333400Y00306200D02*
X00337800Y00306200D01*
G01X00326800Y00306000D02*
X00327000Y00306000D01*
G01X00332000Y00306000D02*
X00332600Y00306000D01*
G01X00333600Y00306000D02*
X00337600Y00306000D01*
G01X00333600Y00305800D02*
X00337600Y00305800D01*
G01X00333600Y00305600D02*
X00337400Y00305600D01*
G01X00333600Y00305400D02*
X00337000Y00305400D01*
G01X00330800Y00337600D02*
X00333400Y00337600D01*
G01X00330000Y00337400D02*
X00334200Y00337400D01*
G01X00339200Y00337400D02*
X00341800Y00337400D01*
G01X00345000Y00337400D02*
X00347600Y00337400D01*
G01X00352400Y00337400D02*
X00355000Y00337400D01*
G01X00329600Y00337200D02*
X00334800Y00337200D01*
G01X00339200Y00337200D02*
X00341800Y00337200D01*
G01X00345000Y00337200D02*
X00347600Y00337200D01*
G01X00352400Y00337200D02*
X00355000Y00337200D01*
G01X00329200Y00337000D02*
X00335200Y00337000D01*
G01X00339200Y00337000D02*
X00341800Y00337000D01*
G01X00345000Y00337000D02*
X00347800Y00337000D01*
G01X00352400Y00337000D02*
X00355000Y00337000D01*
G01X00328800Y00336800D02*
X00335400Y00336800D01*
G01X00339200Y00336800D02*
X00341800Y00336800D01*
G01X00345000Y00336800D02*
X00348000Y00336800D01*
G01X00352400Y00336800D02*
X00355000Y00336800D01*
G01X00328600Y00336600D02*
X00335800Y00336600D01*
G01X00339200Y00336600D02*
X00341800Y00336600D01*
G01X00345000Y00336600D02*
X00348000Y00336600D01*
G01X00352400Y00336600D02*
X00355000Y00336600D01*
G01X00328400Y00336400D02*
X00336000Y00336400D01*
G01X00339200Y00336400D02*
X00341800Y00336400D01*
G01X00345000Y00336400D02*
X00348200Y00336400D01*
G01X00352400Y00336400D02*
X00355000Y00336400D01*
G01X00328200Y00336200D02*
X00336200Y00336200D01*
G01X00339200Y00336200D02*
X00341800Y00336200D01*
G01X00345000Y00336200D02*
X00348400Y00336200D01*
G01X00352400Y00336200D02*
X00355000Y00336200D01*
G01X00328000Y00336000D02*
X00336200Y00336000D01*
G01X00339200Y00336000D02*
X00341800Y00336000D01*
G01X00345000Y00336000D02*
X00348400Y00336000D01*
G01X00352400Y00336000D02*
X00355000Y00336000D01*
G01X00328000Y00335800D02*
X00336000Y00335800D01*
G01X00339200Y00335800D02*
X00341800Y00335800D01*
G01X00345000Y00335800D02*
X00348600Y00335800D01*
G01X00352400Y00335800D02*
X00355000Y00335800D01*
G01X00327800Y00335600D02*
X00335800Y00335600D01*
G01X00339200Y00335600D02*
X00341800Y00335600D01*
G01X00345000Y00335600D02*
X00348800Y00335600D01*
G01X00352400Y00335600D02*
X00355000Y00335600D01*
G01X00327800Y00335400D02*
X00335600Y00335400D01*
G01X00339200Y00335400D02*
X00341800Y00335400D01*
G01X00345000Y00335400D02*
X00348800Y00335400D01*
G01X00352400Y00335400D02*
X00355000Y00335400D01*
G01X00327600Y00335200D02*
X00331200Y00335200D01*
G01X00333000Y00335200D02*
X00335400Y00335200D01*
G01X00339200Y00335200D02*
X00341800Y00335200D01*
G01X00345000Y00335200D02*
X00349000Y00335200D01*
G01X00352400Y00335200D02*
X00355000Y00335200D01*
G01X00327600Y00335000D02*
X00330800Y00335000D01*
G01X00333600Y00335000D02*
X00335200Y00335000D01*
G01X00339200Y00335000D02*
X00341800Y00335000D01*
G01X00345000Y00335000D02*
X00349000Y00335000D01*
G01X00352400Y00335000D02*
X00355000Y00335000D01*
G01X00327600Y00334800D02*
X00330600Y00334800D01*
G01X00334000Y00334800D02*
X00335000Y00334800D01*
G01X00339200Y00334800D02*
X00341800Y00334800D01*
G01X00345000Y00334800D02*
X00349200Y00334800D01*
G01X00352400Y00334800D02*
X00355000Y00334800D01*
G01X00327400Y00334600D02*
X00330400Y00334600D01*
G01X00334200Y00334600D02*
X00334800Y00334600D01*
G01X00339200Y00334600D02*
X00341800Y00334600D01*
G01X00345000Y00334600D02*
X00349400Y00334600D01*
G01X00352400Y00334600D02*
X00355000Y00334600D01*
G01X00327400Y00334400D02*
X00330200Y00334400D01*
G01X00339200Y00334400D02*
X00341800Y00334400D01*
G01X00345000Y00334400D02*
X00349400Y00334400D01*
G01X00352400Y00334400D02*
X00355000Y00334400D01*
G01X00327400Y00334200D02*
X00330200Y00334200D01*
G01X00339200Y00334200D02*
X00341800Y00334200D01*
G01X00345000Y00334200D02*
X00349600Y00334200D01*
G01X00352400Y00334200D02*
X00355000Y00334200D01*
G01X00327400Y00334000D02*
X00330000Y00334000D01*
G01X00339200Y00334000D02*
X00341800Y00334000D01*
G01X00345000Y00334000D02*
X00349800Y00334000D01*
G01X00352400Y00334000D02*
X00355000Y00334000D01*
G01X00327400Y00333800D02*
X00330000Y00333800D01*
G01X00339200Y00333800D02*
X00341800Y00333800D01*
G01X00345000Y00333800D02*
X00349800Y00333800D01*
G01X00352400Y00333800D02*
X00355000Y00333800D01*
G01X00327400Y00333600D02*
X00330000Y00333600D01*
G01X00339200Y00333600D02*
X00341800Y00333600D01*
G01X00345000Y00333600D02*
X00350000Y00333600D01*
G01X00352400Y00333600D02*
X00355000Y00333600D01*
G01X00327400Y00333400D02*
X00330200Y00333400D01*
G01X00339200Y00333400D02*
X00341800Y00333400D01*
G01X00345000Y00333400D02*
X00350200Y00333400D01*
G01X00352400Y00333400D02*
X00355000Y00333400D01*
G01X00327400Y00333200D02*
X00330200Y00333200D01*
G01X00339200Y00333200D02*
X00341800Y00333200D01*
G01X00345000Y00333200D02*
X00350200Y00333200D01*
G01X00352400Y00333200D02*
X00355000Y00333200D01*
G01X00327400Y00333000D02*
X00330400Y00333000D01*
G01X00339200Y00333000D02*
X00341800Y00333000D01*
G01X00345000Y00333000D02*
X00350400Y00333000D01*
G01X00352400Y00333000D02*
X00355000Y00333000D01*
G01X00327400Y00332800D02*
X00330600Y00332800D01*
G01X00339200Y00332800D02*
X00341800Y00332800D01*
G01X00345000Y00332800D02*
X00350600Y00332800D01*
G01X00352400Y00332800D02*
X00355000Y00332800D01*
G01X00327600Y00332600D02*
X00331000Y00332600D01*
G01X00339200Y00332600D02*
X00341800Y00332600D01*
G01X00345000Y00332600D02*
X00350600Y00332600D01*
G01X00352400Y00332600D02*
X00355000Y00332600D01*
G01X00327600Y00332400D02*
X00331800Y00332400D01*
G01X00339200Y00332400D02*
X00341800Y00332400D01*
G01X00345000Y00332400D02*
X00350800Y00332400D01*
G01X00352400Y00332400D02*
X00355000Y00332400D01*
G01X00327600Y00332200D02*
X00333200Y00332200D01*
G01X00339200Y00332200D02*
X00341800Y00332200D01*
G01X00345000Y00332200D02*
X00351000Y00332200D01*
G01X00352400Y00332200D02*
X00355000Y00332200D01*
G01X00327600Y00332000D02*
X00334200Y00332000D01*
G01X00339200Y00332000D02*
X00341800Y00332000D01*
G01X00345000Y00332000D02*
X00347600Y00332000D01*
G01X00347800Y00332000D02*
X00351000Y00332000D01*
G01X00352400Y00332000D02*
X00355000Y00332000D01*
G01X00327800Y00331800D02*
X00334800Y00331800D01*
G01X00339200Y00331800D02*
X00341800Y00331800D01*
G01X00345000Y00331800D02*
X00347600Y00331800D01*
G01X00347800Y00331800D02*
X00351200Y00331800D01*
G01X00352400Y00331800D02*
X00355000Y00331800D01*
G01X00327800Y00331600D02*
X00335000Y00331600D01*
G01X00339200Y00331600D02*
X00341800Y00331600D01*
G01X00345000Y00331600D02*
X00347600Y00331600D01*
G01X00348000Y00331600D02*
X00351200Y00331600D01*
G01X00352400Y00331600D02*
X00355000Y00331600D01*
G01X00328000Y00331400D02*
X00335400Y00331400D01*
G01X00339200Y00331400D02*
X00341800Y00331400D01*
G01X00345000Y00331400D02*
X00347600Y00331400D01*
G01X00348200Y00331400D02*
X00351400Y00331400D01*
G01X00352400Y00331400D02*
X00355000Y00331400D01*
G01X00328200Y00331200D02*
X00335600Y00331200D01*
G01X00339200Y00331200D02*
X00341800Y00331200D01*
G01X00345000Y00331200D02*
X00347600Y00331200D01*
G01X00348200Y00331200D02*
X00351600Y00331200D01*
G01X00352400Y00331200D02*
X00355000Y00331200D01*
G01X00328400Y00331000D02*
X00335800Y00331000D01*
G01X00339200Y00331000D02*
X00341800Y00331000D01*
G01X00345000Y00331000D02*
X00347600Y00331000D01*
G01X00348400Y00331000D02*
X00351600Y00331000D01*
G01X00352400Y00331000D02*
X00355000Y00331000D01*
G01X00328600Y00330800D02*
X00336000Y00330800D01*
G01X00339200Y00330800D02*
X00341800Y00330800D01*
G01X00345000Y00330800D02*
X00347600Y00330800D01*
G01X00348600Y00330800D02*
X00351800Y00330800D01*
G01X00352400Y00330800D02*
X00355000Y00330800D01*
G01X00329000Y00330600D02*
X00336000Y00330600D01*
G01X00339200Y00330600D02*
X00341800Y00330600D01*
G01X00345000Y00330600D02*
X00347600Y00330600D01*
G01X00348600Y00330600D02*
X00352000Y00330600D01*
G01X00352400Y00330600D02*
X00355000Y00330600D01*
G01X00329400Y00330400D02*
X00336200Y00330400D01*
G01X00339200Y00330400D02*
X00341800Y00330400D01*
G01X00345000Y00330400D02*
X00347600Y00330400D01*
G01X00348800Y00330400D02*
X00352000Y00330400D01*
G01X00352400Y00330400D02*
X00355000Y00330400D01*
G01X00329800Y00330200D02*
X00336200Y00330200D01*
G01X00339200Y00330200D02*
X00341800Y00330200D01*
G01X00345000Y00330200D02*
X00347600Y00330200D01*
G01X00349000Y00330200D02*
X00352200Y00330200D01*
G01X00352400Y00330200D02*
X00355000Y00330200D01*
G01X00330800Y00330000D02*
X00336400Y00330000D01*
G01X00339200Y00330000D02*
X00341800Y00330000D01*
G01X00345000Y00330000D02*
X00347600Y00330000D01*
G01X00349000Y00330000D02*
X00355000Y00330000D01*
G01X00332200Y00329800D02*
X00336400Y00329800D01*
G01X00339200Y00329800D02*
X00341800Y00329800D01*
G01X00345000Y00329800D02*
X00347600Y00329800D01*
G01X00349200Y00329800D02*
X00355000Y00329800D01*
G01X00333000Y00329600D02*
X00336400Y00329600D01*
G01X00339200Y00329600D02*
X00341800Y00329600D01*
G01X00345000Y00329600D02*
X00347600Y00329600D01*
G01X00349400Y00329600D02*
X00355000Y00329600D01*
G01X00333400Y00329400D02*
X00336400Y00329400D01*
G01X00339200Y00329400D02*
X00341800Y00329400D01*
G01X00345000Y00329400D02*
X00347600Y00329400D01*
G01X00349400Y00329400D02*
X00355000Y00329400D01*
G01X00333600Y00329200D02*
X00336600Y00329200D01*
G01X00339200Y00329200D02*
X00341800Y00329200D01*
G01X00345000Y00329200D02*
X00347600Y00329200D01*
G01X00349600Y00329200D02*
X00355000Y00329200D01*
G01X00333800Y00329000D02*
X00336600Y00329000D01*
G01X00339200Y00329000D02*
X00341800Y00329000D01*
G01X00345000Y00329000D02*
X00347600Y00329000D01*
G01X00349600Y00329000D02*
X00355000Y00329000D01*
G01X00333800Y00328800D02*
X00336600Y00328800D01*
G01X00339200Y00328800D02*
X00341800Y00328800D01*
G01X00345000Y00328800D02*
X00347600Y00328800D01*
G01X00349800Y00328800D02*
X00355000Y00328800D01*
G01X00333800Y00328600D02*
X00336600Y00328600D01*
G01X00339200Y00328600D02*
X00341800Y00328600D01*
G01X00345000Y00328600D02*
X00347600Y00328600D01*
G01X00350000Y00328600D02*
X00355000Y00328600D01*
G01X00334000Y00328400D02*
X00336600Y00328400D01*
G01X00339200Y00328400D02*
X00341800Y00328400D01*
G01X00345000Y00328400D02*
X00347600Y00328400D01*
G01X00350000Y00328400D02*
X00355000Y00328400D01*
G01X00334000Y00328200D02*
X00336600Y00328200D01*
G01X00339200Y00328200D02*
X00341800Y00328200D01*
G01X00345000Y00328200D02*
X00347600Y00328200D01*
G01X00350200Y00328200D02*
X00355000Y00328200D01*
G01X00333800Y00328000D02*
X00336600Y00328000D01*
G01X00339200Y00328000D02*
X00341800Y00328000D01*
G01X00345000Y00328000D02*
X00347600Y00328000D01*
G01X00350400Y00328000D02*
X00355000Y00328000D01*
G01X00328400Y00327800D02*
X00328800Y00327800D01*
G01X00333800Y00327800D02*
X00336600Y00327800D01*
G01X00339200Y00327800D02*
X00341800Y00327800D01*
G01X00345000Y00327800D02*
X00347600Y00327800D01*
G01X00350400Y00327800D02*
X00355000Y00327800D01*
G01X00328200Y00327600D02*
X00329200Y00327600D01*
G01X00333600Y00327600D02*
X00336600Y00327600D01*
G01X00339200Y00327600D02*
X00341800Y00327600D01*
G01X00345000Y00327600D02*
X00347600Y00327600D01*
G01X00350600Y00327600D02*
X00355000Y00327600D01*
G01X00328000Y00327400D02*
X00329400Y00327400D01*
G01X00333600Y00327400D02*
X00336400Y00327400D01*
G01X00339200Y00327400D02*
X00341800Y00327400D01*
G01X00345000Y00327400D02*
X00347600Y00327400D01*
G01X00350800Y00327400D02*
X00355000Y00327400D01*
G01X00327800Y00327200D02*
X00329800Y00327200D01*
G01X00333200Y00327200D02*
X00336400Y00327200D01*
G01X00339200Y00327200D02*
X00341800Y00327200D01*
G01X00345000Y00327200D02*
X00347600Y00327200D01*
G01X00350800Y00327200D02*
X00355000Y00327200D01*
G01X00327600Y00327000D02*
X00330400Y00327000D01*
G01X00332800Y00327000D02*
X00336400Y00327000D01*
G01X00339200Y00327000D02*
X00341800Y00327000D01*
G01X00345000Y00327000D02*
X00347600Y00327000D01*
G01X00351000Y00327000D02*
X00355000Y00327000D01*
G01X00327400Y00326800D02*
X00336200Y00326800D01*
G01X00339200Y00326800D02*
X00341800Y00326800D01*
G01X00345000Y00326800D02*
X00347600Y00326800D01*
G01X00351200Y00326800D02*
X00355000Y00326800D01*
G01X00358400Y00326600D02*
X00366800Y00326600D01*
G01X00358600Y00326400D02*
X00366800Y00326400D01*
G01X00358600Y00326200D02*
X00366600Y00326200D01*
G01X00358800Y00326000D02*
X00366400Y00326000D01*
G01X00359000Y00325800D02*
X00366200Y00325800D01*
G01X00359200Y00325600D02*
X00366000Y00325600D01*
G01X00359400Y00325400D02*
X00365800Y00325400D01*
G01X00359800Y00325200D02*
X00365400Y00325200D01*
G01X00360000Y00325000D02*
X00365200Y00325000D01*
G01X00360400Y00324800D02*
X00364800Y00324800D01*
G01X00361000Y00324600D02*
X00364200Y00324600D01*
G01X00362200Y00324400D02*
X00363000Y00324400D01*
G01X00361400Y00337600D02*
X00363800Y00337600D01*
G01X00360800Y00337400D02*
X00364600Y00337400D01*
G01X00360400Y00337200D02*
X00365200Y00337200D01*
G01X00360000Y00337000D02*
X00365400Y00337000D01*
G01X00359600Y00336800D02*
X00365800Y00336800D01*
G01X00359400Y00336600D02*
X00366000Y00336600D01*
G01X00359200Y00336400D02*
X00366200Y00336400D01*
G01X00359000Y00336200D02*
X00366400Y00336200D01*
G01X00358800Y00336000D02*
X00366600Y00336000D01*
G01X00358600Y00335800D02*
X00366600Y00335800D01*
G01X00358400Y00335600D02*
X00366400Y00335600D01*
G01X00358400Y00335400D02*
X00366200Y00335400D01*
G01X00358200Y00335200D02*
X00362200Y00335200D01*
G01X00363000Y00335200D02*
X00366000Y00335200D01*
G01X00358200Y00335000D02*
X00361600Y00335000D01*
G01X00363600Y00335000D02*
X00365800Y00335000D01*
G01X00358200Y00334800D02*
X00361400Y00334800D01*
G01X00364000Y00334800D02*
X00365600Y00334800D01*
G01X00358000Y00334600D02*
X00361200Y00334600D01*
G01X00364200Y00334600D02*
X00365400Y00334600D01*
G01X00358000Y00334400D02*
X00361000Y00334400D01*
G01X00364400Y00334400D02*
X00365200Y00334400D01*
G01X00358000Y00334200D02*
X00360800Y00334200D01*
G01X00364600Y00334200D02*
X00365000Y00334200D01*
G01X00358000Y00334000D02*
X00360800Y00334000D01*
G01X00357800Y00333800D02*
X00360600Y00333800D01*
G01X00357800Y00333600D02*
X00360600Y00333600D01*
G01X00357800Y00333400D02*
X00360600Y00333400D01*
G01X00357800Y00333200D02*
X00360600Y00333200D01*
G01X00357800Y00333000D02*
X00360600Y00333000D01*
G01X00357800Y00332800D02*
X00360600Y00332800D01*
G01X00357800Y00332600D02*
X00360600Y00332600D01*
G01X00357800Y00332400D02*
X00360600Y00332400D01*
G01X00357800Y00332200D02*
X00360600Y00332200D01*
G01X00357800Y00332000D02*
X00360400Y00332000D01*
G01X00357800Y00331800D02*
X00360400Y00331800D01*
G01X00362600Y00331800D02*
X00367200Y00331800D01*
G01X00357800Y00331600D02*
X00360400Y00331600D01*
G01X00362600Y00331600D02*
X00367200Y00331600D01*
G01X00357800Y00331400D02*
X00360400Y00331400D01*
G01X00362600Y00331400D02*
X00367200Y00331400D01*
G01X00357800Y00331200D02*
X00360400Y00331200D01*
G01X00362600Y00331200D02*
X00367200Y00331200D01*
G01X00357800Y00331000D02*
X00360400Y00331000D01*
G01X00362600Y00331000D02*
X00367200Y00331000D01*
G01X00357800Y00330800D02*
X00360400Y00330800D01*
G01X00362600Y00330800D02*
X00367200Y00330800D01*
G01X00357800Y00330600D02*
X00360400Y00330600D01*
G01X00362600Y00330600D02*
X00367200Y00330600D01*
G01X00357800Y00330400D02*
X00360400Y00330400D01*
G01X00362600Y00330400D02*
X00367200Y00330400D01*
G01X00357800Y00330200D02*
X00360400Y00330200D01*
G01X00362600Y00330200D02*
X00367200Y00330200D01*
G01X00357800Y00330000D02*
X00360400Y00330000D01*
G01X00362600Y00330000D02*
X00367200Y00330000D01*
G01X00357800Y00329800D02*
X00360600Y00329800D01*
G01X00362600Y00329800D02*
X00367200Y00329800D01*
G01X00357800Y00329600D02*
X00360600Y00329600D01*
G01X00362600Y00329600D02*
X00367200Y00329600D01*
G01X00357800Y00329400D02*
X00360600Y00329400D01*
G01X00364800Y00329400D02*
X00367200Y00329400D01*
G01X00357800Y00329200D02*
X00360600Y00329200D01*
G01X00364800Y00329200D02*
X00367200Y00329200D01*
G01X00357800Y00329000D02*
X00360600Y00329000D01*
G01X00364800Y00329000D02*
X00367200Y00329000D01*
G01X00357800Y00328800D02*
X00360600Y00328800D01*
G01X00364800Y00328800D02*
X00367200Y00328800D01*
G01X00357800Y00328600D02*
X00360600Y00328600D01*
G01X00364800Y00328600D02*
X00367200Y00328600D01*
G01X00357800Y00328400D02*
X00360600Y00328400D01*
G01X00364600Y00328400D02*
X00367200Y00328400D01*
G01X00357800Y00328200D02*
X00360800Y00328200D01*
G01X00364600Y00328200D02*
X00367200Y00328200D01*
G01X00358000Y00328000D02*
X00360800Y00328000D01*
G01X00364600Y00328000D02*
X00367200Y00328000D01*
G01X00358000Y00327800D02*
X00360800Y00327800D01*
G01X00364400Y00327800D02*
X00367200Y00327800D01*
G01X00358000Y00327600D02*
X00361000Y00327600D01*
G01X00364200Y00327600D02*
X00367200Y00327600D01*
G01X00358000Y00327400D02*
X00361200Y00327400D01*
G01X00364000Y00327400D02*
X00367200Y00327400D01*
G01X00358200Y00327200D02*
X00361400Y00327200D01*
G01X00363800Y00327200D02*
X00367200Y00327200D01*
G01X00358200Y00327000D02*
X00361800Y00327000D01*
G01X00363400Y00327000D02*
X00367000Y00327000D01*
G01X00358400Y00326800D02*
X00367000Y00326800D01*
G54D12*
G01X00056200Y00257200D02*
X00056200Y00268500D01*
X00000200Y00268500D01*
X00000200Y00231400D01*
X00029200Y00231400D01*
X00029300Y00231500D01*
G01X00021307Y00136100D02*
X00021307Y00133878D01*
X00021460Y00133413D01*
X00021767Y00133103D01*
X00022150Y00133000D01*
X00022533Y00133103D01*
X00022840Y00133413D01*
X00022993Y00133878D01*
X00022993Y00136100D01*
G01X00024445Y00133413D02*
X00024752Y00133155D01*
X00025097Y00133000D01*
X00025403Y00133000D01*
X00025710Y00133155D01*
X00025940Y00133413D01*
X00026055Y00133775D01*
X00025978Y00134137D01*
X00025787Y00134447D01*
X00025442Y00134653D01*
X00024982Y00134757D01*
X00024713Y00134963D01*
X00024598Y00135325D01*
X00024675Y00135687D01*
X00024867Y00135945D01*
X00025135Y00136100D01*
X00025403Y00136100D01*
X00025672Y00135997D01*
X00025902Y00135738D01*
G01X00028657Y00134653D02*
X00028810Y00134808D01*
X00028925Y00135067D01*
X00029002Y00135428D01*
X00028925Y00135738D01*
X00028772Y00135945D01*
X00028503Y00136100D01*
X00027468Y00136100D01*
X00027468Y00133000D01*
X00028733Y00133000D01*
X00029002Y00133207D01*
X00029155Y00133517D01*
X00029232Y00133878D01*
X00029155Y00134240D01*
X00028925Y00134550D01*
X00028657Y00134653D01*
X00027468Y00134653D01*
G01X00013500Y00271000D02*
X00013500Y00275000D01*
X00012900Y00274200D01*
G01X00012900Y00271000D02*
X00014100Y00271000D01*
G01X00016550Y00274333D02*
X00016850Y00274733D01*
X00017200Y00274933D01*
X00017600Y00275000D01*
X00018100Y00274867D01*
X00018450Y00274533D01*
X00018550Y00274133D01*
X00018500Y00273733D01*
X00018300Y00273400D01*
X00017300Y00272733D01*
X00016850Y00272267D01*
X00016550Y00271600D01*
X00016450Y00271000D01*
X00018550Y00271000D01*
G01X00020250Y00275000D02*
X00021500Y00271000D01*
X00022750Y00275000D01*
G01X00024400Y00271000D02*
X00024400Y00275000D01*
X00025400Y00275000D01*
X00025800Y00274800D01*
X00026100Y00274533D01*
X00026350Y00274133D01*
X00026550Y00273667D01*
X00026600Y00273000D01*
X00026550Y00272333D01*
X00026350Y00271867D01*
X00026100Y00271467D01*
X00025800Y00271200D01*
X00025400Y00271000D01*
X00024400Y00271000D01*
G01X00030600Y00274667D02*
X00030300Y00274867D01*
X00029950Y00275000D01*
X00029550Y00275000D01*
X00029100Y00274800D01*
X00028750Y00274467D01*
X00028500Y00274067D01*
X00028300Y00273400D01*
X00028250Y00272800D01*
X00028350Y00272200D01*
X00028500Y00271800D01*
X00028800Y00271400D01*
X00029150Y00271133D01*
X00029500Y00271000D01*
X00029850Y00271000D01*
X00030200Y00271133D01*
X00030500Y00271333D01*
X00030750Y00271600D01*
G01X00036900Y00275000D02*
X00038100Y00275000D01*
G01X00037500Y00275000D02*
X00037500Y00271000D01*
G01X00036900Y00271000D02*
X00038100Y00271000D01*
G01X00040350Y00271000D02*
X00040350Y00275000D01*
X00042650Y00271000D01*
X00042650Y00275000D01*
G01X00037345Y00083000D02*
X00037345Y00086100D01*
G01X00038955Y00086100D02*
X00038955Y00083000D01*
G01X00038955Y00084550D02*
X00037345Y00084550D01*
G01X00042017Y00083000D02*
X00040483Y00083000D01*
X00040483Y00086100D01*
X00042017Y00086100D01*
G01X00041403Y00084602D02*
X00040483Y00084602D01*
G01X00043392Y00083000D02*
X00044350Y00086100D01*
X00045308Y00083000D01*
G01X00044963Y00084085D02*
X00043737Y00084085D01*
G01X00047450Y00086100D02*
X00047450Y00083000D01*
G01X00046568Y00086100D02*
X00048332Y00086100D01*
G01X00051317Y00083000D02*
X00049783Y00083000D01*
X00049783Y00086100D01*
X00051317Y00086100D01*
G01X00050703Y00084602D02*
X00049783Y00084602D01*
G01X00052883Y00083000D02*
X00052883Y00086100D01*
X00053842Y00086100D01*
X00054148Y00085945D01*
X00054340Y00085738D01*
X00054417Y00085325D01*
X00054340Y00084912D01*
X00054110Y00084653D01*
X00053842Y00084498D01*
X00052883Y00084498D01*
G01X00053842Y00084498D02*
X00054417Y00083000D01*
G01X00045293Y00147842D02*
X00045063Y00147997D01*
X00044795Y00148100D01*
X00044488Y00148100D01*
X00044143Y00147945D01*
X00043875Y00147687D01*
X00043683Y00147377D01*
X00043530Y00146860D01*
X00043492Y00146395D01*
X00043568Y00145930D01*
X00043683Y00145620D01*
X00043913Y00145310D01*
X00044182Y00145103D01*
X00044450Y00145000D01*
X00044718Y00145000D01*
X00044987Y00145103D01*
X00045217Y00145258D01*
X00045408Y00145465D01*
G01X00047550Y00145000D02*
X00047550Y00148100D01*
X00047090Y00147480D01*
G01X00047090Y00145000D02*
X00048010Y00145000D01*
G01X00037192Y00185100D02*
X00038150Y00182000D01*
X00039108Y00185100D01*
G01X00041250Y00184067D02*
X00041250Y00182000D01*
G01X00041250Y00184893D02*
X00041173Y00184945D01*
X00041173Y00185048D01*
X00041250Y00185100D01*
X00041327Y00185048D01*
X00041327Y00184945D01*
X00041250Y00184893D01*
G01X00044350Y00185100D02*
X00044350Y00182000D01*
G01X00043813Y00184067D02*
X00044887Y00184067D01*
G01X00048140Y00182000D02*
X00048140Y00184067D01*
G01X00048140Y00183705D02*
X00047987Y00183912D01*
X00047757Y00184015D01*
X00047488Y00184067D01*
X00047220Y00183963D01*
X00046990Y00183757D01*
X00046837Y00183447D01*
X00046760Y00183033D01*
X00046837Y00182620D01*
X00046990Y00182310D01*
X00047220Y00182103D01*
X00047488Y00182000D01*
X00047757Y00182052D01*
X00047987Y00182207D01*
X00048140Y00182413D01*
G01X00050550Y00184067D02*
X00050933Y00184712D01*
X00050933Y00185100D01*
X00050646Y00185100D01*
X00050646Y00184712D01*
X00050933Y00184712D01*
G01X00053075Y00182362D02*
X00053267Y00182155D01*
X00053535Y00182000D01*
X00053765Y00182000D01*
X00053995Y00182103D01*
X00054148Y00182258D01*
X00054225Y00182465D01*
X00054187Y00182775D01*
X00054033Y00182930D01*
X00053343Y00183240D01*
X00053190Y00183602D01*
X00053267Y00183860D01*
X00053420Y00184015D01*
X00053650Y00184067D01*
X00053880Y00184015D01*
X00054110Y00183860D01*
G01X00059083Y00182000D02*
X00059083Y00185100D01*
X00060042Y00185100D01*
X00060348Y00184945D01*
X00060540Y00184738D01*
X00060617Y00184325D01*
X00060540Y00183912D01*
X00060310Y00183653D01*
X00060042Y00183498D01*
X00059083Y00183498D01*
G01X00060042Y00183498D02*
X00060617Y00182000D01*
G01X00063640Y00182000D02*
X00063640Y00184067D01*
G01X00063640Y00183705D02*
X00063487Y00183912D01*
X00063257Y00184015D01*
X00062988Y00184067D01*
X00062720Y00183963D01*
X00062490Y00183757D01*
X00062337Y00183447D01*
X00062260Y00183033D01*
X00062337Y00182620D01*
X00062490Y00182310D01*
X00062720Y00182103D01*
X00062988Y00182000D01*
X00063257Y00182052D01*
X00063487Y00182207D01*
X00063640Y00182413D01*
G01X00066050Y00184067D02*
X00066050Y00182000D01*
G01X00066050Y00184893D02*
X00065973Y00184945D01*
X00065973Y00185048D01*
X00066050Y00185100D01*
X00066127Y00185048D01*
X00066127Y00184945D01*
X00066050Y00184893D01*
G01X00068575Y00182362D02*
X00068767Y00182155D01*
X00069035Y00182000D01*
X00069265Y00182000D01*
X00069495Y00182103D01*
X00069648Y00182258D01*
X00069725Y00182465D01*
X00069687Y00182775D01*
X00069533Y00182930D01*
X00068843Y00183240D01*
X00068690Y00183602D01*
X00068767Y00183860D01*
X00068920Y00184015D01*
X00069150Y00184067D01*
X00069380Y00184015D01*
X00069610Y00183860D01*
G01X00072250Y00184067D02*
X00072250Y00182000D01*
G01X00072250Y00184893D02*
X00072173Y00184945D01*
X00072173Y00185048D01*
X00072250Y00185100D01*
X00072327Y00185048D01*
X00072327Y00184945D01*
X00072250Y00184893D01*
G01X00074698Y00182000D02*
X00074698Y00184067D01*
G01X00074698Y00183550D02*
X00074852Y00183808D01*
X00075082Y00184015D01*
X00075388Y00184067D01*
X00075657Y00184015D01*
X00075887Y00183808D01*
X00076002Y00183447D01*
X00076002Y00182000D01*
G01X00077913Y00181225D02*
X00078182Y00181018D01*
X00078488Y00180967D01*
X00078757Y00181018D01*
X00078987Y00181277D01*
X00079140Y00181638D01*
X00079140Y00184067D01*
G01X00079140Y00183653D02*
X00078987Y00183860D01*
X00078757Y00184015D01*
X00078488Y00184067D01*
X00078182Y00183963D01*
X00077990Y00183757D01*
X00077837Y00183395D01*
X00077760Y00183033D01*
X00077798Y00182723D01*
X00077952Y00182362D01*
X00078182Y00182103D01*
X00078488Y00182000D01*
X00078718Y00182052D01*
X00078987Y00182258D01*
X00079140Y00182465D01*
G01X00083807Y00182000D02*
X00083807Y00185100D01*
X00084573Y00185100D01*
X00084880Y00184945D01*
X00085110Y00184738D01*
X00085302Y00184428D01*
X00085455Y00184067D01*
X00085493Y00183550D01*
X00085455Y00183033D01*
X00085302Y00182672D01*
X00085110Y00182362D01*
X00084880Y00182155D01*
X00084573Y00182000D01*
X00083807Y00182000D01*
G01X00087213Y00182000D02*
X00087213Y00184067D01*
G01X00087213Y00183653D02*
X00087405Y00183860D01*
X00087597Y00184015D01*
X00087865Y00184067D01*
X00088057Y00184015D01*
X00088287Y00183860D01*
G01X00090850Y00184067D02*
X00090850Y00182000D01*
G01X00090850Y00184893D02*
X00090773Y00184945D01*
X00090773Y00185048D01*
X00090850Y00185100D01*
X00090927Y00185048D01*
X00090927Y00184945D01*
X00090850Y00184893D01*
G01X00093260Y00184067D02*
X00093950Y00182000D01*
X00094640Y00184067D01*
G01X00096475Y00183395D02*
X00097702Y00183395D01*
X00097587Y00183757D01*
X00097395Y00183963D01*
X00097127Y00184067D01*
X00096858Y00184015D01*
X00096628Y00183860D01*
X00096475Y00183498D01*
X00096398Y00183188D01*
X00096398Y00182878D01*
X00096475Y00182568D01*
X00096667Y00182258D01*
X00096897Y00182052D01*
X00097165Y00182000D01*
X00097433Y00182103D01*
X00097702Y00182413D01*
G01X00099613Y00182000D02*
X00099613Y00184067D01*
G01X00099613Y00183653D02*
X00099805Y00183860D01*
X00099997Y00184015D01*
X00100265Y00184067D01*
X00100457Y00184015D01*
X00100687Y00183860D01*
G01X00106657Y00183653D02*
X00106810Y00183808D01*
X00106925Y00184067D01*
X00107002Y00184428D01*
X00106925Y00184738D01*
X00106772Y00184945D01*
X00106503Y00185100D01*
X00105468Y00185100D01*
X00105468Y00182000D01*
X00106733Y00182000D01*
X00107002Y00182207D01*
X00107155Y00182517D01*
X00107232Y00182878D01*
X00107155Y00183240D01*
X00106925Y00183550D01*
X00106657Y00183653D01*
X00105468Y00183653D01*
G01X00109450Y00182000D02*
X00109220Y00182052D01*
X00108990Y00182258D01*
X00108837Y00182620D01*
X00108760Y00183033D01*
X00108837Y00183447D01*
X00108990Y00183808D01*
X00109220Y00184015D01*
X00109450Y00184067D01*
X00109680Y00184015D01*
X00109910Y00183808D01*
X00110063Y00183447D01*
X00110102Y00183033D01*
X00110063Y00182620D01*
X00109910Y00182258D01*
X00109680Y00182052D01*
X00109450Y00182000D01*
G01X00113240Y00182000D02*
X00113240Y00184067D01*
G01X00113240Y00183705D02*
X00113087Y00183912D01*
X00112857Y00184015D01*
X00112588Y00184067D01*
X00112320Y00183963D01*
X00112090Y00183757D01*
X00111937Y00183447D01*
X00111860Y00183033D01*
X00111937Y00182620D01*
X00112090Y00182310D01*
X00112320Y00182103D01*
X00112588Y00182000D01*
X00112857Y00182052D01*
X00113087Y00182207D01*
X00113240Y00182413D01*
G01X00115113Y00182000D02*
X00115113Y00184067D01*
G01X00115113Y00183653D02*
X00115305Y00183860D01*
X00115497Y00184015D01*
X00115765Y00184067D01*
X00115957Y00184015D01*
X00116187Y00183860D01*
G01X00119440Y00185100D02*
X00119440Y00182000D01*
G01X00119440Y00182465D02*
X00119287Y00182207D01*
X00119057Y00182052D01*
X00118788Y00182000D01*
X00118482Y00182103D01*
X00118252Y00182362D01*
X00118098Y00182672D01*
X00118060Y00183033D01*
X00118098Y00183395D01*
X00118252Y00183705D01*
X00118482Y00183963D01*
X00118788Y00184067D01*
X00119057Y00184015D01*
X00119248Y00183912D01*
X00119440Y00183705D01*
G01X00124452Y00183033D02*
X00125448Y00183033D01*
G01X00130307Y00182000D02*
X00130307Y00185100D01*
X00131073Y00185100D01*
X00131380Y00184945D01*
X00131610Y00184738D01*
X00131802Y00184428D01*
X00131955Y00184067D01*
X00131993Y00183550D01*
X00131955Y00183033D01*
X00131802Y00182672D01*
X00131610Y00182362D01*
X00131380Y00182155D01*
X00131073Y00182000D01*
X00130307Y00182000D01*
G01X00133675Y00183395D02*
X00134902Y00183395D01*
X00134787Y00183757D01*
X00134595Y00183963D01*
X00134327Y00184067D01*
X00134058Y00184015D01*
X00133828Y00183860D01*
X00133675Y00183498D01*
X00133598Y00183188D01*
X00133598Y00182878D01*
X00133675Y00182568D01*
X00133867Y00182258D01*
X00134097Y00182052D01*
X00134365Y00182000D01*
X00134633Y00182103D01*
X00134902Y00182413D01*
G01X00136775Y00182362D02*
X00136967Y00182155D01*
X00137235Y00182000D01*
X00137465Y00182000D01*
X00137695Y00182103D01*
X00137848Y00182258D01*
X00137925Y00182465D01*
X00137887Y00182775D01*
X00137733Y00182930D01*
X00137043Y00183240D01*
X00136890Y00183602D01*
X00136967Y00183860D01*
X00137120Y00184015D01*
X00137350Y00184067D01*
X00137580Y00184015D01*
X00137810Y00183860D01*
G01X00140450Y00184067D02*
X00140450Y00182000D01*
G01X00140450Y00184893D02*
X00140373Y00184945D01*
X00140373Y00185048D01*
X00140450Y00185100D01*
X00140527Y00185048D01*
X00140527Y00184945D01*
X00140450Y00184893D01*
G01X00143013Y00181225D02*
X00143282Y00181018D01*
X00143588Y00180967D01*
X00143857Y00181018D01*
X00144087Y00181277D01*
X00144240Y00181638D01*
X00144240Y00184067D01*
G01X00144240Y00183653D02*
X00144087Y00183860D01*
X00143857Y00184015D01*
X00143588Y00184067D01*
X00143282Y00183963D01*
X00143090Y00183757D01*
X00142937Y00183395D01*
X00142860Y00183033D01*
X00142898Y00182723D01*
X00143052Y00182362D01*
X00143282Y00182103D01*
X00143588Y00182000D01*
X00143818Y00182052D01*
X00144087Y00182258D01*
X00144240Y00182465D01*
G01X00145998Y00182000D02*
X00145998Y00184067D01*
G01X00145998Y00183550D02*
X00146152Y00183808D01*
X00146382Y00184015D01*
X00146688Y00184067D01*
X00146957Y00184015D01*
X00147187Y00183808D01*
X00147302Y00183447D01*
X00147302Y00182000D01*
G01X00149175Y00183395D02*
X00150402Y00183395D01*
X00150287Y00183757D01*
X00150095Y00183963D01*
X00149827Y00184067D01*
X00149558Y00184015D01*
X00149328Y00183860D01*
X00149175Y00183498D01*
X00149098Y00183188D01*
X00149098Y00182878D01*
X00149175Y00182568D01*
X00149367Y00182258D01*
X00149597Y00182052D01*
X00149865Y00182000D01*
X00150133Y00182103D01*
X00150402Y00182413D01*
G01X00153540Y00185100D02*
X00153540Y00182000D01*
G01X00153540Y00182465D02*
X00153387Y00182207D01*
X00153157Y00182052D01*
X00152888Y00182000D01*
X00152582Y00182103D01*
X00152352Y00182362D01*
X00152198Y00182672D01*
X00152160Y00183033D01*
X00152198Y00183395D01*
X00152352Y00183705D01*
X00152582Y00183963D01*
X00152888Y00184067D01*
X00153157Y00184015D01*
X00153348Y00183912D01*
X00153540Y00183705D01*
G01X00158360Y00182000D02*
X00158360Y00185100D01*
G01X00158360Y00183550D02*
X00158552Y00183860D01*
X00158782Y00184015D01*
X00159012Y00184067D01*
X00159357Y00183963D01*
X00159587Y00183757D01*
X00159740Y00183395D01*
X00159740Y00182982D01*
X00159663Y00182568D01*
X00159510Y00182258D01*
X00159242Y00182052D01*
X00159012Y00182000D01*
X00158782Y00182052D01*
X00158552Y00182207D01*
X00158360Y00182465D01*
G01X00161345Y00181070D02*
X00161575Y00180967D01*
X00161882Y00181070D01*
X00162073Y00181277D01*
X00162227Y00181535D01*
X00162457Y00182362D01*
X00162955Y00184067D01*
G01X00161728Y00184067D02*
X00162457Y00182362D01*
G01X00167507Y00182000D02*
X00167507Y00185100D01*
G01X00168963Y00185100D02*
X00167507Y00183188D01*
G01X00169193Y00182000D02*
X00168158Y00184067D01*
G01X00170607Y00185100D02*
X00170607Y00182878D01*
X00170760Y00182413D01*
X00171067Y00182103D01*
X00171450Y00182000D01*
X00171833Y00182103D01*
X00172140Y00182413D01*
X00172293Y00182878D01*
X00172293Y00185100D01*
G01X00173592Y00182000D02*
X00174550Y00185100D01*
X00175508Y00182000D01*
G01X00175163Y00183085D02*
X00173937Y00183085D01*
G01X00176768Y00182000D02*
X00176768Y00185100D01*
X00178532Y00182000D01*
X00178532Y00185100D01*
G01X00180980Y00183550D02*
X00181747Y00183550D01*
X00181747Y00182620D01*
X00181517Y00182310D01*
X00181248Y00182103D01*
X00180865Y00182000D01*
X00180482Y00182103D01*
X00180213Y00182310D01*
X00179983Y00182620D01*
X00179830Y00182982D01*
X00179753Y00183395D01*
X00179753Y00183757D01*
X00179830Y00184067D01*
X00179983Y00184428D01*
X00180213Y00184738D01*
X00180443Y00184945D01*
X00180750Y00185100D01*
X00181018Y00185100D01*
X00181325Y00184997D01*
X00181555Y00184790D01*
G01X00186950Y00182000D02*
X00186643Y00182052D01*
X00186375Y00182258D01*
X00186145Y00182568D01*
X00185992Y00182930D01*
X00185915Y00183343D01*
X00185915Y00183757D01*
X00185992Y00184170D01*
X00186145Y00184532D01*
X00186375Y00184842D01*
X00186643Y00185048D01*
X00186950Y00185100D01*
X00187257Y00185048D01*
X00187525Y00184842D01*
X00187755Y00184532D01*
X00187908Y00184170D01*
X00187985Y00183757D01*
X00187985Y00183343D01*
X00187908Y00182930D01*
X00187755Y00182568D01*
X00187525Y00182258D01*
X00187257Y00182052D01*
X00186950Y00182000D01*
G01X00187257Y00182827D02*
X00187717Y00182000D01*
G01X00190050Y00184067D02*
X00190050Y00182000D01*
G01X00190050Y00184893D02*
X00189973Y00184945D01*
X00189973Y00185048D01*
X00190050Y00185100D01*
X00190127Y00185048D01*
X00190127Y00184945D01*
X00190050Y00184893D01*
G01X00195522Y00184583D02*
X00195752Y00184893D01*
X00196020Y00185048D01*
X00196327Y00185100D01*
X00196710Y00184997D01*
X00196978Y00184738D01*
X00197055Y00184428D01*
X00197017Y00184118D01*
X00196863Y00183860D01*
X00196097Y00183343D01*
X00195752Y00182982D01*
X00195522Y00182465D01*
X00195445Y00182000D01*
X00197055Y00182000D01*
G01X00199350Y00185100D02*
X00199043Y00184997D01*
X00198813Y00184738D01*
X00198660Y00184428D01*
X00198545Y00184015D01*
X00198507Y00183550D01*
X00198545Y00183085D01*
X00198660Y00182672D01*
X00198813Y00182362D01*
X00199043Y00182103D01*
X00199350Y00182000D01*
X00199657Y00182103D01*
X00199887Y00182362D01*
X00200040Y00182672D01*
X00200155Y00183085D01*
X00200193Y00183550D01*
X00200155Y00184015D01*
X00200040Y00184428D01*
X00199887Y00184738D01*
X00199657Y00184997D01*
X00199350Y00185100D01*
G01X00202450Y00182000D02*
X00202450Y00185100D01*
X00201990Y00184480D01*
G01X00201990Y00182000D02*
X00202910Y00182000D01*
G01X00204707Y00182465D02*
X00204937Y00182207D01*
X00205205Y00182052D01*
X00205550Y00182000D01*
X00205895Y00182103D01*
X00206163Y00182310D01*
X00206355Y00182672D01*
X00206393Y00183085D01*
X00206317Y00183498D01*
X00206125Y00183757D01*
X00205857Y00183963D01*
X00205588Y00184015D01*
X00205320Y00183963D01*
X00204975Y00183757D01*
X00205090Y00185100D01*
X00206125Y00185100D01*
G01X00208650Y00181897D02*
X00208573Y00181948D01*
X00208573Y00182052D01*
X00208650Y00182103D01*
X00208727Y00182052D01*
X00208727Y00181948D01*
X00208650Y00181897D01*
G01X00211750Y00185100D02*
X00211443Y00184997D01*
X00211213Y00184738D01*
X00211060Y00184428D01*
X00210945Y00184015D01*
X00210907Y00183550D01*
X00210945Y00183085D01*
X00211060Y00182672D01*
X00211213Y00182362D01*
X00211443Y00182103D01*
X00211750Y00182000D01*
X00212057Y00182103D01*
X00212287Y00182362D01*
X00212440Y00182672D01*
X00212555Y00183085D01*
X00212593Y00183550D01*
X00212555Y00184015D01*
X00212440Y00184428D01*
X00212287Y00184738D01*
X00212057Y00184997D01*
X00211750Y00185100D01*
G01X00214007Y00182620D02*
X00214237Y00182258D01*
X00214543Y00182052D01*
X00214888Y00182000D01*
X00215195Y00182052D01*
X00215502Y00182310D01*
X00215693Y00182620D01*
X00215732Y00182930D01*
X00215655Y00183292D01*
X00215387Y00183550D01*
X00215118Y00183653D01*
X00214773Y00183653D01*
G01X00215118Y00183653D02*
X00215348Y00183808D01*
X00215540Y00184067D01*
X00215617Y00184377D01*
X00215540Y00184687D01*
X00215348Y00184945D01*
X00215003Y00185100D01*
X00214658Y00185048D01*
X00214313Y00184842D01*
G01X00217950Y00181897D02*
X00217873Y00181948D01*
X00217873Y00182052D01*
X00217950Y00182103D01*
X00218027Y00182052D01*
X00218027Y00181948D01*
X00217950Y00181897D01*
G01X00221050Y00182000D02*
X00221050Y00185100D01*
X00220590Y00184480D01*
G01X00220590Y00182000D02*
X00221510Y00182000D01*
G01X00224073Y00182000D02*
X00224150Y00182672D01*
X00224265Y00183240D01*
X00224418Y00183757D01*
X00224610Y00184325D01*
X00224917Y00185100D01*
X00223383Y00185100D01*
G01X00047383Y00208000D02*
X00047383Y00211100D01*
X00048303Y00211100D01*
X00048610Y00210945D01*
X00048840Y00210583D01*
X00048917Y00210170D01*
X00048840Y00209757D01*
X00048648Y00209447D01*
X00048303Y00209292D01*
X00047383Y00209292D01*
G01X00051250Y00208000D02*
X00050943Y00208052D01*
X00050675Y00208258D01*
X00050445Y00208568D01*
X00050292Y00208930D01*
X00050215Y00209343D01*
X00050215Y00209757D01*
X00050292Y00210170D01*
X00050445Y00210532D01*
X00050675Y00210842D01*
X00050943Y00211048D01*
X00051250Y00211100D01*
X00051557Y00211048D01*
X00051825Y00210842D01*
X00052055Y00210532D01*
X00052208Y00210170D01*
X00052285Y00209757D01*
X00052285Y00209343D01*
X00052208Y00208930D01*
X00052055Y00208568D01*
X00051825Y00208258D01*
X00051557Y00208052D01*
X00051250Y00208000D01*
G01X00053200Y00211100D02*
X00053737Y00208000D01*
X00054350Y00211100D01*
X00054963Y00208000D01*
X00055500Y00211100D01*
G01X00058217Y00208000D02*
X00056683Y00208000D01*
X00056683Y00211100D01*
X00058217Y00211100D01*
G01X00057603Y00209602D02*
X00056683Y00209602D01*
G01X00059783Y00208000D02*
X00059783Y00211100D01*
X00060742Y00211100D01*
X00061048Y00210945D01*
X00061240Y00210738D01*
X00061317Y00210325D01*
X00061240Y00209912D01*
X00061010Y00209653D01*
X00060742Y00209498D01*
X00059783Y00209498D01*
G01X00060742Y00209498D02*
X00061317Y00208000D01*
G01X00056100Y00242800D02*
X00056100Y00231500D01*
X00056000Y00231400D01*
X00051500Y00231400D01*
G01X00060133Y00266000D02*
X00060133Y00269100D01*
X00061092Y00269100D01*
X00061398Y00268945D01*
X00061590Y00268738D01*
X00061667Y00268325D01*
X00061590Y00267912D01*
X00061360Y00267653D01*
X00061092Y00267498D01*
X00060133Y00267498D01*
G01X00061092Y00267498D02*
X00061667Y00266000D01*
G01X00064000Y00266000D02*
X00064000Y00269100D01*
X00063540Y00268480D01*
G01X00063540Y00266000D02*
X00064460Y00266000D01*
G01X00067023Y00266000D02*
X00067100Y00266672D01*
X00067215Y00267240D01*
X00067368Y00267757D01*
X00067560Y00268325D01*
X00067867Y00269100D01*
X00066333Y00269100D01*
G01X00060133Y00346000D02*
X00060133Y00349100D01*
X00061092Y00349100D01*
X00061398Y00348945D01*
X00061590Y00348738D01*
X00061667Y00348325D01*
X00061590Y00347912D01*
X00061360Y00347653D01*
X00061092Y00347498D01*
X00060133Y00347498D01*
G01X00061092Y00347498D02*
X00061667Y00346000D01*
G01X00064000Y00346000D02*
X00064000Y00349100D01*
X00063540Y00348480D01*
G01X00063540Y00346000D02*
X00064460Y00346000D01*
G01X00066257Y00346620D02*
X00066487Y00346258D01*
X00066793Y00346052D01*
X00067138Y00346000D01*
X00067445Y00346052D01*
X00067752Y00346310D01*
X00067943Y00346620D01*
X00067982Y00346930D01*
X00067905Y00347292D01*
X00067637Y00347550D01*
X00067368Y00347653D01*
X00067023Y00347653D01*
G01X00067368Y00347653D02*
X00067598Y00347808D01*
X00067790Y00348067D01*
X00067867Y00348377D01*
X00067790Y00348687D01*
X00067598Y00348945D01*
X00067253Y00349100D01*
X00066908Y00349048D01*
X00066563Y00348842D01*
G01X00035192Y00372100D02*
X00036150Y00369000D01*
X00037108Y00372100D01*
G01X00039250Y00371067D02*
X00039250Y00369000D01*
G01X00039250Y00371893D02*
X00039173Y00371945D01*
X00039173Y00372048D01*
X00039250Y00372100D01*
X00039327Y00372048D01*
X00039327Y00371945D01*
X00039250Y00371893D01*
G01X00042350Y00372100D02*
X00042350Y00369000D01*
G01X00041813Y00371067D02*
X00042887Y00371067D01*
G01X00046140Y00369000D02*
X00046140Y00371067D01*
G01X00046140Y00370705D02*
X00045987Y00370912D01*
X00045757Y00371015D01*
X00045488Y00371067D01*
X00045220Y00370963D01*
X00044990Y00370757D01*
X00044837Y00370447D01*
X00044760Y00370033D01*
X00044837Y00369620D01*
X00044990Y00369310D01*
X00045220Y00369103D01*
X00045488Y00369000D01*
X00045757Y00369052D01*
X00045987Y00369207D01*
X00046140Y00369413D01*
G01X00048550Y00371067D02*
X00048933Y00371712D01*
X00048933Y00372100D01*
X00048646Y00372100D01*
X00048646Y00371712D01*
X00048933Y00371712D01*
G01X00051075Y00369362D02*
X00051267Y00369155D01*
X00051535Y00369000D01*
X00051765Y00369000D01*
X00051995Y00369103D01*
X00052148Y00369258D01*
X00052225Y00369465D01*
X00052187Y00369775D01*
X00052033Y00369930D01*
X00051343Y00370240D01*
X00051190Y00370602D01*
X00051267Y00370860D01*
X00051420Y00371015D01*
X00051650Y00371067D01*
X00051880Y00371015D01*
X00052110Y00370860D01*
G01X00057083Y00369000D02*
X00057083Y00372100D01*
X00058042Y00372100D01*
X00058348Y00371945D01*
X00058540Y00371738D01*
X00058617Y00371325D01*
X00058540Y00370912D01*
X00058310Y00370653D01*
X00058042Y00370498D01*
X00057083Y00370498D01*
G01X00058042Y00370498D02*
X00058617Y00369000D01*
G01X00061640Y00369000D02*
X00061640Y00371067D01*
G01X00061640Y00370705D02*
X00061487Y00370912D01*
X00061257Y00371015D01*
X00060988Y00371067D01*
X00060720Y00370963D01*
X00060490Y00370757D01*
X00060337Y00370447D01*
X00060260Y00370033D01*
X00060337Y00369620D01*
X00060490Y00369310D01*
X00060720Y00369103D01*
X00060988Y00369000D01*
X00061257Y00369052D01*
X00061487Y00369207D01*
X00061640Y00369413D01*
G01X00064050Y00371067D02*
X00064050Y00369000D01*
G01X00064050Y00371893D02*
X00063973Y00371945D01*
X00063973Y00372048D01*
X00064050Y00372100D01*
X00064127Y00372048D01*
X00064127Y00371945D01*
X00064050Y00371893D01*
G01X00066575Y00369362D02*
X00066767Y00369155D01*
X00067035Y00369000D01*
X00067265Y00369000D01*
X00067495Y00369103D01*
X00067648Y00369258D01*
X00067725Y00369465D01*
X00067687Y00369775D01*
X00067533Y00369930D01*
X00066843Y00370240D01*
X00066690Y00370602D01*
X00066767Y00370860D01*
X00066920Y00371015D01*
X00067150Y00371067D01*
X00067380Y00371015D01*
X00067610Y00370860D01*
G01X00070250Y00371067D02*
X00070250Y00369000D01*
G01X00070250Y00371893D02*
X00070173Y00371945D01*
X00070173Y00372048D01*
X00070250Y00372100D01*
X00070327Y00372048D01*
X00070327Y00371945D01*
X00070250Y00371893D01*
G01X00072698Y00369000D02*
X00072698Y00371067D01*
G01X00072698Y00370550D02*
X00072852Y00370808D01*
X00073082Y00371015D01*
X00073388Y00371067D01*
X00073657Y00371015D01*
X00073887Y00370808D01*
X00074002Y00370447D01*
X00074002Y00369000D01*
G01X00075913Y00368225D02*
X00076182Y00368018D01*
X00076488Y00367967D01*
X00076757Y00368018D01*
X00076987Y00368277D01*
X00077140Y00368638D01*
X00077140Y00371067D01*
G01X00077140Y00370653D02*
X00076987Y00370860D01*
X00076757Y00371015D01*
X00076488Y00371067D01*
X00076182Y00370963D01*
X00075990Y00370757D01*
X00075837Y00370395D01*
X00075760Y00370033D01*
X00075798Y00369723D01*
X00075952Y00369362D01*
X00076182Y00369103D01*
X00076488Y00369000D01*
X00076718Y00369052D01*
X00076987Y00369258D01*
X00077140Y00369465D01*
G01X00082190Y00372100D02*
X00083110Y00372100D01*
G01X00082650Y00372100D02*
X00082650Y00369000D01*
G01X00082190Y00369000D02*
X00083110Y00369000D01*
G01X00085098Y00369000D02*
X00085098Y00371067D01*
G01X00085098Y00370550D02*
X00085252Y00370808D01*
X00085482Y00371015D01*
X00085788Y00371067D01*
X00086057Y00371015D01*
X00086287Y00370808D01*
X00086402Y00370447D01*
X00086402Y00369000D01*
G01X00088850Y00372100D02*
X00088850Y00369000D01*
G01X00088313Y00371067D02*
X00089387Y00371067D01*
G01X00091375Y00370395D02*
X00092602Y00370395D01*
X00092487Y00370757D01*
X00092295Y00370963D01*
X00092027Y00371067D01*
X00091758Y00371015D01*
X00091528Y00370860D01*
X00091375Y00370498D01*
X00091298Y00370188D01*
X00091298Y00369878D01*
X00091375Y00369568D01*
X00091567Y00369258D01*
X00091797Y00369052D01*
X00092065Y00369000D01*
X00092333Y00369103D01*
X00092602Y00369413D01*
G01X00094513Y00369000D02*
X00094513Y00371067D01*
G01X00094513Y00370653D02*
X00094705Y00370860D01*
X00094897Y00371015D01*
X00095165Y00371067D01*
X00095357Y00371015D01*
X00095587Y00370860D01*
G01X00097920Y00369000D02*
X00097920Y00371635D01*
X00097997Y00371893D01*
X00098150Y00372048D01*
X00098380Y00372100D01*
X00098610Y00371997D01*
X00098725Y00371738D01*
G01X00098265Y00370860D02*
X00097498Y00370860D01*
G01X00101940Y00369000D02*
X00101940Y00371067D01*
G01X00101940Y00370705D02*
X00101787Y00370912D01*
X00101557Y00371015D01*
X00101288Y00371067D01*
X00101020Y00370963D01*
X00100790Y00370757D01*
X00100637Y00370447D01*
X00100560Y00370033D01*
X00100637Y00369620D01*
X00100790Y00369310D01*
X00101020Y00369103D01*
X00101288Y00369000D01*
X00101557Y00369052D01*
X00101787Y00369207D01*
X00101940Y00369413D01*
G01X00104963Y00370808D02*
X00104695Y00371015D01*
X00104465Y00371067D01*
X00104158Y00370963D01*
X00103928Y00370757D01*
X00103775Y00370395D01*
X00103737Y00370033D01*
X00103775Y00369672D01*
X00103928Y00369362D01*
X00104158Y00369103D01*
X00104465Y00369000D01*
X00104733Y00369103D01*
X00104963Y00369310D01*
G01X00106875Y00370395D02*
X00108102Y00370395D01*
X00107987Y00370757D01*
X00107795Y00370963D01*
X00107527Y00371067D01*
X00107258Y00371015D01*
X00107028Y00370860D01*
X00106875Y00370498D01*
X00106798Y00370188D01*
X00106798Y00369878D01*
X00106875Y00369568D01*
X00107067Y00369258D01*
X00107297Y00369052D01*
X00107565Y00369000D01*
X00107833Y00369103D01*
X00108102Y00369413D01*
G01X00113957Y00370653D02*
X00114110Y00370808D01*
X00114225Y00371067D01*
X00114302Y00371428D01*
X00114225Y00371738D01*
X00114072Y00371945D01*
X00113803Y00372100D01*
X00112768Y00372100D01*
X00112768Y00369000D01*
X00114033Y00369000D01*
X00114302Y00369207D01*
X00114455Y00369517D01*
X00114532Y00369878D01*
X00114455Y00370240D01*
X00114225Y00370550D01*
X00113957Y00370653D01*
X00112768Y00370653D01*
G01X00116750Y00369000D02*
X00116520Y00369052D01*
X00116290Y00369258D01*
X00116137Y00369620D01*
X00116060Y00370033D01*
X00116137Y00370447D01*
X00116290Y00370808D01*
X00116520Y00371015D01*
X00116750Y00371067D01*
X00116980Y00371015D01*
X00117210Y00370808D01*
X00117363Y00370447D01*
X00117402Y00370033D01*
X00117363Y00369620D01*
X00117210Y00369258D01*
X00116980Y00369052D01*
X00116750Y00369000D01*
G01X00120540Y00369000D02*
X00120540Y00371067D01*
G01X00120540Y00370705D02*
X00120387Y00370912D01*
X00120157Y00371015D01*
X00119888Y00371067D01*
X00119620Y00370963D01*
X00119390Y00370757D01*
X00119237Y00370447D01*
X00119160Y00370033D01*
X00119237Y00369620D01*
X00119390Y00369310D01*
X00119620Y00369103D01*
X00119888Y00369000D01*
X00120157Y00369052D01*
X00120387Y00369207D01*
X00120540Y00369413D01*
G01X00122413Y00369000D02*
X00122413Y00371067D01*
G01X00122413Y00370653D02*
X00122605Y00370860D01*
X00122797Y00371015D01*
X00123065Y00371067D01*
X00123257Y00371015D01*
X00123487Y00370860D01*
G01X00126740Y00372100D02*
X00126740Y00369000D01*
G01X00126740Y00369465D02*
X00126587Y00369207D01*
X00126357Y00369052D01*
X00126088Y00369000D01*
X00125782Y00369103D01*
X00125552Y00369362D01*
X00125398Y00369672D01*
X00125360Y00370033D01*
X00125398Y00370395D01*
X00125552Y00370705D01*
X00125782Y00370963D01*
X00126088Y00371067D01*
X00126357Y00371015D01*
X00126548Y00370912D01*
X00126740Y00370705D01*
G01X00035307Y00363000D02*
X00035307Y00366100D01*
X00036073Y00366100D01*
X00036380Y00365945D01*
X00036610Y00365738D01*
X00036802Y00365428D01*
X00036955Y00365067D01*
X00036993Y00364550D01*
X00036955Y00364033D01*
X00036802Y00363672D01*
X00036610Y00363362D01*
X00036380Y00363155D01*
X00036073Y00363000D01*
X00035307Y00363000D01*
G01X00038675Y00364395D02*
X00039902Y00364395D01*
X00039787Y00364757D01*
X00039595Y00364963D01*
X00039327Y00365067D01*
X00039058Y00365015D01*
X00038828Y00364860D01*
X00038675Y00364498D01*
X00038598Y00364188D01*
X00038598Y00363878D01*
X00038675Y00363568D01*
X00038867Y00363258D01*
X00039097Y00363052D01*
X00039365Y00363000D01*
X00039633Y00363103D01*
X00039902Y00363413D01*
G01X00041775Y00363362D02*
X00041967Y00363155D01*
X00042235Y00363000D01*
X00042465Y00363000D01*
X00042695Y00363103D01*
X00042848Y00363258D01*
X00042925Y00363465D01*
X00042887Y00363775D01*
X00042733Y00363930D01*
X00042043Y00364240D01*
X00041890Y00364602D01*
X00041967Y00364860D01*
X00042120Y00365015D01*
X00042350Y00365067D01*
X00042580Y00365015D01*
X00042810Y00364860D01*
G01X00045450Y00365067D02*
X00045450Y00363000D01*
G01X00045450Y00365893D02*
X00045373Y00365945D01*
X00045373Y00366048D01*
X00045450Y00366100D01*
X00045527Y00366048D01*
X00045527Y00365945D01*
X00045450Y00365893D01*
G01X00048013Y00362225D02*
X00048282Y00362018D01*
X00048588Y00361967D01*
X00048857Y00362018D01*
X00049087Y00362277D01*
X00049240Y00362638D01*
X00049240Y00365067D01*
G01X00049240Y00364653D02*
X00049087Y00364860D01*
X00048857Y00365015D01*
X00048588Y00365067D01*
X00048282Y00364963D01*
X00048090Y00364757D01*
X00047937Y00364395D01*
X00047860Y00364033D01*
X00047898Y00363723D01*
X00048052Y00363362D01*
X00048282Y00363103D01*
X00048588Y00363000D01*
X00048818Y00363052D01*
X00049087Y00363258D01*
X00049240Y00363465D01*
G01X00050998Y00363000D02*
X00050998Y00365067D01*
G01X00050998Y00364550D02*
X00051152Y00364808D01*
X00051382Y00365015D01*
X00051688Y00365067D01*
X00051957Y00365015D01*
X00052187Y00364808D01*
X00052302Y00364447D01*
X00052302Y00363000D01*
G01X00054175Y00364395D02*
X00055402Y00364395D01*
X00055287Y00364757D01*
X00055095Y00364963D01*
X00054827Y00365067D01*
X00054558Y00365015D01*
X00054328Y00364860D01*
X00054175Y00364498D01*
X00054098Y00364188D01*
X00054098Y00363878D01*
X00054175Y00363568D01*
X00054367Y00363258D01*
X00054597Y00363052D01*
X00054865Y00363000D01*
X00055133Y00363103D01*
X00055402Y00363413D01*
G01X00058540Y00366100D02*
X00058540Y00363000D01*
G01X00058540Y00363465D02*
X00058387Y00363207D01*
X00058157Y00363052D01*
X00057888Y00363000D01*
X00057582Y00363103D01*
X00057352Y00363362D01*
X00057198Y00363672D01*
X00057160Y00364033D01*
X00057198Y00364395D01*
X00057352Y00364705D01*
X00057582Y00364963D01*
X00057888Y00365067D01*
X00058157Y00365015D01*
X00058348Y00364912D01*
X00058540Y00364705D01*
G01X00063360Y00363000D02*
X00063360Y00366100D01*
G01X00063360Y00364550D02*
X00063552Y00364860D01*
X00063782Y00365015D01*
X00064012Y00365067D01*
X00064357Y00364963D01*
X00064587Y00364757D01*
X00064740Y00364395D01*
X00064740Y00363982D01*
X00064663Y00363568D01*
X00064510Y00363258D01*
X00064242Y00363052D01*
X00064012Y00363000D01*
X00063782Y00363052D01*
X00063552Y00363207D01*
X00063360Y00363465D01*
G01X00066345Y00362070D02*
X00066575Y00361967D01*
X00066882Y00362070D01*
X00067073Y00362277D01*
X00067227Y00362535D01*
X00067457Y00363362D01*
X00067955Y00365067D01*
G01X00066728Y00365067D02*
X00067457Y00363362D01*
G01X00072507Y00363000D02*
X00072507Y00366100D01*
G01X00073963Y00366100D02*
X00072507Y00364188D01*
G01X00074193Y00363000D02*
X00073158Y00365067D01*
G01X00075607Y00366100D02*
X00075607Y00363878D01*
X00075760Y00363413D01*
X00076067Y00363103D01*
X00076450Y00363000D01*
X00076833Y00363103D01*
X00077140Y00363413D01*
X00077293Y00363878D01*
X00077293Y00366100D01*
G01X00078592Y00363000D02*
X00079550Y00366100D01*
X00080508Y00363000D01*
G01X00080163Y00364085D02*
X00078937Y00364085D01*
G01X00081768Y00363000D02*
X00081768Y00366100D01*
X00083532Y00363000D01*
X00083532Y00366100D01*
G01X00085980Y00364550D02*
X00086747Y00364550D01*
X00086747Y00363620D01*
X00086517Y00363310D01*
X00086248Y00363103D01*
X00085865Y00363000D01*
X00085482Y00363103D01*
X00085213Y00363310D01*
X00084983Y00363620D01*
X00084830Y00363982D01*
X00084753Y00364395D01*
X00084753Y00364757D01*
X00084830Y00365067D01*
X00084983Y00365428D01*
X00085213Y00365738D01*
X00085443Y00365945D01*
X00085750Y00366100D01*
X00086018Y00366100D01*
X00086325Y00365997D01*
X00086555Y00365790D01*
G01X00091950Y00363000D02*
X00091643Y00363052D01*
X00091375Y00363258D01*
X00091145Y00363568D01*
X00090992Y00363930D01*
X00090915Y00364343D01*
X00090915Y00364757D01*
X00090992Y00365170D01*
X00091145Y00365532D01*
X00091375Y00365842D01*
X00091643Y00366048D01*
X00091950Y00366100D01*
X00092257Y00366048D01*
X00092525Y00365842D01*
X00092755Y00365532D01*
X00092908Y00365170D01*
X00092985Y00364757D01*
X00092985Y00364343D01*
X00092908Y00363930D01*
X00092755Y00363568D01*
X00092525Y00363258D01*
X00092257Y00363052D01*
X00091950Y00363000D01*
G01X00092257Y00363827D02*
X00092717Y00363000D01*
G01X00095050Y00365067D02*
X00095050Y00363000D01*
G01X00095050Y00365893D02*
X00094973Y00365945D01*
X00094973Y00366048D01*
X00095050Y00366100D01*
X00095127Y00366048D01*
X00095127Y00365945D01*
X00095050Y00365893D01*
G01X00100522Y00365583D02*
X00100752Y00365893D01*
X00101020Y00366048D01*
X00101327Y00366100D01*
X00101710Y00365997D01*
X00101978Y00365738D01*
X00102055Y00365428D01*
X00102017Y00365118D01*
X00101863Y00364860D01*
X00101097Y00364343D01*
X00100752Y00363982D01*
X00100522Y00363465D01*
X00100445Y00363000D01*
X00102055Y00363000D01*
G01X00104350Y00366100D02*
X00104043Y00365997D01*
X00103813Y00365738D01*
X00103660Y00365428D01*
X00103545Y00365015D01*
X00103507Y00364550D01*
X00103545Y00364085D01*
X00103660Y00363672D01*
X00103813Y00363362D01*
X00104043Y00363103D01*
X00104350Y00363000D01*
X00104657Y00363103D01*
X00104887Y00363362D01*
X00105040Y00363672D01*
X00105155Y00364085D01*
X00105193Y00364550D01*
X00105155Y00365015D01*
X00105040Y00365428D01*
X00104887Y00365738D01*
X00104657Y00365997D01*
X00104350Y00366100D01*
G01X00107450Y00363000D02*
X00107450Y00366100D01*
X00106990Y00365480D01*
G01X00106990Y00363000D02*
X00107910Y00363000D01*
G01X00109707Y00363465D02*
X00109937Y00363207D01*
X00110205Y00363052D01*
X00110550Y00363000D01*
X00110895Y00363103D01*
X00111163Y00363310D01*
X00111355Y00363672D01*
X00111393Y00364085D01*
X00111317Y00364498D01*
X00111125Y00364757D01*
X00110857Y00364963D01*
X00110588Y00365015D01*
X00110320Y00364963D01*
X00109975Y00364757D01*
X00110090Y00366100D01*
X00111125Y00366100D01*
G01X00113650Y00362897D02*
X00113573Y00362948D01*
X00113573Y00363052D01*
X00113650Y00363103D01*
X00113727Y00363052D01*
X00113727Y00362948D01*
X00113650Y00362897D01*
G01X00116750Y00366100D02*
X00116443Y00365997D01*
X00116213Y00365738D01*
X00116060Y00365428D01*
X00115945Y00365015D01*
X00115907Y00364550D01*
X00115945Y00364085D01*
X00116060Y00363672D01*
X00116213Y00363362D01*
X00116443Y00363103D01*
X00116750Y00363000D01*
X00117057Y00363103D01*
X00117287Y00363362D01*
X00117440Y00363672D01*
X00117555Y00364085D01*
X00117593Y00364550D01*
X00117555Y00365015D01*
X00117440Y00365428D01*
X00117287Y00365738D01*
X00117057Y00365997D01*
X00116750Y00366100D01*
G01X00119007Y00363620D02*
X00119237Y00363258D01*
X00119543Y00363052D01*
X00119888Y00363000D01*
X00120195Y00363052D01*
X00120502Y00363310D01*
X00120693Y00363620D01*
X00120732Y00363930D01*
X00120655Y00364292D01*
X00120387Y00364550D01*
X00120118Y00364653D01*
X00119773Y00364653D01*
G01X00120118Y00364653D02*
X00120348Y00364808D01*
X00120540Y00365067D01*
X00120617Y00365377D01*
X00120540Y00365687D01*
X00120348Y00365945D01*
X00120003Y00366100D01*
X00119658Y00366048D01*
X00119313Y00365842D01*
G01X00122950Y00362897D02*
X00122873Y00362948D01*
X00122873Y00363052D01*
X00122950Y00363103D01*
X00123027Y00363052D01*
X00123027Y00362948D01*
X00122950Y00362897D01*
G01X00126050Y00363000D02*
X00126050Y00366100D01*
X00125590Y00365480D01*
G01X00125590Y00363000D02*
X00126510Y00363000D01*
G01X00129073Y00363000D02*
X00129150Y00363672D01*
X00129265Y00364240D01*
X00129418Y00364757D01*
X00129610Y00365325D01*
X00129917Y00366100D01*
X00128383Y00366100D01*
G01X00062607Y00138100D02*
X00062607Y00135878D01*
X00062760Y00135413D01*
X00063067Y00135103D01*
X00063450Y00135000D01*
X00063833Y00135103D01*
X00064140Y00135413D01*
X00064293Y00135878D01*
X00064293Y00138100D01*
G01X00067010Y00135000D02*
X00067010Y00138100D01*
X00065592Y00135878D01*
X00067508Y00135878D01*
G01X00075133Y00145000D02*
X00075133Y00148100D01*
X00076092Y00148100D01*
X00076398Y00147945D01*
X00076590Y00147738D01*
X00076667Y00147325D01*
X00076590Y00146912D01*
X00076360Y00146653D01*
X00076092Y00146498D01*
X00075133Y00146498D01*
G01X00076092Y00146498D02*
X00076667Y00145000D01*
G01X00079000Y00145000D02*
X00079000Y00148100D01*
X00078540Y00147480D01*
G01X00078540Y00145000D02*
X00079460Y00145000D01*
G01X00082100Y00145000D02*
X00082100Y00148100D01*
X00081640Y00147480D01*
G01X00081640Y00145000D02*
X00082560Y00145000D01*
G01X00076587Y00216500D02*
X00079013Y00216500D01*
G01X00099273Y00216500D02*
X00101513Y00216500D01*
G01X00100300Y00218125D02*
X00100300Y00214875D01*
G01X00074500Y00228000D02*
X00074500Y00232000D01*
X00073900Y00231200D01*
G01X00073900Y00228000D02*
X00075100Y00228000D01*
G01X00077550Y00231333D02*
X00077850Y00231733D01*
X00078200Y00231933D01*
X00078600Y00232000D01*
X00079100Y00231867D01*
X00079450Y00231533D01*
X00079550Y00231133D01*
X00079500Y00230733D01*
X00079300Y00230400D01*
X00078300Y00229733D01*
X00077850Y00229267D01*
X00077550Y00228600D01*
X00077450Y00228000D01*
X00079550Y00228000D01*
G01X00081250Y00232000D02*
X00082500Y00228000D01*
X00083750Y00232000D01*
G01X00085400Y00228000D02*
X00085400Y00232000D01*
X00086400Y00232000D01*
X00086800Y00231800D01*
X00087100Y00231533D01*
X00087350Y00231133D01*
X00087550Y00230667D01*
X00087600Y00230000D01*
X00087550Y00229333D01*
X00087350Y00228867D01*
X00087100Y00228467D01*
X00086800Y00228200D01*
X00086400Y00228000D01*
X00085400Y00228000D01*
G01X00091600Y00231667D02*
X00091300Y00231867D01*
X00090950Y00232000D01*
X00090550Y00232000D01*
X00090100Y00231800D01*
X00089750Y00231467D01*
X00089500Y00231067D01*
X00089300Y00230400D01*
X00089250Y00229800D01*
X00089350Y00229200D01*
X00089500Y00228800D01*
X00089800Y00228400D01*
X00090150Y00228133D01*
X00090500Y00228000D01*
X00090850Y00228000D01*
X00091200Y00228133D01*
X00091500Y00228333D01*
X00091750Y00228600D01*
G01X00097900Y00232000D02*
X00099100Y00232000D01*
G01X00098500Y00232000D02*
X00098500Y00228000D01*
G01X00097900Y00228000D02*
X00099100Y00228000D01*
G01X00101350Y00228000D02*
X00101350Y00232000D01*
X00103650Y00228000D01*
X00103650Y00232000D01*
G01X00088293Y00257842D02*
X00088063Y00257997D01*
X00087795Y00258100D01*
X00087488Y00258100D01*
X00087143Y00257945D01*
X00086875Y00257687D01*
X00086683Y00257377D01*
X00086530Y00256860D01*
X00086492Y00256395D01*
X00086568Y00255930D01*
X00086683Y00255620D01*
X00086913Y00255310D01*
X00087182Y00255103D01*
X00087450Y00255000D01*
X00087718Y00255000D01*
X00087987Y00255103D01*
X00088217Y00255258D01*
X00088408Y00255465D01*
G01X00090473Y00255000D02*
X00090550Y00255672D01*
X00090665Y00256240D01*
X00090818Y00256757D01*
X00091010Y00257325D01*
X00091317Y00258100D01*
X00089783Y00258100D01*
G01X00085607Y00303100D02*
X00085607Y00300878D01*
X00085760Y00300413D01*
X00086067Y00300103D01*
X00086450Y00300000D01*
X00086833Y00300103D01*
X00087140Y00300413D01*
X00087293Y00300878D01*
X00087293Y00303100D01*
G01X00088822Y00301292D02*
X00089090Y00301653D01*
X00089320Y00301860D01*
X00089627Y00301963D01*
X00089895Y00301860D01*
X00090087Y00301653D01*
X00090240Y00301343D01*
X00090278Y00300982D01*
X00090240Y00300672D01*
X00090087Y00300362D01*
X00089857Y00300103D01*
X00089588Y00300000D01*
X00089282Y00300103D01*
X00089013Y00300413D01*
X00088860Y00300878D01*
X00088822Y00301395D01*
X00088898Y00302067D01*
X00089013Y00302428D01*
X00089205Y00302790D01*
X00089473Y00303048D01*
X00089742Y00303100D01*
X00090010Y00302997D01*
X00090202Y00302738D01*
G01X00078133Y00283953D02*
X00078133Y00287053D01*
X00079092Y00287053D01*
X00079398Y00286898D01*
X00079590Y00286691D01*
X00079667Y00286278D01*
X00079590Y00285865D01*
X00079360Y00285606D01*
X00079092Y00285451D01*
X00078133Y00285451D01*
G01X00079092Y00285451D02*
X00079667Y00283953D01*
G01X00082000Y00283953D02*
X00082000Y00287053D01*
X00081540Y00286433D01*
G01X00081540Y00283953D02*
X00082460Y00283953D01*
G01X00084448Y00284315D02*
X00084717Y00284056D01*
X00085023Y00283953D01*
X00085330Y00284056D01*
X00085598Y00284366D01*
X00085790Y00284831D01*
X00085867Y00285296D01*
X00085867Y00285865D01*
X00085790Y00286330D01*
X00085598Y00286743D01*
X00085368Y00286950D01*
X00085100Y00287053D01*
X00084793Y00286950D01*
X00084563Y00286743D01*
X00084410Y00286433D01*
X00084333Y00286020D01*
X00084410Y00285658D01*
X00084602Y00285296D01*
X00084832Y00285090D01*
X00085100Y00285038D01*
X00085407Y00285141D01*
X00085637Y00285400D01*
X00085867Y00285865D01*
G01X00085607Y00347100D02*
X00085607Y00344878D01*
X00085760Y00344413D01*
X00086067Y00344103D01*
X00086450Y00344000D01*
X00086833Y00344103D01*
X00087140Y00344413D01*
X00087293Y00344878D01*
X00087293Y00347100D01*
G01X00088707Y00344465D02*
X00088937Y00344207D01*
X00089205Y00344052D01*
X00089550Y00344000D01*
X00089895Y00344103D01*
X00090163Y00344310D01*
X00090355Y00344672D01*
X00090393Y00345085D01*
X00090317Y00345498D01*
X00090125Y00345757D01*
X00089857Y00345963D01*
X00089588Y00346015D01*
X00089320Y00345963D01*
X00088975Y00345757D01*
X00089090Y00347100D01*
X00090125Y00347100D01*
G01X00078133Y00329000D02*
X00078133Y00332100D01*
X00079092Y00332100D01*
X00079398Y00331945D01*
X00079590Y00331738D01*
X00079667Y00331325D01*
X00079590Y00330912D01*
X00079360Y00330653D01*
X00079092Y00330498D01*
X00078133Y00330498D01*
G01X00079092Y00330498D02*
X00079667Y00329000D01*
G01X00082000Y00329000D02*
X00082000Y00332100D01*
X00081540Y00331480D01*
G01X00081540Y00329000D02*
X00082460Y00329000D01*
G01X00084257Y00329465D02*
X00084487Y00329207D01*
X00084755Y00329052D01*
X00085100Y00329000D01*
X00085445Y00329103D01*
X00085713Y00329310D01*
X00085905Y00329672D01*
X00085943Y00330085D01*
X00085867Y00330498D01*
X00085675Y00330757D01*
X00085407Y00330963D01*
X00085138Y00331015D01*
X00084870Y00330963D01*
X00084525Y00330757D01*
X00084640Y00332100D01*
X00085675Y00332100D01*
G01X00104383Y00086100D02*
X00104383Y00083000D01*
X00105917Y00083000D01*
G01X00107790Y00086100D02*
X00108710Y00086100D01*
G01X00108250Y00086100D02*
X00108250Y00083000D01*
G01X00107790Y00083000D02*
X00108710Y00083000D01*
G01X00111580Y00084550D02*
X00112347Y00084550D01*
X00112347Y00083620D01*
X00112117Y00083310D01*
X00111848Y00083103D01*
X00111465Y00083000D01*
X00111082Y00083103D01*
X00110813Y00083310D01*
X00110583Y00083620D01*
X00110430Y00083982D01*
X00110353Y00084395D01*
X00110353Y00084757D01*
X00110430Y00085067D01*
X00110583Y00085428D01*
X00110813Y00085738D01*
X00111043Y00085945D01*
X00111350Y00086100D01*
X00111618Y00086100D01*
X00111925Y00085997D01*
X00112155Y00085790D01*
G01X00113645Y00083000D02*
X00113645Y00086100D01*
G01X00115255Y00086100D02*
X00115255Y00083000D01*
G01X00115255Y00084550D02*
X00113645Y00084550D01*
G01X00117550Y00086100D02*
X00117550Y00083000D01*
G01X00116668Y00086100D02*
X00118432Y00086100D01*
G01X00107607Y00138100D02*
X00107607Y00135878D01*
X00107760Y00135413D01*
X00108067Y00135103D01*
X00108450Y00135000D01*
X00108833Y00135103D01*
X00109140Y00135413D01*
X00109293Y00135878D01*
X00109293Y00138100D01*
G01X00111550Y00135000D02*
X00111550Y00138100D01*
X00111090Y00137480D01*
G01X00111090Y00135000D02*
X00112010Y00135000D01*
G01X00090293Y00147842D02*
X00090063Y00147997D01*
X00089795Y00148100D01*
X00089488Y00148100D01*
X00089143Y00147945D01*
X00088875Y00147687D01*
X00088683Y00147377D01*
X00088530Y00146860D01*
X00088492Y00146395D01*
X00088568Y00145930D01*
X00088683Y00145620D01*
X00088913Y00145310D01*
X00089182Y00145103D01*
X00089450Y00145000D01*
X00089718Y00145000D01*
X00089987Y00145103D01*
X00090217Y00145258D01*
X00090408Y00145465D01*
G01X00091822Y00147583D02*
X00092052Y00147893D01*
X00092320Y00148048D01*
X00092627Y00148100D01*
X00093010Y00147997D01*
X00093278Y00147738D01*
X00093355Y00147428D01*
X00093317Y00147118D01*
X00093163Y00146860D01*
X00092397Y00146343D01*
X00092052Y00145982D01*
X00091822Y00145465D01*
X00091745Y00145000D01*
X00093355Y00145000D01*
G01X00096293Y00286795D02*
X00096063Y00286950D01*
X00095795Y00287053D01*
X00095488Y00287053D01*
X00095143Y00286898D01*
X00094875Y00286640D01*
X00094683Y00286330D01*
X00094530Y00285813D01*
X00094492Y00285348D01*
X00094568Y00284883D01*
X00094683Y00284573D01*
X00094913Y00284263D01*
X00095182Y00284056D01*
X00095450Y00283953D01*
X00095718Y00283953D01*
X00095987Y00284056D01*
X00096217Y00284211D01*
X00096408Y00284418D01*
G01X00097822Y00285245D02*
X00098090Y00285606D01*
X00098320Y00285813D01*
X00098627Y00285916D01*
X00098895Y00285813D01*
X00099087Y00285606D01*
X00099240Y00285296D01*
X00099278Y00284935D01*
X00099240Y00284625D01*
X00099087Y00284315D01*
X00098857Y00284056D01*
X00098588Y00283953D01*
X00098282Y00284056D01*
X00098013Y00284366D01*
X00097860Y00284831D01*
X00097822Y00285348D01*
X00097898Y00286020D01*
X00098013Y00286381D01*
X00098205Y00286743D01*
X00098473Y00287001D01*
X00098742Y00287053D01*
X00099010Y00286950D01*
X00099202Y00286691D01*
G01X00103293Y00330795D02*
X00103063Y00330950D01*
X00102795Y00331053D01*
X00102488Y00331053D01*
X00102143Y00330898D01*
X00101875Y00330640D01*
X00101683Y00330330D01*
X00101530Y00329813D01*
X00101492Y00329348D01*
X00101568Y00328883D01*
X00101683Y00328573D01*
X00101913Y00328263D01*
X00102182Y00328056D01*
X00102450Y00327953D01*
X00102718Y00327953D01*
X00102987Y00328056D01*
X00103217Y00328211D01*
X00103408Y00328418D01*
G01X00104707Y00328418D02*
X00104937Y00328160D01*
X00105205Y00328005D01*
X00105550Y00327953D01*
X00105895Y00328056D01*
X00106163Y00328263D01*
X00106355Y00328625D01*
X00106393Y00329038D01*
X00106317Y00329451D01*
X00106125Y00329710D01*
X00105857Y00329916D01*
X00105588Y00329968D01*
X00105320Y00329916D01*
X00104975Y00329710D01*
X00105090Y00331053D01*
X00106125Y00331053D01*
G01X00120683Y00145000D02*
X00120683Y00148100D01*
X00121642Y00148100D01*
X00121948Y00147945D01*
X00122140Y00147738D01*
X00122217Y00147325D01*
X00122140Y00146912D01*
X00121910Y00146653D01*
X00121642Y00146498D01*
X00120683Y00146498D01*
G01X00121642Y00146498D02*
X00122217Y00145000D01*
G01X00123822Y00147583D02*
X00124052Y00147893D01*
X00124320Y00148048D01*
X00124627Y00148100D01*
X00125010Y00147997D01*
X00125278Y00147738D01*
X00125355Y00147428D01*
X00125317Y00147118D01*
X00125163Y00146860D01*
X00124397Y00146343D01*
X00124052Y00145982D01*
X00123822Y00145465D01*
X00123745Y00145000D01*
X00125355Y00145000D01*
G01X00134293Y00147842D02*
X00134063Y00147997D01*
X00133795Y00148100D01*
X00133488Y00148100D01*
X00133143Y00147945D01*
X00132875Y00147687D01*
X00132683Y00147377D01*
X00132530Y00146860D01*
X00132492Y00146395D01*
X00132568Y00145930D01*
X00132683Y00145620D01*
X00132913Y00145310D01*
X00133182Y00145103D01*
X00133450Y00145000D01*
X00133718Y00145000D01*
X00133987Y00145103D01*
X00134217Y00145258D01*
X00134408Y00145465D01*
G01X00135707Y00145620D02*
X00135937Y00145258D01*
X00136243Y00145052D01*
X00136588Y00145000D01*
X00136895Y00145052D01*
X00137202Y00145310D01*
X00137393Y00145620D01*
X00137432Y00145930D01*
X00137355Y00146292D01*
X00137087Y00146550D01*
X00136818Y00146653D01*
X00136473Y00146653D01*
G01X00136818Y00146653D02*
X00137048Y00146808D01*
X00137240Y00147067D01*
X00137317Y00147377D01*
X00137240Y00147687D01*
X00137048Y00147945D01*
X00136703Y00148100D01*
X00136358Y00148048D01*
X00136013Y00147842D01*
G01X00128450Y00208000D02*
X00128143Y00208052D01*
X00127875Y00208258D01*
X00127645Y00208568D01*
X00127492Y00208930D01*
X00127415Y00209343D01*
X00127415Y00209757D01*
X00127492Y00210170D01*
X00127645Y00210532D01*
X00127875Y00210842D01*
X00128143Y00211048D01*
X00128450Y00211100D01*
X00128757Y00211048D01*
X00129025Y00210842D01*
X00129255Y00210532D01*
X00129408Y00210170D01*
X00129485Y00209757D01*
X00129485Y00209343D01*
X00129408Y00208930D01*
X00129255Y00208568D01*
X00129025Y00208258D01*
X00128757Y00208052D01*
X00128450Y00208000D01*
G01X00128757Y00208827D02*
X00129217Y00208000D01*
G01X00132010Y00208000D02*
X00132010Y00211100D01*
X00130592Y00208878D01*
X00132508Y00208878D01*
G01X00128450Y00232000D02*
X00128143Y00232052D01*
X00127875Y00232258D01*
X00127645Y00232568D01*
X00127492Y00232930D01*
X00127415Y00233343D01*
X00127415Y00233757D01*
X00127492Y00234170D01*
X00127645Y00234532D01*
X00127875Y00234842D01*
X00128143Y00235048D01*
X00128450Y00235100D01*
X00128757Y00235048D01*
X00129025Y00234842D01*
X00129255Y00234532D01*
X00129408Y00234170D01*
X00129485Y00233757D01*
X00129485Y00233343D01*
X00129408Y00232930D01*
X00129255Y00232568D01*
X00129025Y00232258D01*
X00128757Y00232052D01*
X00128450Y00232000D01*
G01X00128757Y00232827D02*
X00129217Y00232000D01*
G01X00130707Y00232620D02*
X00130937Y00232258D01*
X00131243Y00232052D01*
X00131588Y00232000D01*
X00131895Y00232052D01*
X00132202Y00232310D01*
X00132393Y00232620D01*
X00132432Y00232930D01*
X00132355Y00233292D01*
X00132087Y00233550D01*
X00131818Y00233653D01*
X00131473Y00233653D01*
G01X00131818Y00233653D02*
X00132048Y00233808D01*
X00132240Y00234067D01*
X00132317Y00234377D01*
X00132240Y00234687D01*
X00132048Y00234945D01*
X00131703Y00235100D01*
X00131358Y00235048D01*
X00131013Y00234842D01*
G01X00128450Y00255000D02*
X00128143Y00255052D01*
X00127875Y00255258D01*
X00127645Y00255568D01*
X00127492Y00255930D01*
X00127415Y00256343D01*
X00127415Y00256757D01*
X00127492Y00257170D01*
X00127645Y00257532D01*
X00127875Y00257842D01*
X00128143Y00258048D01*
X00128450Y00258100D01*
X00128757Y00258048D01*
X00129025Y00257842D01*
X00129255Y00257532D01*
X00129408Y00257170D01*
X00129485Y00256757D01*
X00129485Y00256343D01*
X00129408Y00255930D01*
X00129255Y00255568D01*
X00129025Y00255258D01*
X00128757Y00255052D01*
X00128450Y00255000D01*
G01X00128757Y00255827D02*
X00129217Y00255000D01*
G01X00130822Y00257583D02*
X00131052Y00257893D01*
X00131320Y00258048D01*
X00131627Y00258100D01*
X00132010Y00257997D01*
X00132278Y00257738D01*
X00132355Y00257428D01*
X00132317Y00257118D01*
X00132163Y00256860D01*
X00131397Y00256343D01*
X00131052Y00255982D01*
X00130822Y00255465D01*
X00130745Y00255000D01*
X00132355Y00255000D01*
G01X00128450Y00278000D02*
X00128143Y00278052D01*
X00127875Y00278258D01*
X00127645Y00278568D01*
X00127492Y00278930D01*
X00127415Y00279343D01*
X00127415Y00279757D01*
X00127492Y00280170D01*
X00127645Y00280532D01*
X00127875Y00280842D01*
X00128143Y00281048D01*
X00128450Y00281100D01*
X00128757Y00281048D01*
X00129025Y00280842D01*
X00129255Y00280532D01*
X00129408Y00280170D01*
X00129485Y00279757D01*
X00129485Y00279343D01*
X00129408Y00278930D01*
X00129255Y00278568D01*
X00129025Y00278258D01*
X00128757Y00278052D01*
X00128450Y00278000D01*
G01X00128757Y00278827D02*
X00129217Y00278000D01*
G01X00131550Y00278000D02*
X00131550Y00281100D01*
X00131090Y00280480D01*
G01X00131090Y00278000D02*
X00132010Y00278000D01*
G01X00127383Y00317000D02*
X00127383Y00320100D01*
X00128303Y00320100D01*
X00128610Y00319945D01*
X00128840Y00319583D01*
X00128917Y00319170D01*
X00128840Y00318757D01*
X00128648Y00318447D01*
X00128303Y00318292D01*
X00127383Y00318292D01*
G01X00130407Y00320100D02*
X00130407Y00317878D01*
X00130560Y00317413D01*
X00130867Y00317103D01*
X00131250Y00317000D01*
X00131633Y00317103D01*
X00131940Y00317413D01*
X00132093Y00317878D01*
X00132093Y00320100D01*
G01X00133353Y00317000D02*
X00133353Y00320100D01*
X00134350Y00317517D01*
X00135347Y00320100D01*
X00135347Y00317000D01*
G01X00136683Y00317000D02*
X00136683Y00320100D01*
X00137603Y00320100D01*
X00137910Y00319945D01*
X00138140Y00319583D01*
X00138217Y00319170D01*
X00138140Y00318757D01*
X00137948Y00318447D01*
X00137603Y00318292D01*
X00136683Y00318292D01*
G01X00124383Y00337100D02*
X00124383Y00334000D01*
X00125917Y00334000D01*
G01X00127790Y00337100D02*
X00128710Y00337100D01*
G01X00128250Y00337100D02*
X00128250Y00334000D01*
G01X00127790Y00334000D02*
X00128710Y00334000D01*
G01X00131580Y00335550D02*
X00132347Y00335550D01*
X00132347Y00334620D01*
X00132117Y00334310D01*
X00131848Y00334103D01*
X00131465Y00334000D01*
X00131082Y00334103D01*
X00130813Y00334310D01*
X00130583Y00334620D01*
X00130430Y00334982D01*
X00130353Y00335395D01*
X00130353Y00335757D01*
X00130430Y00336067D01*
X00130583Y00336428D01*
X00130813Y00336738D01*
X00131043Y00336945D01*
X00131350Y00337100D01*
X00131618Y00337100D01*
X00131925Y00336997D01*
X00132155Y00336790D01*
G01X00133645Y00334000D02*
X00133645Y00337100D01*
G01X00135255Y00337100D02*
X00135255Y00334000D01*
G01X00135255Y00335550D02*
X00133645Y00335550D01*
G01X00137550Y00337100D02*
X00137550Y00334000D01*
G01X00136668Y00337100D02*
X00138432Y00337100D01*
G01X00151607Y00139100D02*
X00151607Y00136878D01*
X00151760Y00136413D01*
X00152067Y00136103D01*
X00152450Y00136000D01*
X00152833Y00136103D01*
X00153140Y00136413D01*
X00153293Y00136878D01*
X00153293Y00139100D01*
G01X00154707Y00136620D02*
X00154937Y00136258D01*
X00155243Y00136052D01*
X00155588Y00136000D01*
X00155895Y00136052D01*
X00156202Y00136310D01*
X00156393Y00136620D01*
X00156432Y00136930D01*
X00156355Y00137292D01*
X00156087Y00137550D01*
X00155818Y00137653D01*
X00155473Y00137653D01*
G01X00155818Y00137653D02*
X00156048Y00137808D01*
X00156240Y00138067D01*
X00156317Y00138377D01*
X00156240Y00138687D01*
X00156048Y00138945D01*
X00155703Y00139100D01*
X00155358Y00139048D01*
X00155013Y00138842D01*
G01X00165683Y00145000D02*
X00165683Y00148100D01*
X00166642Y00148100D01*
X00166948Y00147945D01*
X00167140Y00147738D01*
X00167217Y00147325D01*
X00167140Y00146912D01*
X00166910Y00146653D01*
X00166642Y00146498D01*
X00165683Y00146498D01*
G01X00166642Y00146498D02*
X00167217Y00145000D01*
G01X00169550Y00145000D02*
X00169818Y00145052D01*
X00170125Y00145207D01*
X00170317Y00145465D01*
X00170393Y00145827D01*
X00170317Y00146188D01*
X00170087Y00146498D01*
X00169742Y00146653D01*
X00169358Y00146653D01*
X00169128Y00146757D01*
X00168937Y00147015D01*
X00168860Y00147377D01*
X00168975Y00147738D01*
X00169243Y00147997D01*
X00169550Y00148100D01*
X00169857Y00147997D01*
X00170125Y00147738D01*
X00170240Y00147377D01*
X00170163Y00147015D01*
X00169972Y00146757D01*
X00169742Y00146653D01*
X00169358Y00146653D01*
X00169013Y00146498D01*
X00168783Y00146188D01*
X00168707Y00145827D01*
X00168783Y00145465D01*
X00168975Y00145207D01*
X00169282Y00145052D01*
X00169550Y00145000D01*
G01X00153057Y00219000D02*
X00153057Y00222100D01*
X00153823Y00222100D01*
X00154130Y00221945D01*
X00154360Y00221738D01*
X00154552Y00221428D01*
X00154705Y00221067D01*
X00154743Y00220550D01*
X00154705Y00220033D01*
X00154552Y00219672D01*
X00154360Y00219362D01*
X00154130Y00219155D01*
X00153823Y00219000D01*
X00153057Y00219000D01*
G01X00157000Y00219000D02*
X00157000Y00222100D01*
X00156540Y00221480D01*
G01X00156540Y00219000D02*
X00157460Y00219000D01*
G01X00159372Y00221583D02*
X00159602Y00221893D01*
X00159870Y00222048D01*
X00160177Y00222100D01*
X00160560Y00221997D01*
X00160828Y00221738D01*
X00160905Y00221428D01*
X00160867Y00221118D01*
X00160713Y00220860D01*
X00159947Y00220343D01*
X00159602Y00219982D01*
X00159372Y00219465D01*
X00159295Y00219000D01*
X00160905Y00219000D01*
G01X00153057Y00252000D02*
X00153057Y00255100D01*
X00153823Y00255100D01*
X00154130Y00254945D01*
X00154360Y00254738D01*
X00154552Y00254428D01*
X00154705Y00254067D01*
X00154743Y00253550D01*
X00154705Y00253033D01*
X00154552Y00252672D01*
X00154360Y00252362D01*
X00154130Y00252155D01*
X00153823Y00252000D01*
X00153057Y00252000D01*
G01X00157000Y00252000D02*
X00157000Y00255100D01*
X00156540Y00254480D01*
G01X00156540Y00252000D02*
X00157460Y00252000D01*
G01X00160100Y00255100D02*
X00159793Y00254997D01*
X00159563Y00254738D01*
X00159410Y00254428D01*
X00159295Y00254015D01*
X00159257Y00253550D01*
X00159295Y00253085D01*
X00159410Y00252672D01*
X00159563Y00252362D01*
X00159793Y00252103D01*
X00160100Y00252000D01*
X00160407Y00252103D01*
X00160637Y00252362D01*
X00160790Y00252672D01*
X00160905Y00253085D01*
X00160943Y00253550D01*
X00160905Y00254015D01*
X00160790Y00254428D01*
X00160637Y00254738D01*
X00160407Y00254997D01*
X00160100Y00255100D01*
G01X00154607Y00282000D02*
X00154607Y00285100D01*
X00155373Y00285100D01*
X00155680Y00284945D01*
X00155910Y00284738D01*
X00156102Y00284428D01*
X00156255Y00284067D01*
X00156293Y00283550D01*
X00156255Y00283033D01*
X00156102Y00282672D01*
X00155910Y00282362D01*
X00155680Y00282155D01*
X00155373Y00282000D01*
X00154607Y00282000D01*
G01X00158550Y00282000D02*
X00158818Y00282052D01*
X00159125Y00282207D01*
X00159317Y00282465D01*
X00159393Y00282827D01*
X00159317Y00283188D01*
X00159087Y00283498D01*
X00158742Y00283653D01*
X00158358Y00283653D01*
X00158128Y00283757D01*
X00157937Y00284015D01*
X00157860Y00284377D01*
X00157975Y00284738D01*
X00158243Y00284997D01*
X00158550Y00285100D01*
X00158857Y00284997D01*
X00159125Y00284738D01*
X00159240Y00284377D01*
X00159163Y00284015D01*
X00158972Y00283757D01*
X00158742Y00283653D01*
X00158358Y00283653D01*
X00158013Y00283498D01*
X00157783Y00283188D01*
X00157707Y00282827D01*
X00157783Y00282465D01*
X00157975Y00282207D01*
X00158282Y00282052D01*
X00158550Y00282000D01*
G01X00153345Y00319000D02*
X00153345Y00322100D01*
G01X00154955Y00322100D02*
X00154955Y00319000D01*
G01X00154955Y00320550D02*
X00153345Y00320550D01*
G01X00158017Y00319000D02*
X00156483Y00319000D01*
X00156483Y00322100D01*
X00158017Y00322100D01*
G01X00157403Y00320602D02*
X00156483Y00320602D01*
G01X00159392Y00319000D02*
X00160350Y00322100D01*
X00161308Y00319000D01*
G01X00160963Y00320085D02*
X00159737Y00320085D01*
G01X00163450Y00322100D02*
X00163450Y00319000D01*
G01X00162568Y00322100D02*
X00164332Y00322100D01*
G01X00167317Y00319000D02*
X00165783Y00319000D01*
X00165783Y00322100D01*
X00167317Y00322100D01*
G01X00166703Y00320602D02*
X00165783Y00320602D01*
G01X00168883Y00319000D02*
X00168883Y00322100D01*
X00169842Y00322100D01*
X00170148Y00321945D01*
X00170340Y00321738D01*
X00170417Y00321325D01*
X00170340Y00320912D01*
X00170110Y00320653D01*
X00169842Y00320498D01*
X00168883Y00320498D01*
G01X00169842Y00320498D02*
X00170417Y00319000D01*
G01X00164488Y00349100D02*
X00166368Y00349100D01*
G01X00165350Y00350465D02*
X00165350Y00347735D01*
G01X00176932Y00349100D02*
X00178968Y00349100D01*
G01X00152333Y00370500D02*
X00155000Y00369500D01*
X00152333Y00368500D01*
G01X00155000Y00369500D02*
X00149667Y00369500D01*
G01X00155000Y00366500D02*
X00151000Y00366500D01*
X00151000Y00364500D01*
G01X00155000Y00362100D02*
X00155000Y00360900D01*
G01X00155000Y00361500D02*
X00151000Y00361500D01*
G01X00151000Y00362100D02*
X00151000Y00360900D01*
G01X00153000Y00357200D02*
X00153000Y00356200D01*
X00151800Y00356200D01*
X00151400Y00356500D01*
X00151133Y00356850D01*
X00151000Y00357350D01*
X00151133Y00357850D01*
X00151400Y00358200D01*
X00151800Y00358500D01*
X00152267Y00358700D01*
X00152800Y00358800D01*
X00153267Y00358800D01*
X00153667Y00358700D01*
X00154133Y00358500D01*
X00154533Y00358200D01*
X00154800Y00357900D01*
X00155000Y00357500D01*
X00155000Y00357150D01*
X00154867Y00356750D01*
X00154600Y00356450D01*
G01X00151000Y00354550D02*
X00155000Y00354550D01*
G01X00155000Y00352450D02*
X00151000Y00352450D01*
G01X00153000Y00352450D02*
X00153000Y00354550D01*
G01X00155000Y00349500D02*
X00151000Y00349500D01*
G01X00155000Y00350650D02*
X00155000Y00348350D01*
G01X00154422Y00336000D02*
X00154422Y00339100D01*
X00155878Y00339100D01*
G01X00155342Y00337602D02*
X00154422Y00337602D01*
G01X00157292Y00336000D02*
X00158250Y00339100D01*
X00159208Y00336000D01*
G01X00158863Y00337085D02*
X00157637Y00337085D01*
G01X00160468Y00336000D02*
X00160468Y00339100D01*
X00162232Y00336000D01*
X00162232Y00339100D01*
G01X00171383Y00082000D02*
X00171383Y00085100D01*
X00172303Y00085100D01*
X00172610Y00084945D01*
X00172840Y00084583D01*
X00172917Y00084170D01*
X00172840Y00083757D01*
X00172648Y00083447D01*
X00172303Y00083292D01*
X00171383Y00083292D01*
G01X00174407Y00085100D02*
X00174407Y00082878D01*
X00174560Y00082413D01*
X00174867Y00082103D01*
X00175250Y00082000D01*
X00175633Y00082103D01*
X00175940Y00082413D01*
X00176093Y00082878D01*
X00176093Y00085100D01*
G01X00177353Y00082000D02*
X00177353Y00085100D01*
X00178350Y00082517D01*
X00179347Y00085100D01*
X00179347Y00082000D01*
G01X00180683Y00082000D02*
X00180683Y00085100D01*
X00181603Y00085100D01*
X00181910Y00084945D01*
X00182140Y00084583D01*
X00182217Y00084170D01*
X00182140Y00083757D01*
X00181948Y00083447D01*
X00181603Y00083292D01*
X00180683Y00083292D01*
G01X00177293Y00147842D02*
X00177063Y00147997D01*
X00176795Y00148100D01*
X00176488Y00148100D01*
X00176143Y00147945D01*
X00175875Y00147687D01*
X00175683Y00147377D01*
X00175530Y00146860D01*
X00175492Y00146395D01*
X00175568Y00145930D01*
X00175683Y00145620D01*
X00175913Y00145310D01*
X00176182Y00145103D01*
X00176450Y00145000D01*
X00176718Y00145000D01*
X00176987Y00145103D01*
X00177217Y00145258D01*
X00177408Y00145465D01*
G01X00180010Y00145000D02*
X00180010Y00148100D01*
X00178592Y00145878D01*
X00180508Y00145878D01*
G01X00194607Y00139100D02*
X00194607Y00136878D01*
X00194760Y00136413D01*
X00195067Y00136103D01*
X00195450Y00136000D01*
X00195833Y00136103D01*
X00196140Y00136413D01*
X00196293Y00136878D01*
X00196293Y00139100D01*
G01X00197822Y00138583D02*
X00198052Y00138893D01*
X00198320Y00139048D01*
X00198627Y00139100D01*
X00199010Y00138997D01*
X00199278Y00138738D01*
X00199355Y00138428D01*
X00199317Y00138118D01*
X00199163Y00137860D01*
X00198397Y00137343D01*
X00198052Y00136982D01*
X00197822Y00136465D01*
X00197745Y00136000D01*
X00199355Y00136000D01*
G01X00208683Y00145000D02*
X00208683Y00148100D01*
X00209642Y00148100D01*
X00209948Y00147945D01*
X00210140Y00147738D01*
X00210217Y00147325D01*
X00210140Y00146912D01*
X00209910Y00146653D01*
X00209642Y00146498D01*
X00208683Y00146498D01*
G01X00209642Y00146498D02*
X00210217Y00145000D01*
G01X00211707Y00145465D02*
X00211937Y00145207D01*
X00212205Y00145052D01*
X00212550Y00145000D01*
X00212895Y00145103D01*
X00213163Y00145310D01*
X00213355Y00145672D01*
X00213393Y00146085D01*
X00213317Y00146498D01*
X00213125Y00146757D01*
X00212857Y00146963D01*
X00212588Y00147015D01*
X00212320Y00146963D01*
X00211975Y00146757D01*
X00212090Y00148100D01*
X00213125Y00148100D01*
G01X00212488Y00349100D02*
X00214368Y00349100D01*
G01X00213350Y00350465D02*
X00213350Y00347735D01*
G01X00224932Y00349100D02*
X00226968Y00349100D01*
G01X00200333Y00370500D02*
X00203000Y00369500D01*
X00200333Y00368500D01*
G01X00203000Y00369500D02*
X00197667Y00369500D01*
G01X00199000Y00366550D02*
X00203000Y00366550D01*
G01X00203000Y00364450D02*
X00199000Y00364450D01*
G01X00201000Y00364450D02*
X00201000Y00366550D01*
G01X00199000Y00360500D02*
X00199000Y00362500D01*
X00203000Y00362500D01*
X00203000Y00360500D01*
G01X00201067Y00361300D02*
X00201067Y00362500D01*
G01X00199000Y00358750D02*
X00203000Y00357500D01*
X00199000Y00356250D01*
G01X00200400Y00356700D02*
X00200400Y00358300D01*
G01X00203000Y00353500D02*
X00199000Y00353500D01*
G01X00203000Y00354650D02*
X00203000Y00352350D01*
G01X00199000Y00348500D02*
X00199000Y00350500D01*
X00203000Y00350500D01*
X00203000Y00348500D01*
G01X00201067Y00349300D02*
X00201067Y00350500D01*
G01X00199000Y00346500D02*
X00203000Y00346500D01*
X00203000Y00345250D01*
X00202800Y00344850D01*
X00202533Y00344600D01*
X00202000Y00344500D01*
X00201467Y00344600D01*
X00201133Y00344900D01*
X00200933Y00345250D01*
X00200933Y00346500D01*
G01X00200933Y00345250D02*
X00199000Y00344500D01*
G01X00239422Y00082000D02*
X00239422Y00085100D01*
X00240878Y00085100D01*
G01X00240342Y00083602D02*
X00239422Y00083602D01*
G01X00242292Y00082000D02*
X00243250Y00085100D01*
X00244208Y00082000D01*
G01X00243863Y00083085D02*
X00242637Y00083085D01*
G01X00245468Y00082000D02*
X00245468Y00085100D01*
X00247232Y00082000D01*
X00247232Y00085100D01*
G01X00231667Y00200500D02*
X00229000Y00201500D01*
X00231667Y00202500D01*
G01X00229000Y00201500D02*
X00234333Y00201500D01*
G01X00229667Y00204550D02*
X00229267Y00204850D01*
X00229067Y00205200D01*
X00229000Y00205600D01*
X00229133Y00206100D01*
X00229467Y00206450D01*
X00229867Y00206550D01*
X00230267Y00206500D01*
X00230600Y00206300D01*
X00231267Y00205300D01*
X00231733Y00204850D01*
X00232400Y00204550D01*
X00233000Y00204450D01*
X00233000Y00206550D01*
G01X00229667Y00208550D02*
X00229267Y00208850D01*
X00229067Y00209200D01*
X00229000Y00209600D01*
X00229133Y00210100D01*
X00229467Y00210450D01*
X00229867Y00210550D01*
X00230267Y00210500D01*
X00230600Y00210300D01*
X00231267Y00209300D01*
X00231733Y00208850D01*
X00232400Y00208550D01*
X00233000Y00208450D01*
X00233000Y00210550D01*
G01X00229000Y00213500D02*
X00229133Y00213100D01*
X00229467Y00212800D01*
X00229867Y00212600D01*
X00230400Y00212450D01*
X00231000Y00212400D01*
X00231600Y00212450D01*
X00232133Y00212600D01*
X00232533Y00212800D01*
X00232867Y00213100D01*
X00233000Y00213500D01*
X00232867Y00213900D01*
X00232533Y00214200D01*
X00232133Y00214400D01*
X00231600Y00214550D01*
X00231000Y00214600D01*
X00230400Y00214550D01*
X00229867Y00214400D01*
X00229467Y00214200D01*
X00229133Y00213900D01*
X00229000Y00213500D01*
G01X00229000Y00216250D02*
X00233000Y00217500D01*
X00229000Y00218750D01*
G01X00233000Y00224450D02*
X00229000Y00224450D01*
G01X00229000Y00226550D02*
X00233000Y00226550D01*
G01X00231000Y00226550D02*
X00231000Y00224450D01*
G01X00233000Y00230500D02*
X00233000Y00228500D01*
X00229000Y00228500D01*
X00229000Y00230500D01*
G01X00230933Y00229700D02*
X00230933Y00228500D01*
G01X00233000Y00232250D02*
X00229000Y00233500D01*
X00233000Y00234750D01*
G01X00231600Y00234300D02*
X00231600Y00232700D01*
G01X00229000Y00237500D02*
X00233000Y00237500D01*
G01X00229000Y00236350D02*
X00229000Y00238650D01*
G01X00233000Y00242500D02*
X00233000Y00240500D01*
X00229000Y00240500D01*
X00229000Y00242500D01*
G01X00230933Y00241700D02*
X00230933Y00240500D01*
G01X00233000Y00244500D02*
X00229000Y00244500D01*
X00229000Y00245750D01*
X00229200Y00246150D01*
X00229467Y00246400D01*
X00230000Y00246500D01*
X00230533Y00246400D01*
X00230867Y00246100D01*
X00231067Y00245750D01*
X00231067Y00244500D01*
G01X00231067Y00245750D02*
X00233000Y00246500D01*
G01X00231667Y00248500D02*
X00229000Y00249500D01*
X00231667Y00250500D01*
G01X00229000Y00249500D02*
X00234333Y00249500D01*
G01X00248333Y00370500D02*
X00251000Y00369500D01*
X00248333Y00368500D01*
G01X00251000Y00369500D02*
X00245667Y00369500D01*
G01X00247000Y00366500D02*
X00251000Y00366500D01*
X00251000Y00365300D01*
X00250800Y00364900D01*
X00250333Y00364600D01*
X00249800Y00364500D01*
X00249267Y00364600D01*
X00248867Y00364850D01*
X00248667Y00365300D01*
X00248667Y00366500D01*
G01X00251000Y00362600D02*
X00248133Y00362600D01*
X00247533Y00362400D01*
X00247133Y00362000D01*
X00247000Y00361500D01*
X00247133Y00361000D01*
X00247533Y00360600D01*
X00248133Y00360400D01*
X00251000Y00360400D01*
G01X00247000Y00358800D02*
X00251000Y00358800D01*
X00247667Y00357500D01*
X00251000Y00356200D01*
X00247000Y00356200D01*
G01X00247000Y00354500D02*
X00251000Y00354500D01*
X00251000Y00353300D01*
X00250800Y00352900D01*
X00250333Y00352600D01*
X00249800Y00352500D01*
X00249267Y00352600D01*
X00248867Y00352850D01*
X00248667Y00353300D01*
X00248667Y00354500D01*
G01X00260488Y00349100D02*
X00262368Y00349100D01*
G01X00261350Y00350465D02*
X00261350Y00347735D01*
G01X00272932Y00349100D02*
X00274968Y00349100D01*
G01X00285667Y00200500D02*
X00283000Y00201500D01*
X00285667Y00202500D01*
G01X00283000Y00201500D02*
X00288333Y00201500D01*
G01X00283667Y00204550D02*
X00283267Y00204850D01*
X00283067Y00205200D01*
X00283000Y00205600D01*
X00283133Y00206100D01*
X00283467Y00206450D01*
X00283867Y00206550D01*
X00284267Y00206500D01*
X00284600Y00206300D01*
X00285267Y00205300D01*
X00285733Y00204850D01*
X00286400Y00204550D01*
X00287000Y00204450D01*
X00287000Y00206550D01*
G01X00283667Y00208550D02*
X00283267Y00208850D01*
X00283067Y00209200D01*
X00283000Y00209600D01*
X00283133Y00210100D01*
X00283467Y00210450D01*
X00283867Y00210550D01*
X00284267Y00210500D01*
X00284600Y00210300D01*
X00285267Y00209300D01*
X00285733Y00208850D01*
X00286400Y00208550D01*
X00287000Y00208450D01*
X00287000Y00210550D01*
G01X00283000Y00213500D02*
X00283133Y00213100D01*
X00283467Y00212800D01*
X00283867Y00212600D01*
X00284400Y00212450D01*
X00285000Y00212400D01*
X00285600Y00212450D01*
X00286133Y00212600D01*
X00286533Y00212800D01*
X00286867Y00213100D01*
X00287000Y00213500D01*
X00286867Y00213900D01*
X00286533Y00214200D01*
X00286133Y00214400D01*
X00285600Y00214550D01*
X00285000Y00214600D01*
X00284400Y00214550D01*
X00283867Y00214400D01*
X00283467Y00214200D01*
X00283133Y00213900D01*
X00283000Y00213500D01*
G01X00283000Y00216250D02*
X00287000Y00217500D01*
X00283000Y00218750D01*
G01X00287000Y00224500D02*
X00283000Y00224500D01*
X00283000Y00225700D01*
X00283200Y00226100D01*
X00283667Y00226400D01*
X00284200Y00226500D01*
X00284733Y00226400D01*
X00285133Y00226150D01*
X00285333Y00225700D01*
X00285333Y00224500D01*
G01X00283000Y00228400D02*
X00285867Y00228400D01*
X00286467Y00228600D01*
X00286867Y00229000D01*
X00287000Y00229500D01*
X00286867Y00230000D01*
X00286467Y00230400D01*
X00285867Y00230600D01*
X00283000Y00230600D01*
G01X00287000Y00232200D02*
X00283000Y00232200D01*
X00286333Y00233500D01*
X00283000Y00234800D01*
X00287000Y00234800D01*
G01X00287000Y00236500D02*
X00283000Y00236500D01*
X00283000Y00237700D01*
X00283200Y00238100D01*
X00283667Y00238400D01*
X00284200Y00238500D01*
X00284733Y00238400D01*
X00285133Y00238150D01*
X00285333Y00237700D01*
X00285333Y00236500D01*
G01X00285667Y00240500D02*
X00283000Y00241500D01*
X00285667Y00242500D01*
G01X00283000Y00241500D02*
X00288333Y00241500D01*
G01X00296333Y00369500D02*
X00299000Y00368500D01*
X00296333Y00367500D01*
G01X00299000Y00368500D02*
X00293667Y00368500D01*
G01X00295000Y00365450D02*
X00299000Y00365450D01*
X00299000Y00363550D01*
G01X00297067Y00364250D02*
X00297067Y00365450D01*
G01X00295000Y00361750D02*
X00299000Y00360500D01*
X00295000Y00359250D01*
G01X00296400Y00359700D02*
X00296400Y00361300D01*
G01X00295000Y00357650D02*
X00299000Y00357650D01*
X00295000Y00355350D01*
X00299000Y00355350D01*
G01X00307683Y00167000D02*
X00307683Y00170100D01*
X00308642Y00170100D01*
X00308948Y00169945D01*
X00309140Y00169738D01*
X00309217Y00169325D01*
X00309140Y00168912D01*
X00308910Y00168653D01*
X00308642Y00168498D01*
X00307683Y00168498D01*
G01X00308642Y00168498D02*
X00309217Y00167000D01*
G01X00310707Y00167620D02*
X00310937Y00167258D01*
X00311243Y00167052D01*
X00311588Y00167000D01*
X00311895Y00167052D01*
X00312202Y00167310D01*
X00312393Y00167620D01*
X00312432Y00167930D01*
X00312355Y00168292D01*
X00312087Y00168550D01*
X00311818Y00168653D01*
X00311473Y00168653D01*
G01X00311818Y00168653D02*
X00312048Y00168808D01*
X00312240Y00169067D01*
X00312317Y00169377D01*
X00312240Y00169687D01*
X00312048Y00169945D01*
X00311703Y00170100D01*
X00311358Y00170048D01*
X00311013Y00169842D01*
G01X00307683Y00178000D02*
X00307683Y00181100D01*
X00308642Y00181100D01*
X00308948Y00180945D01*
X00309140Y00180738D01*
X00309217Y00180325D01*
X00309140Y00179912D01*
X00308910Y00179653D01*
X00308642Y00179498D01*
X00307683Y00179498D01*
G01X00308642Y00179498D02*
X00309217Y00178000D01*
G01X00310822Y00179292D02*
X00311090Y00179653D01*
X00311320Y00179860D01*
X00311627Y00179963D01*
X00311895Y00179860D01*
X00312087Y00179653D01*
X00312240Y00179343D01*
X00312278Y00178982D01*
X00312240Y00178672D01*
X00312087Y00178362D01*
X00311857Y00178103D01*
X00311588Y00178000D01*
X00311282Y00178103D01*
X00311013Y00178413D01*
X00310860Y00178878D01*
X00310822Y00179395D01*
X00310898Y00180067D01*
X00311013Y00180428D01*
X00311205Y00180790D01*
X00311473Y00181048D01*
X00311742Y00181100D01*
X00312010Y00180997D01*
X00312202Y00180738D01*
G01X00308488Y00349100D02*
X00310368Y00349100D01*
G01X00309350Y00350465D02*
X00309350Y00347735D01*
G01X00320932Y00349100D02*
X00322968Y00349100D01*
G01X00335383Y00183000D02*
X00335383Y00186100D01*
X00336303Y00186100D01*
X00336610Y00185945D01*
X00336840Y00185583D01*
X00336917Y00185170D01*
X00336840Y00184757D01*
X00336648Y00184447D01*
X00336303Y00184292D01*
X00335383Y00184292D01*
G01X00339250Y00183000D02*
X00338943Y00183052D01*
X00338675Y00183258D01*
X00338445Y00183568D01*
X00338292Y00183930D01*
X00338215Y00184343D01*
X00338215Y00184757D01*
X00338292Y00185170D01*
X00338445Y00185532D01*
X00338675Y00185842D01*
X00338943Y00186048D01*
X00339250Y00186100D01*
X00339557Y00186048D01*
X00339825Y00185842D01*
X00340055Y00185532D01*
X00340208Y00185170D01*
X00340285Y00184757D01*
X00340285Y00184343D01*
X00340208Y00183930D01*
X00340055Y00183568D01*
X00339825Y00183258D01*
X00339557Y00183052D01*
X00339250Y00183000D01*
G01X00341200Y00186100D02*
X00341737Y00183000D01*
X00342350Y00186100D01*
X00342963Y00183000D01*
X00343500Y00186100D01*
G01X00346217Y00183000D02*
X00344683Y00183000D01*
X00344683Y00186100D01*
X00346217Y00186100D01*
G01X00345603Y00184602D02*
X00344683Y00184602D01*
G01X00347783Y00183000D02*
X00347783Y00186100D01*
X00348742Y00186100D01*
X00349048Y00185945D01*
X00349240Y00185738D01*
X00349317Y00185325D01*
X00349240Y00184912D01*
X00349010Y00184653D01*
X00348742Y00184498D01*
X00347783Y00184498D01*
G01X00348742Y00184498D02*
X00349317Y00183000D01*
G01X00340667Y00200500D02*
X00338000Y00201500D01*
X00340667Y00202500D01*
G01X00338000Y00201500D02*
X00343333Y00201500D01*
G01X00338667Y00204550D02*
X00338267Y00204850D01*
X00338067Y00205200D01*
X00338000Y00205600D01*
X00338133Y00206100D01*
X00338467Y00206450D01*
X00338867Y00206550D01*
X00339267Y00206500D01*
X00339600Y00206300D01*
X00340267Y00205300D01*
X00340733Y00204850D01*
X00341400Y00204550D01*
X00342000Y00204450D01*
X00342000Y00206550D01*
G01X00338667Y00208550D02*
X00338267Y00208850D01*
X00338067Y00209200D01*
X00338000Y00209600D01*
X00338133Y00210100D01*
X00338467Y00210450D01*
X00338867Y00210550D01*
X00339267Y00210500D01*
X00339600Y00210300D01*
X00340267Y00209300D01*
X00340733Y00208850D01*
X00341400Y00208550D01*
X00342000Y00208450D01*
X00342000Y00210550D01*
G01X00338000Y00213500D02*
X00338133Y00213100D01*
X00338467Y00212800D01*
X00338867Y00212600D01*
X00339400Y00212450D01*
X00340000Y00212400D01*
X00340600Y00212450D01*
X00341133Y00212600D01*
X00341533Y00212800D01*
X00341867Y00213100D01*
X00342000Y00213500D01*
X00341867Y00213900D01*
X00341533Y00214200D01*
X00341133Y00214400D01*
X00340600Y00214550D01*
X00340000Y00214600D01*
X00339400Y00214550D01*
X00338867Y00214400D01*
X00338467Y00214200D01*
X00338133Y00213900D01*
X00338000Y00213500D01*
G01X00338000Y00216250D02*
X00342000Y00217500D01*
X00338000Y00218750D01*
G01X00342000Y00224550D02*
X00338000Y00224550D01*
X00338000Y00226450D01*
G01X00339933Y00225750D02*
X00339933Y00224550D01*
G01X00342000Y00228250D02*
X00338000Y00229500D01*
X00342000Y00230750D01*
G01X00340600Y00230300D02*
X00340600Y00228700D01*
G01X00342000Y00232350D02*
X00338000Y00232350D01*
X00342000Y00234650D01*
X00338000Y00234650D01*
G01X00340667Y00236500D02*
X00338000Y00237500D01*
X00340667Y00238500D01*
G01X00338000Y00237500D02*
X00343333Y00237500D01*
G01X00350550Y00247333D02*
X00350850Y00247733D01*
X00351200Y00247933D01*
X00351600Y00248000D01*
X00352100Y00247867D01*
X00352450Y00247533D01*
X00352550Y00247133D01*
X00352500Y00246733D01*
X00352300Y00246400D01*
X00351300Y00245733D01*
X00350850Y00245267D01*
X00350550Y00244600D01*
X00350450Y00244000D01*
X00352550Y00244000D01*
G01X00354550Y00247333D02*
X00354850Y00247733D01*
X00355200Y00247933D01*
X00355600Y00248000D01*
X00356100Y00247867D01*
X00356450Y00247533D01*
X00356550Y00247133D01*
X00356500Y00246733D01*
X00356300Y00246400D01*
X00355300Y00245733D01*
X00354850Y00245267D01*
X00354550Y00244600D01*
X00354450Y00244000D01*
X00356550Y00244000D01*
G01X00359500Y00248000D02*
X00359100Y00247867D01*
X00358800Y00247533D01*
X00358600Y00247133D01*
X00358450Y00246600D01*
X00358400Y00246000D01*
X00358450Y00245400D01*
X00358600Y00244867D01*
X00358800Y00244467D01*
X00359100Y00244133D01*
X00359500Y00244000D01*
X00359900Y00244133D01*
X00360200Y00244467D01*
X00360400Y00244867D01*
X00360550Y00245400D01*
X00360600Y00246000D01*
X00360550Y00246600D01*
X00360400Y00247133D01*
X00360200Y00247533D01*
X00359900Y00247867D01*
X00359500Y00248000D01*
G01X00362250Y00248000D02*
X00363500Y00244000D01*
X00364750Y00248000D01*
G01X00366250Y00244000D02*
X00367500Y00248000D01*
X00368750Y00244000D01*
G01X00368300Y00245400D02*
X00366700Y00245400D01*
G01X00372600Y00247667D02*
X00372300Y00247867D01*
X00371950Y00248000D01*
X00371550Y00248000D01*
X00371100Y00247800D01*
X00370750Y00247467D01*
X00370500Y00247067D01*
X00370300Y00246400D01*
X00370250Y00245800D01*
X00370350Y00245200D01*
X00370500Y00244800D01*
X00370800Y00244400D01*
X00371150Y00244133D01*
X00371500Y00244000D01*
X00371850Y00244000D01*
X00372200Y00244133D01*
X00372500Y00244333D01*
X00372750Y00244600D01*
G01X00355690Y00241100D02*
X00356610Y00241100D01*
G01X00356150Y00241100D02*
X00356150Y00238000D01*
G01X00355690Y00238000D02*
X00356610Y00238000D01*
G01X00358368Y00238000D02*
X00358368Y00241100D01*
X00360132Y00238000D01*
X00360132Y00241100D01*
G01X00361583Y00238000D02*
X00361583Y00241100D01*
X00362503Y00241100D01*
X00362810Y00240945D01*
X00363040Y00240583D01*
X00363117Y00240170D01*
X00363040Y00239757D01*
X00362848Y00239447D01*
X00362503Y00239292D01*
X00361583Y00239292D01*
G01X00364607Y00241100D02*
X00364607Y00238878D01*
X00364760Y00238413D01*
X00365067Y00238103D01*
X00365450Y00238000D01*
X00365833Y00238103D01*
X00366140Y00238413D01*
X00366293Y00238878D01*
X00366293Y00241100D01*
G01X00368550Y00241100D02*
X00368550Y00238000D01*
G01X00367668Y00241100D02*
X00369432Y00241100D01*
G54D13*
G01X00020587Y00087937D02*
G03X00020587Y00087937I-00000493J0D01*
G01X00051666Y00123402D02*
G03X00051666Y00123402I-00000493J0D01*
G01X00045587Y00206937D02*
G03X00045587Y00206937I-00000493J0D01*
G01X00087587Y00087937D02*
G03X00087587Y00087937I-00000493J0D01*
G01X00077016Y00330000D02*
G03X00077016Y00330000I-00000492J0D01*
G01X00096666Y00123402D02*
G03X00096666Y00123402I-00000493J0D01*
G01X00094492Y00198539D02*
G03X00094492Y00198539I-00000492J0D01*
G01X00094610Y00271961D02*
G03X00094610Y00271961I-00000492J0D01*
G01X00103319Y00315598D02*
G03X00103319Y00315598I-00000492J0D01*
G01X00103319Y00359598D02*
G03X00103319Y00359598I-00000492J0D01*
G01X00117894Y00224827D02*
G03X00117894Y00224827I-00000492J0D01*
G01X00117894Y00270827D02*
G03X00117894Y00270827I-00000492J0D01*
G01X00117894Y00247827D02*
G03X00117894Y00247827I-00000492J0D01*
G01X00117894Y00293827D02*
G03X00117894Y00293827I-00000492J0D01*
G01X00154587Y00087937D02*
G03X00154587Y00087937I-00000493J0D01*
G01X00141666Y00124402D02*
G03X00141666Y00124402I-00000493J0D01*
G01X00157492Y00235370D02*
G03X00157492Y00235370I-00000492J0D01*
G01X00157492Y00267370D02*
G03X00157492Y00267370I-00000492J0D01*
G01X00157492Y00298370D02*
G03X00157492Y00298370I-00000492J0D01*
G01X00167492Y00372461D02*
G03X00167492Y00372461I-00000492J0D01*
G01X00184666Y00124402D02*
G03X00184666Y00124402I-00000493J0D01*
G01X00191556Y00357094D02*
G03X00191556Y00357094I-00000493J0D01*
G01X00215492Y00372461D02*
G03X00215492Y00372461I-00000492J0D01*
G01X00236362Y00102000D02*
G03X00236362Y00102000I-00000492J0D01*
G01X00222587Y00087937D02*
G03X00222587Y00087937I-00000493J0D01*
G01X00236362Y00172000D02*
G03X00236362Y00172000I-00000492J0D01*
G01X00239556Y00357094D02*
G03X00239556Y00357094I-00000493J0D01*
G01X00263492Y00372461D02*
G03X00263492Y00372461I-00000492J0D01*
G01X00287556Y00357094D02*
G03X00287556Y00357094I-00000493J0D01*
G01X00311492Y00372461D02*
G03X00311492Y00372461I-00000492J0D01*
G01X00332587Y00182937D02*
G03X00332587Y00182937I-00000493J0D01*
G01X00335556Y00358094D02*
G03X00335556Y00358094I-00000493J0D01*
G01X00380539Y00285000D02*
G03X00380539Y00285000I-00000492J0D01*
G54D14*
G01X00025016Y00081441D02*
X00025016Y00086559D01*
X00026984Y00086559D01*
X00026984Y00081441D01*
X00025016Y00081441D01*
G01X00071646Y00129701D02*
X00052354Y00129701D01*
X00052354Y00142299D01*
X00071646Y00142299D01*
X00071646Y00129701D01*
G01X00050016Y00200441D02*
X00050016Y00205559D01*
X00051984Y00205559D01*
X00051984Y00200441D01*
X00050016Y00200441D01*
G01X00084472Y00244008D02*
X00076008Y00244008D01*
X00076008Y00263496D01*
X00082504Y00269992D01*
X00084472Y00269992D01*
G01X00082354Y00309299D02*
X00101646Y00309299D01*
X00101646Y00296701D01*
X00082354Y00296701D01*
X00082354Y00309299D01*
G01X00082354Y00353299D02*
X00101646Y00353299D01*
X00101646Y00340701D01*
X00082354Y00340701D01*
X00082354Y00353299D01*
G01X00092016Y00081441D02*
X00092016Y00086559D01*
X00093984Y00086559D01*
X00093984Y00081441D01*
X00092016Y00081441D01*
G01X00116646Y00129701D02*
X00097354Y00129701D01*
X00097354Y00142299D01*
X00116646Y00142299D01*
X00116646Y00129701D01*
G01X00093528Y00244008D02*
X00101992Y00244008D01*
X00101992Y00263496D01*
X00095496Y00269992D01*
X00093528Y00269992D01*
G01X00123701Y00204354D02*
X00123701Y00223646D01*
X00136299Y00223646D01*
X00136299Y00204354D01*
X00123701Y00204354D01*
G01X00123701Y00227354D02*
X00123701Y00246646D01*
X00136299Y00246646D01*
X00136299Y00227354D01*
X00123701Y00227354D01*
G01X00123701Y00273354D02*
X00123701Y00292646D01*
X00136299Y00292646D01*
X00136299Y00273354D01*
X00123701Y00273354D01*
G01X00123701Y00250354D02*
X00123701Y00269646D01*
X00136299Y00269646D01*
X00136299Y00250354D01*
X00123701Y00250354D01*
G01X00149921Y00319000D02*
G03X00149921Y00319000I-00004921J0D01*
G01X00149921Y00336000D02*
G03X00149921Y00336000I-00004921J0D01*
G01X00159016Y00081441D02*
X00159016Y00086559D01*
X00160984Y00086559D01*
X00160984Y00081441D01*
X00159016Y00081441D01*
G01X00161646Y00130701D02*
X00142354Y00130701D01*
X00142354Y00143299D01*
X00161646Y00143299D01*
X00161646Y00130701D01*
G01X00152472Y00231039D02*
X00151685Y00231039D01*
X00151685Y00210961D01*
X00152472Y00210961D01*
G01X00161528Y00231039D02*
X00162315Y00231039D01*
X00162315Y00210961D01*
X00161528Y00210961D01*
G01X00152472Y00263039D02*
X00151685Y00263039D01*
X00151685Y00242961D01*
X00152472Y00242961D01*
G01X00161528Y00263039D02*
X00162315Y00263039D01*
X00162315Y00242961D01*
X00161528Y00242961D01*
G01X00152472Y00294039D02*
X00151685Y00294039D01*
X00151685Y00273961D01*
X00152472Y00273961D01*
G01X00161528Y00294039D02*
X00162315Y00294039D01*
X00162315Y00273961D01*
X00161528Y00273961D01*
G01X00162921Y00329000D02*
G03X00162921Y00329000I-00004921J0D01*
G01X00162921Y00312000D02*
G03X00162921Y00312000I-00004921J0D01*
G01X00204646Y00130701D02*
X00185354Y00130701D01*
X00185354Y00143299D01*
X00204646Y00143299D01*
X00204646Y00130701D01*
G01X00197559Y00362016D02*
X00192441Y00362016D01*
X00192441Y00363984D01*
X00197559Y00363984D01*
X00197559Y00362016D01*
G01X00227016Y00081441D02*
X00227016Y00086559D01*
X00228984Y00086559D01*
X00228984Y00081441D01*
X00227016Y00081441D01*
G01X00245559Y00362016D02*
X00240441Y00362016D01*
X00240441Y00363984D01*
X00245559Y00363984D01*
X00245559Y00362016D01*
G01X00293559Y00362016D02*
X00288441Y00362016D01*
X00288441Y00363984D01*
X00293559Y00363984D01*
X00293559Y00362016D01*
G01X00337016Y00176441D02*
X00337016Y00181559D01*
X00338984Y00181559D01*
X00338984Y00176441D01*
X00337016Y00176441D01*
G01X00341559Y00363016D02*
X00336441Y00363016D01*
X00336441Y00364984D01*
X00341559Y00364984D01*
X00341559Y00363016D01*
M02*
