G04 ================== begin FILE IDENTIFICATION RECORD ==================*
G04 Layout Name:  C:/SPB_Data/HARDWARE/board/VitaBoard.brd*
G04 Film Name:    SOLDERMASK_BOTTOM*
G04 File Format:  Gerber RS274X*
G04 File Origin:  Cadence Allegro 16.6-S044*
G04 Origin Date:  Wed Mar 18 15:44:55 2015*
G04 *
G04 Layer:  PIN/SOLDERMASK_BOTTOM*
G04 Layer:  PACKAGE GEOMETRY/SOLDERMASK_BOTTOM*
G04 Layer:  BOARD GEOMETRY/SOLDERMASK_BOTTOM*
G04 *
G04 Offset:    (0.00 0.00)*
G04 Mirror:    No*
G04 Mode:      Positive*
G04 Rotation:  0*
G04 FullContactRelief:  No*
G04 UndefLineWidth:     6.00*
G04 ================== end FILE IDENTIFICATION RECORD ====================*
%FSAX35Y35*MOIN*%
%IR0*IPPOS*OFA0.00000B0.00000*MIA0B0*SFA1.00000B1.00000*%
%ADD16C,.05512*%
%ADD20C,.05118*%
%ADD22C,.09055*%
%ADD15R,.05512X.05512*%
%ADD11C,.03937*%
%ADD18C,.06496*%
%ADD24R,.09055X.09055*%
%ADD17C,.06299*%
%ADD14C,.09449*%
%ADD19R,.06496X.06496*%
%ADD25R,.06299X.06299*%
%ADD21C,.1063*%
%ADD23R,.1063X.1063*%
%ADD12O,.2047X.1299*%
%ADD13C,.12795*%
%ADD10C,.26378*%
%LPD*%
G75*
G54D10*
X00016000Y00016000D03*
X00016000Y00174000D03*
X00016000Y00207000D03*
X00016000Y00365000D03*
X00364000Y00016000D03*
X00364000Y00174000D03*
X00364000Y00207000D03*
X00364000Y00365000D03*
G54D11*
X00007306Y00010980D03*
X00007306Y00021020D03*
X00007306Y00168980D03*
X00007306Y00179020D03*
X00007306Y00201980D03*
X00007306Y00212020D03*
X00007306Y00359980D03*
X00007306Y00370020D03*
X00016000Y00005961D03*
X00024694Y00021020D03*
X00024694Y00010980D03*
X00016000Y00026039D03*
X00024694Y00168980D03*
X00016000Y00163961D03*
X00024694Y00179020D03*
X00016000Y00184039D03*
X00024694Y00212020D03*
X00024694Y00201980D03*
X00016000Y00196961D03*
X00016000Y00217039D03*
X00016000Y00354961D03*
X00024694Y00370020D03*
X00024694Y00359980D03*
X00016000Y00375039D03*
X00355306Y00010980D03*
X00355306Y00021020D03*
X00355306Y00168980D03*
X00355306Y00179020D03*
X00355306Y00201980D03*
X00355306Y00212020D03*
X00355306Y00359980D03*
X00355306Y00370020D03*
X00364000Y00005961D03*
X00372694Y00021020D03*
X00372694Y00010980D03*
X00364000Y00026039D03*
X00372694Y00168980D03*
X00364000Y00163961D03*
X00372694Y00179020D03*
X00364000Y00184039D03*
X00372694Y00212020D03*
X00372694Y00201980D03*
X00364000Y00196961D03*
X00364000Y00217039D03*
X00364000Y00354961D03*
X00372694Y00370020D03*
X00372694Y00359980D03*
X00364000Y00375039D03*
G54D20*
X00158000Y00329000D03*
X00145000Y00319000D03*
X00158000Y00312000D03*
X00145000Y00336000D03*
G54D12*
X00040500Y00231500D03*
X00026500Y00250000D03*
X00055000Y00250000D03*
G54D21*
X00194000Y00214000D03*
X00248000Y00214000D03*
X00302000Y00214000D03*
X00358000Y00265000D03*
G54D13*
X00031425Y00290000D03*
X00031425Y00335000D03*
X00051000Y00031425D03*
X00096000Y00031425D03*
X00129000Y00031425D03*
X00174000Y00031425D03*
X00205000Y00031425D03*
X00250000Y00031425D03*
X00249000Y00156575D03*
X00282000Y00031425D03*
X00294000Y00156575D03*
X00327000Y00031425D03*
X00352575Y00097000D03*
X00352575Y00142000D03*
G54D22*
X00189000Y00245000D03*
X00189000Y00255000D03*
X00189000Y00295000D03*
X00219000Y00255000D03*
X00219000Y00295000D03*
X00243000Y00245000D03*
X00243000Y00255000D03*
X00243000Y00295000D03*
X00273000Y00255000D03*
X00273000Y00295000D03*
X00296000Y00245000D03*
X00296000Y00255000D03*
X00296000Y00295000D03*
X00326000Y00255000D03*
X00326000Y00295000D03*
G54D23*
X00214000Y00214000D03*
X00268000Y00214000D03*
X00322000Y00214000D03*
X00358000Y00285000D03*
G54D14*
X00042791Y00043433D03*
X00043433Y00281791D03*
X00043433Y00343209D03*
X00104209Y00043433D03*
X00120791Y00043433D03*
X00196791Y00043433D03*
X00182209Y00043433D03*
X00240791Y00144567D03*
X00273791Y00043433D03*
X00258209Y00043433D03*
X00302209Y00144567D03*
X00335209Y00043433D03*
X00340567Y00088791D03*
X00340567Y00150209D03*
G54D24*
X00219000Y00245000D03*
X00273000Y00245000D03*
X00326000Y00245000D03*
G54D15*
X00056000Y00058000D03*
X00058000Y00330000D03*
X00134000Y00058000D03*
X00210000Y00058000D03*
X00287000Y00058000D03*
X00289000Y00130000D03*
X00326000Y00102000D03*
G54D25*
X00229000Y00102000D03*
X00229000Y00172000D03*
G54D16*
X00061000Y00068000D03*
X00058000Y00300000D03*
X00058000Y00310000D03*
X00058000Y00320000D03*
X00086000Y00058000D03*
X00076000Y00058000D03*
X00066000Y00058000D03*
X00081000Y00068000D03*
X00071000Y00068000D03*
X00068000Y00295000D03*
X00068000Y00305000D03*
X00068000Y00315000D03*
X00068000Y00325000D03*
X00091000Y00068000D03*
X00139000Y00068000D03*
X00164000Y00058000D03*
X00154000Y00058000D03*
X00144000Y00058000D03*
X00169000Y00068000D03*
X00159000Y00068000D03*
X00149000Y00068000D03*
X00220000Y00058000D03*
X00215000Y00068000D03*
X00240000Y00058000D03*
X00230000Y00058000D03*
X00245000Y00068000D03*
X00235000Y00068000D03*
X00225000Y00068000D03*
X00254000Y00120000D03*
X00259000Y00130000D03*
X00264000Y00120000D03*
X00269000Y00130000D03*
X00274000Y00120000D03*
X00297000Y00058000D03*
X00302000Y00068000D03*
X00292000Y00068000D03*
X00279000Y00130000D03*
X00284000Y00120000D03*
X00317000Y00058000D03*
X00307000Y00058000D03*
X00322000Y00068000D03*
X00312000Y00068000D03*
X00326000Y00112000D03*
X00316000Y00107000D03*
X00316000Y00137000D03*
X00326000Y00132000D03*
X00316000Y00127000D03*
X00326000Y00122000D03*
X00316000Y00117000D03*
G54D17*
X00039000Y00102000D03*
X00049000Y00102000D03*
X00059000Y00102000D03*
X00039000Y00172000D03*
X00049000Y00172000D03*
X00059000Y00172000D03*
X00069000Y00102000D03*
X00079000Y00102000D03*
X00089000Y00102000D03*
X00069000Y00172000D03*
X00079000Y00172000D03*
X00089000Y00172000D03*
X00099000Y00102000D03*
X00109000Y00102000D03*
X00099000Y00172000D03*
X00109000Y00172000D03*
X00119000Y00102000D03*
X00129000Y00102000D03*
X00139000Y00102000D03*
X00119000Y00172000D03*
X00129000Y00172000D03*
X00139000Y00172000D03*
X00149000Y00102000D03*
X00159000Y00102000D03*
X00169000Y00102000D03*
X00149000Y00172000D03*
X00159000Y00172000D03*
X00169000Y00172000D03*
X00179000Y00102000D03*
X00189000Y00102000D03*
X00179000Y00172000D03*
X00189000Y00172000D03*
X00199000Y00102000D03*
X00209000Y00102000D03*
X00219000Y00102000D03*
X00199000Y00172000D03*
X00209000Y00172000D03*
X00219000Y00172000D03*
G54D18*
X00084000Y00216000D03*
X00177000Y00355000D03*
X00225000Y00355000D03*
X00273000Y00355000D03*
X00321000Y00355000D03*
G54D19*
X00094000Y00216000D03*
X00167000Y00355000D03*
X00215000Y00355000D03*
X00263000Y00355000D03*
X00311000Y00355000D03*
M02*
