M48
INCH
T01C.013
T02C.01969
T03C.0315
T04C.03543
T05C.04134
T06C.04331
T07C.06299
T08C.06693
T09C.07087
T10C.1102
T11C.1378
T12C.12795
;LEADER: 12 
;HEADER: 
;CODE  : ASCII 
;FILE  : VitaBoard-1-2.drl for board #Taaaaai06956.tmp ... layers TOP and BOTTOM
;T01 Holesize 1. = 13.000000 Tolerance = +0.000000/-0.000000 PLATED MILS Quantity = 102
;T02 Holesize 2. = 19.690000 Tolerance = +0.000000/-0.000000 PLATED MILS Quantity = 48
;T03 Holesize 3. = 31.500000 Tolerance = +0.000000/-0.000000 PLATED MILS Quantity = 4
;T04 Holesize 4. = 35.430000 Tolerance = +0.000000/-0.000000 PLATED MILS Quantity = 56
;T05 Holesize 5. = 41.340000 Tolerance = +0.000000/-0.000000 PLATED MILS Quantity = 40
;T06 Holesize 6. = 43.310000 Tolerance = +0.000000/-0.000000 PLATED MILS Quantity = 10
;T07 Holesize 7. = 62.990000 Tolerance = +0.000000/-0.000000 PLATED MILS Quantity = 14
;T08 Holesize 8. = 66.930000 Tolerance = +0.000000/-0.000000 PLATED MILS Quantity = 18
;T09 Holesize 9. = 70.870000 Tolerance = +0.000000/-0.000000 PLATED MILS Quantity = 8
;T10 Holesize 10. = 110.200000 Tolerance = +0.000000/-0.000000 PLATED MILS Quantity = 3
;T11 Holesize 11. = 137.800000 Tolerance = +0.000000/-0.000000 PLATED MILS Quantity = 8
;T12 Holesize 12. = 127.950000 Tolerance = +0.000000/-0.000000 NON_PLATED MILS Quantity = 14
%
G90
T01
X00119000Y00058000
X00034000Y00084000
X00044000Y00092000
X00060000Y00092000
X00061000Y00078000
X00061000Y00113000
X00072000Y00114000
X00102000Y00084000
X00105000Y00092000
X00128000Y00092000
X00141000Y00085000
X00169000Y00084000
X00188000Y00092000
X00216000Y00092000
X00236000Y00084000
X00256000Y00083000
X00256000Y00092000
X00267000Y00083000
X00267000Y00092000
X00277000Y00083000
X00277000Y00092000
X00300000Y00117000
X00321000Y00078000
X00331000Y00105000
X00334500Y00163500
X00330000Y00142000
X00238000Y00133000
X00231000Y00120000
X00220000Y00120000
X00219000Y00160000
X00202500Y00137000
X00192000Y00137000
X00190000Y00160000
X00187500Y00140000
X00187500Y00132000
X00179000Y00122000
X00167000Y00122000
X00161000Y00160000
X00159500Y00137000
X00149000Y00137000
X00144000Y00140000
X00131000Y00160000
X00114500Y00137000
X00105000Y00137000
X00100000Y00160000
X00099500Y00140000
X00070000Y00160000
X00069000Y00137000
X00064500Y00152500
X00064500Y00120000
X00060250Y00135750
X00054500Y00120000
X00054000Y00140000
X00038000Y00160000
X00006000Y00221000
X00030000Y00197000
X00056000Y00197000
X00082000Y00197000
X00109000Y00197000
X00135000Y00197000
X00149071Y00229071
X00163000Y00197000
X00163000Y00212000
X00163000Y00237000
X00263000Y00270000
X00213000Y00266000
X00149000Y00292071
X00149000Y00261071
X00125000Y00272000
X00125000Y00263000
X00006000Y00276000
X00006000Y00248000
X00006000Y00302000
X00006000Y00326000
X00006000Y00348000
X00087421Y00307000
X00104370Y00336370
X00197000Y00319000
X00217000Y00319000
X00239000Y00319000
X00262000Y00319000
R03X00023000
X00356000Y00319000
X00374000Y00319000
X00374000Y00335000
X00374000Y00351000
X00348000Y00375000
R02X-00020000
X00286000Y00375000
X00263000Y00375000
X00241000Y00375000
R03X-00024000
X00139000Y00375000
X00112000Y00375000
X00081000Y00375000
X00054000Y00375000
X00031000Y00375000
T02
X00016000Y00005961
X00007306Y00010980
X00024694Y00010980
X00007306Y00021020
X00024694Y00021020
X00016000Y00026039
X00016000Y00163961
X00007306Y00168980
X00024694Y00168980
X00007306Y00179020
X00024694Y00179020
X00016000Y00184039
X00016000Y00196961
X00007306Y00201980
X00024694Y00201980
X00007306Y00212020
X00024694Y00212020
X00016000Y00217039
X00016000Y00354961
X00007306Y00359980
X00024694Y00359980
X00007306Y00370020
X00024694Y00370020
X00016000Y00375039
X00364000Y00375039
X00372694Y00370020
X00355306Y00370020
X00372694Y00359980
X00355306Y00359980
X00364000Y00354961
X00364000Y00217039
X00372694Y00212020
X00355306Y00212020
X00372694Y00201980
X00355306Y00201980
X00364000Y00196961
X00364000Y00184039
X00372694Y00179020
X00355306Y00179020
X00372694Y00168980
X00355306Y00168980
X00364000Y00163961
X00364000Y00026039
X00372694Y00021020
X00355306Y00021020
X00372694Y00010980
X00355306Y00010980
X00364000Y00005961
T03
X00158000Y00312000
X00145000Y00319000
X00158000Y00329000
X00145000Y00336000
T04
X00056000Y00058000
X00061000Y00068000
X00066000Y00058000
X00071000Y00068000
X00076000Y00058000
X00081000Y00068000
X00086000Y00058000
X00091000Y00068000
X00134000Y00058000
X00139000Y00068000
X00144000Y00058000
X00149000Y00068000
X00154000Y00058000
X00159000Y00068000
X00164000Y00058000
X00169000Y00068000
X00210000Y00058000
X00215000Y00068000
X00220000Y00058000
X00225000Y00068000
X00230000Y00058000
X00235000Y00068000
X00240000Y00058000
X00245000Y00068000
X00287000Y00058000
X00292000Y00068000
X00297000Y00058000
X00302000Y00068000
X00307000Y00058000
X00312000Y00068000
X00317000Y00058000
X00322000Y00068000
X00316000Y00107000
X00316000Y00117000
X00326000Y00102000
X00326000Y00112000
X00326000Y00132000
X00326000Y00122000
X00316000Y00137000
X00316000Y00127000
X00289000Y00130000
X00284000Y00120000
X00279000Y00130000
X00274000Y00120000
X00269000Y00130000
X00264000Y00120000
X00259000Y00130000
X00254000Y00120000
X00058000Y00300000
X00058000Y00310000
X00068000Y00295000
R03Y00010000
X00058000Y00330000
X00058000Y00320000
T05
X00039000Y00102000
R19X00010000
X00229000Y00172000
R19X-00010000
T06
X00084000Y00216000
X00094000Y00216000
X00167000Y00355000
X00177000Y00355000
X00215000Y00355000
X00225000Y00355000
X00263000Y00355000
X00273000Y00355000
X00311000Y00355000
X00321000Y00355000
T07
X00042791Y00043433
X00104209Y00043433
X00120791Y00043433
X00182209Y00043433
X00196791Y00043433
X00258209Y00043433
X00273791Y00043433
X00335209Y00043433
X00340567Y00088791
X00340567Y00150209
X00302209Y00144567
X00240791Y00144567
X00043433Y00281791
X00043433Y00343209
T08
X00189000Y00245000
X00189000Y00255000
X00219000Y00245000
X00219000Y00255000
X00243000Y00245000
X00243000Y00255000
X00273000Y00245000
X00273000Y00255000
X00296000Y00245000
X00296000Y00255000
X00326000Y00245000
X00326000Y00255000
X00326000Y00295000
X00296000Y00295000
X00273000Y00295000
X00243000Y00295000
X00219000Y00295000
X00189000Y00295000
T09
X00194000Y00214000
X00214000Y00214000
X00248000Y00214000
X00268000Y00214000
X00302000Y00214000
X00322000Y00214000
X00358000Y00265000
X00358000Y00285000
T10
X00026500Y00250000
X00040500Y00231500
X00055000Y00250000
T11
X00016000Y00016000
X00016000Y00174000
X00016000Y00207000
X00016000Y00365000
X00364000Y00365000
X00364000Y00207000
X00364000Y00174000
X00364000Y00016000
T12
X00051000Y00031425
X00096000Y00031425
X00129000Y00031425
X00174000Y00031425
X00205000Y00031425
X00250000Y00031425
X00282000Y00031425
X00327000Y00031425
X00352575Y00097000
X00352575Y00142000
X00294000Y00156575
X00249000Y00156575
X00031425Y00290000
X00031425Y00335000
M30
